SplineFontDB: 3.2
FontName: AlteHaasGrotesk_Bold
FullName: Alte Haas Grotesk Bold
FamilyName: Alte Haas Grotesk
Weight: Bold
Copyright: Copyright (c) 2007 by Yann Le Coroller. All rights reserved.
Version: 1
ItalicAngle: 0
UnderlinePosition: -125
UnderlineWidth: 50
Ascent: 800
Descent: 200
InvalidEm: 0
sfntRevision: 0x00010000
LayerCount: 2
Layer: 0 1 "Atr+AOEA-s" 1
Layer: 1 1 "Fore" 0
XUID: [1021 341 -550278143 3300480]
StyleMap: 0x0020
FSType: 0
OS2Version: 3
OS2_WeightWidthSlopeOnly: 0
OS2_UseTypoMetrics: 0
CreationTime: 1189686240
ModificationTime: 1711644646
PfmFamily: 17
TTFWeight: 700
TTFWidth: 5
LineGap: 29
VLineGap: 0
Panose: 2 0 8 3 0 0 0 9 0 4
OS2TypoAscent: 975
OS2TypoAOffset: 0
OS2TypoDescent: -218
OS2TypoDOffset: 0
OS2TypoLinegap: 57
OS2WinAscent: 975
OS2WinAOffset: 0
OS2WinDescent: 217
OS2WinDOffset: 0
HheadAscent: 975
HheadAOffset: 0
HheadDescent: -217
HheadDOffset: 0
OS2SubXSize: 204
OS2SubYSize: 204
OS2SubXOff: 0
OS2SubYOff: 286
OS2SupXSize: 204
OS2SupYSize: 204
OS2SupXOff: 0
OS2SupYOff: 286
OS2StrikeYSize: 50
OS2StrikeYPos: 250
OS2CapHeight: 714
OS2XHeight: 511
OS2Vendor: '    '
OS2CodePages: 20000111.40000000
OS2UnicodeRanges: 80000067.00000000.00000000.00000000
Lookup: 4 0 1 "'liga' Standard Ligatures in Latin lookup 0" { "'liga' Standard Ligatures in Latin lookup 0 subtable"  } ['liga' ('latn' <'dflt' > ) ]
Lookup: 4 0 0 "'ccmp' Glyph Composition/Decomposition in Latin lookup 1" { "'ccmp' Glyph Composition/Decomposition in Latin lookup 1 subtable"  } ['ccmp' ('latn' <'dflt' > ) ]
Lookup: 258 0 0 "'kern' Horizontal Kerning in Latin lookup 0" { "'kern' Horizontal Kerning in Latin lookup 0 subtable"  } ['kern' ('latn' <'dflt' > ) ]
DEI: 91125
TtTable: prep
PUSHW_1
 10
CALL
PUSHW_1
 0
CALL
EndTTInstrs
TtTable: fpgm
PUSHW_1
 0
FDEF
MPPEM
PUSHW_1
 9
LT
IF
PUSHB_2
 1
 1
INSTCTRL
EIF
PUSHW_1
 511
SCANCTRL
PUSHW_1
 17408
SCVTCI
PUSHW_2
 9
 3
SDS
SDB
ENDF
PUSHW_1
 1
FDEF
DUP
DUP
RCVT
ROUND[Black]
WCVTP
PUSHB_1
 1
ADD
ENDF
PUSHW_1
 2
FDEF
PUSHW_1
 1

StartChar: .notdef
Encoding: 65536 -1 0
Width: 500
GlyphClass: 1
Flags: W
LayerCount: 2
Fore
SplineSet
442 8 m 1,0,-1
 58 8 l 1,1,-1
 58 504 l 1,2,-1
 442 504 l 1,3,-1
 442 8 l 1,0,-1
50 512 m 1,4,-1
 50 0 l 1,5,-1
 450 0 l 1,6,-1
 450 512 l 1,7,-1
 50 512 l 1,4,-1
EndSplineSet
EndChar

StartChar: exclam
Encoding: 33 33 8
Width: 278
GlyphClass: 1
Flags: W
LayerCount: 2
Fore
SplineSet
70 489 m 0,0,1
 65 511 65 511 65.5 537 c 128,-1,2
 66 563 66 563 66 589 c 2,3,-1
 66 666 l 2,4,5
 66 677 66 677 66 687 c 128,-1,6
 66 697 66 697 71 704 c 0,7,8
 76 710 76 710 85 712 c 0,9,10
 87 713 87 713 89 712.5 c 128,-1,11
 91 712 91 712 93 713 c 2,12,-1
 170 713 l 2,13,14
 182 713 182 713 192.5 712 c 128,-1,15
 203 711 203 711 208 704 c 0,16,17
 212 698 212 698 212 689 c 128,-1,18
 212 680 212 680 212 670 c 2,19,-1
 212 559 l 2,20,21
 212 553 212 553 213 545.5 c 128,-1,22
 214 538 214 538 212 533 c 2,23,-1
 212 522 l 2,24,25
 210 515 210 515 210.5 507.5 c 128,-1,26
 211 500 211 500 209 494 c 0,27,28
 207 489 207 489 207.5 484.5 c 128,-1,29
 208 480 208 480 206 475 c 0,30,31
 204 466 204 466 204 457.5 c 128,-1,32
 204 449 204 449 202 441 c 0,33,34
 201 437 201 437 201 433.5 c 128,-1,35
 201 430 201 430 200 426 c 0,36,37
 198 413 198 413 197 399 c 128,-1,38
 196 385 196 385 193 372 c 0,39,40
 191 365 191 365 191.5 359 c 128,-1,41
 192 353 192 353 190 345 c 0,42,43
 186 327 186 327 185.5 307.5 c 128,-1,44
 185 288 185 288 180 270 c 0,45,46
 177 256 177 256 176.5 241.5 c 128,-1,47
 176 227 176 227 166 220 c 0,48,49
 163 218 163 218 159 217 c 128,-1,50
 155 216 155 216 150 215 c 2,51,-1
 136 215 l 2,52,53
 126 215 126 215 118.5 217 c 128,-1,54
 111 219 111 219 107 224 c 0,55,56
 102 230 102 230 102 237 c 128,-1,57
 102 244 102 244 100 252 c 0,58,59
 97 263 97 263 96.5 275 c 128,-1,60
 96 287 96 287 93 298 c 0,61,62
 93 306 93 306 92 309 c 0,63,64
 91 315 91 315 91 321 c 128,-1,65
 91 327 91 327 90 333 c 0,66,67
 86 347 86 347 85.5 362.5 c 128,-1,68
 85 378 85 378 82 392 c 0,69,70
 81 397 81 397 81 401.5 c 128,-1,71
 81 406 81 406 80 411 c 0,72,73
 78 420 78 420 77.5 430 c 128,-1,74
 77 440 77 440 75 450 c 0,75,76
 75 452 75 452 74.5 454 c 128,-1,77
 74 456 74 456 74 458 c 0,78,79
 72 466 72 466 72 473.5 c 128,-1,80
 72 481 72 481 70 489 c 0,0,1
209 147 m 0,81,82
 215 142 215 142 216 133 c 128,-1,83
 217 124 217 124 217 113 c 2,84,-1
 217 41 l 2,85,86
 217 30 217 30 216 21 c 128,-1,87
 215 12 215 12 210 7 c 0,88,89
 203 2 203 2 193 1.5 c 128,-1,90
 183 1 183 1 172 1 c 2,91,-1
 105 1 l 2,92,93
 94 1 94 1 84 1.5 c 128,-1,94
 74 2 74 2 69 8 c 256,95,96
 64 14 64 14 63 23.5 c 128,-1,97
 62 33 62 33 62 44 c 2,98,-1
 62 107 l 2,99,100
 62 117 62 117 62 126.5 c 128,-1,101
 62 136 62 136 66 142 c 256,102,103
 70 148 70 148 81 152 c 0,104,105
 83 153 83 153 85.5 152.5 c 128,-1,106
 88 152 88 152 90 153 c 2,107,-1
 169 153 l 2,108,109
 181 153 181 153 191.5 152.5 c 128,-1,110
 202 152 202 152 209 147 c 0,81,82
EndSplineSet
EndChar

StartChar: quotedbl
Encoding: 34 34 9
Width: 463
GlyphClass: 1
Flags: W
LayerCount: 2
Fore
SplineSet
185 705 m 0,0,1
 191 696 191 696 190.5 679.5 c 128,-1,2
 190 663 190 663 190 649 c 2,3,-1
 190 441 l 2,4,5
 190 430 190 430 190 420 c 128,-1,6
 190 410 190 410 186 404 c 0,7,8
 182 397 182 397 171 395 c 0,9,10
 166 393 166 393 160 393.5 c 128,-1,11
 154 394 154 394 148 394 c 0,12,13
 133 394 133 394 115 393.5 c 128,-1,14
 97 393 97 393 91 402 c 0,15,16
 86 407 86 407 85.5 415.5 c 128,-1,17
 85 424 85 424 85 434 c 2,18,-1
 85 639 l 2,19,20
 85 653 85 653 84.5 673.5 c 128,-1,21
 84 694 84 694 89 703 c 0,22,23
 93 708 93 708 102 712 c 0,24,25
 104 712 104 712 106.5 712.5 c 128,-1,26
 109 713 109 713 112 713 c 0,27,28
 120 713 120 713 131.5 713.5 c 128,-1,29
 143 714 143 714 153.5 713.5 c 128,-1,30
 164 713 164 713 173 711 c 128,-1,31
 182 709 182 709 185 705 c 0,0,1
376 441 m 2,32,33
 376 431 376 431 376 421 c 128,-1,34
 376 411 376 411 372 405 c 0,35,36
 368 397 368 397 357 395 c 0,37,38
 352 393 352 393 346 393.5 c 128,-1,39
 340 394 340 394 334 394 c 0,40,41
 320 394 320 394 301.5 393.5 c 128,-1,42
 283 393 283 393 277 402 c 0,43,44
 272 407 272 407 271.5 415.5 c 128,-1,45
 271 424 271 424 271 434 c 2,46,-1
 271 639 l 2,47,48
 271 653 271 653 270.5 673.5 c 128,-1,49
 270 694 270 694 275 703 c 0,50,51
 279 708 279 708 288 712 c 0,52,53
 290 712 290 712 293 712.5 c 128,-1,54
 296 713 296 713 298 713 c 0,55,56
 306 713 306 713 317 713.5 c 128,-1,57
 328 714 328 714 338.5 713.5 c 128,-1,58
 349 713 349 713 357.5 711.5 c 128,-1,59
 366 710 366 710 370 706 c 0,60,61
 377 698 377 698 376.5 681.5 c 128,-1,62
 376 665 376 665 376 650 c 2,63,-1
 376 441 l 2,32,33
EndSplineSet
EndChar

StartChar: numbersign
Encoding: 35 35 10
Width: 556
GlyphClass: 1
Flags: W
LayerCount: 2
Fore
SplineSet
521 454 m 0,0,1
 521 447 521 447 521.5 440.5 c 128,-1,2
 522 434 522 434 520 429 c 0,3,4
 517 418 517 418 509.5 415 c 128,-1,5
 502 412 502 412 492 412 c 128,-1,6
 482 412 482 412 471.5 412.5 c 128,-1,7
 461 413 461 413 451 410 c 256,8,9
 441 407 441 407 436.5 399.5 c 128,-1,10
 432 392 432 392 430.5 381.5 c 128,-1,11
 429 371 429 371 428 359.5 c 128,-1,12
 427 348 427 348 425 338 c 0,13,14
 424 334 424 334 423.5 329.5 c 128,-1,15
 423 325 423 325 422 320 c 2,16,-1
 422 314 l 2,17,18
 422 313 422 313 421.5 311.5 c 128,-1,19
 421 310 421 310 421 308 c 0,20,21
 423 302 423 302 424.5 297.5 c 128,-1,22
 426 293 426 293 431 290 c 0,23,24
 439 285 439 285 453 286.5 c 128,-1,25
 467 288 467 288 477 284 c 0,26,27
 488 279 488 279 491 262 c 2,28,-1
 491 253 l 2,29,30
 492 248 492 248 492 241.5 c 128,-1,31
 492 235 492 235 491 230 c 2,32,-1
 491 222 l 2,33,34
 490 219 490 219 490 216 c 128,-1,35
 490 213 490 213 488 210 c 0,36,37
 484 201 484 201 473 199.5 c 128,-1,38
 462 198 462 198 448 198 c 0,39,40
 444 198 444 198 440 198 c 128,-1,41
 436 198 436 198 433 197 c 2,42,-1
 427 197 l 2,43,44
 412 194 412 194 406 185 c 0,45,46
 401 177 401 177 400.5 164.5 c 128,-1,47
 400 152 400 152 397 140 c 0,48,49
 392 119 392 119 390.5 96.5 c 128,-1,50
 389 74 389 74 384 52 c 0,51,52
 382 44 382 44 381.5 36 c 128,-1,53
 381 28 381 28 379.5 21 c 128,-1,54
 378 14 378 14 374 9 c 128,-1,55
 370 4 370 4 362 1 c 0,56,57
 357 -1 357 -1 350.5 -0.5 c 128,-1,58
 344 0 344 0 338 0 c 0,59,60
 324 0 324 0 309 0.5 c 128,-1,61
 294 1 294 1 289 10 c 0,62,63
 285 15 285 15 285.5 28 c 128,-1,64
 286 41 286 41 288 48 c 0,65,66
 293 66 293 66 294 85 c 128,-1,67
 295 104 295 104 299 122 c 0,68,69
 300 127 300 127 300 131 c 128,-1,70
 300 135 300 135 301 140 c 0,71,72
 302 144 302 144 302 147.5 c 128,-1,73
 302 151 302 151 303 155 c 0,74,75
 306 170 306 170 304 181 c 128,-1,76
 302 192 302 192 288 196 c 0,77,78
 283 198 283 198 277 198 c 128,-1,79
 271 198 271 198 264 198 c 0,80,81
 251 198 251 198 238.5 197.5 c 128,-1,82
 226 197 226 197 218 192 c 0,83,84
 210 185 210 185 209 173.5 c 128,-1,85
 208 162 208 162 205 150 c 0,86,87
 203 144 203 144 203.5 138 c 128,-1,88
 204 132 204 132 202 126 c 0,89,90
 197 106 197 106 196 85.5 c 128,-1,91
 195 65 195 65 190 45 c 0,92,93
 187 34 187 34 186 25.5 c 128,-1,94
 185 17 185 17 180 9 c 256,95,96
 175 1 175 1 162 0.5 c 128,-1,97
 149 0 149 0 136 0 c 0,98,99
 131 0 131 0 126 -0.5 c 128,-1,100
 121 -1 121 -1 117 0 c 0,101,102
 112 2 112 2 108.5 1.5 c 128,-1,103
 105 1 105 1 102 3 c 0,104,105
 94 8 94 8 93 18.5 c 128,-1,106
 92 29 92 29 94 40 c 0,107,108
 95 44 95 44 95 47.5 c 128,-1,109
 95 51 95 51 96 54 c 0,110,111
 100 71 100 71 101 89.5 c 128,-1,112
 102 108 102 108 106 125 c 0,113,114
 107 130 107 130 107 134 c 128,-1,115
 107 138 107 138 108 143 c 0,116,117
 110 151 110 151 111.5 164 c 128,-1,118
 113 177 113 177 110 185 c 256,119,120
 107 193 107 193 99 195.5 c 128,-1,121
 91 198 91 198 80 198 c 0,122,123
 76 198 76 198 71.5 197.5 c 128,-1,124
 67 197 67 197 63 198 c 0,125,126
 61 198 61 198 58 198.5 c 128,-1,127
 55 199 55 199 53 199 c 0,128,129
 38 202 38 202 35 215 c 0,130,131
 33 220 33 220 33 226 c 128,-1,132
 33 232 33 232 33 239 c 0,133,134
 33 251 33 251 33.5 263 c 128,-1,135
 34 275 34 275 41 280 c 0,136,137
 47 284 47 284 56.5 285 c 128,-1,138
 66 286 66 286 76.5 286 c 128,-1,139
 87 286 87 286 97 286 c 128,-1,140
 107 286 107 286 115 289 c 256,141,142
 123 292 123 292 127 300.5 c 128,-1,143
 131 309 131 309 133 319.5 c 128,-1,144
 135 330 135 330 136 341.5 c 128,-1,145
 137 353 137 353 139 363 c 0,146,147
 140 368 140 368 141.5 377.5 c 128,-1,148
 143 387 143 387 142 392 c 0,149,150
 139 404 139 404 132 408 c 0,151,152
 123 413 123 413 108 411.5 c 128,-1,153
 93 410 93 410 82 413 c 0,154,155
 67 418 67 418 64 432 c 0,156,157
 64 442 64 442 63 447 c 0,158,159
 61 455 61 455 63 464 c 0,160,161
 65 470 65 470 64.5 476.5 c 128,-1,162
 64 483 64 483 66 488 c 0,163,164
 71 499 71 499 85.5 499.5 c 128,-1,165
 100 500 100 500 116 500 c 2,166,-1
 130 500 l 2,167,168
 141 502 141 502 147.5 504.5 c 128,-1,169
 154 507 154 507 159 517 c 0,170,171
 162 525 162 525 162.5 534.5 c 128,-1,172
 163 544 163 544 165 553 c 0,173,174
 170 575 170 575 171.5 597.5 c 128,-1,175
 173 620 173 620 178 641 c 0,176,177
 181 654 181 654 181.5 667 c 128,-1,178
 182 680 182 680 189 688 c 0,179,180
 192 694 192 694 202 696 c 0,181,182
 204 697 204 697 207 696.5 c 128,-1,183
 210 696 210 696 212 698 c 0,184,185
 220 698 220 698 229.5 698.5 c 128,-1,186
 239 699 239 699 248 698.5 c 128,-1,187
 257 698 257 698 264 696 c 128,-1,188
 271 694 271 694 274 689 c 0,189,190
 278 683 278 683 277.5 670 c 128,-1,191
 277 657 277 657 275 649 c 0,192,193
 273 640 273 640 272 630.5 c 128,-1,194
 271 621 271 621 269 611 c 0,195,196
 265 594 265 594 264 575.5 c 128,-1,197
 263 557 263 557 259 540 c 0,198,199
 257 533 257 533 257.5 524.5 c 128,-1,200
 258 516 258 516 261 511 c 0,201,202
 265 503 265 503 279 501 c 0,203,204
 284 500 284 500 289.5 500 c 128,-1,205
 295 500 295 500 300 500 c 0,206,207
 314 500 314 500 328 500.5 c 128,-1,208
 342 501 342 501 348 509 c 0,209,210
 353 515 353 515 354.5 523.5 c 128,-1,211
 356 532 356 532 358 540 c 0,212,213
 358 548 358 548 359 551 c 0,214,215
 363 569 363 569 364 588 c 128,-1,216
 365 607 365 607 369 624 c 0,217,218
 371 630 371 630 370.5 635.5 c 128,-1,219
 370 641 370 641 372 646 c 0,220,221
 374 657 374 657 375 668 c 128,-1,222
 376 679 376 679 381 687 c 0,223,224
 387 697 387 697 402.5 697.5 c 128,-1,225
 418 698 418 698 435 698 c 0,226,227
 444 698 444 698 453 697 c 128,-1,228
 462 696 462 696 466 690 c 0,229,230
 471 682 471 682 470 667.5 c 128,-1,231
 469 653 469 653 467 643 c 0,232,233
 466 639 466 639 466 635.5 c 128,-1,234
 466 632 466 632 465 628 c 0,235,236
 462 615 462 615 461 600.5 c 128,-1,237
 460 586 460 586 457 573 c 0,238,239
 456 568 456 568 456 558 c 0,240,241
 454 552 454 552 452 538.5 c 128,-1,242
 450 525 450 525 452 517 c 0,243,244
 455 506 455 506 461.5 504 c 128,-1,245
 468 502 468 502 479 500 c 0,246,247
 482 499 482 499 486 499.5 c 128,-1,248
 490 500 490 500 492 500 c 0,249,250
 496 499 496 499 499 499.5 c 128,-1,251
 502 500 502 500 505 498 c 0,252,253
 518 494 518 494 519.5 482.5 c 128,-1,254
 521 471 521 471 521 454 c 0,0,1
333 366 m 0,255,256
 335 374 335 374 335.5 384.5 c 128,-1,257
 336 395 336 395 332 401 c 0,258,259
 325 412 325 412 307.5 412 c 128,-1,260
 290 412 290 412 273 412 c 0,261,262
 271 410 271 410 267.5 411 c 128,-1,263
 264 412 264 412 262 411 c 0,264,265
 249 408 249 408 243 399 c 0,266,267
 240 394 240 394 239.5 388.5 c 128,-1,268
 239 383 239 383 237 376 c 0,269,270
 234 363 234 363 232.5 349.5 c 128,-1,271
 231 336 231 336 228 323 c 0,272,273
 227 317 227 317 227.5 309 c 128,-1,274
 228 301 228 301 230 297 c 0,275,276
 235 289 235 289 246.5 287.5 c 128,-1,277
 258 286 258 286 272 286 c 0,278,279
 277 286 277 286 282 285.5 c 128,-1,280
 287 285 287 285 291 287 c 0,281,282
 295 288 295 288 298.5 287 c 128,-1,283
 302 286 302 286 306 288 c 0,284,285
 316 291 316 291 320.5 299.5 c 128,-1,286
 325 308 325 308 327 319.5 c 128,-1,287
 329 331 329 331 329.5 343 c 128,-1,288
 330 355 330 355 333 366 c 0,255,256
EndSplineSet
EndChar

StartChar: dollar
Encoding: 36 36 11
Width: 556
GlyphClass: 1
Flags: W
LayerCount: 2
Fore
SplineSet
555 228 m 0,0,1
 557 215 557 215 556.5 195.5 c 128,-1,2
 556 176 556 176 553 165 c 0,3,4
 551 157 551 157 549.5 150.5 c 128,-1,5
 548 144 548 144 546 137 c 0,6,7
 533 107 533 107 515.5 82.5 c 128,-1,8
 498 58 498 58 472 40 c 0,9,10
 467 36 467 36 461 32 c 128,-1,11
 455 28 455 28 449 24 c 0,12,13
 434 14 434 14 416.5 8 c 128,-1,14
 399 2 399 2 381 -4 c 0,15,16
 372 -7 372 -7 362.5 -8.5 c 128,-1,17
 353 -10 353 -10 344 -12 c 0,18,19
 340 -13 340 -13 336.5 -13 c 128,-1,20
 333 -13 333 -13 329 -14 c 0,21,22
 312 -20 312 -20 308 -35 c 0,23,24
 308 -37 308 -37 307.5 -39 c 128,-1,25
 307 -41 307 -41 307 -43 c 0,26,27
 306 -45 306 -45 306.5 -49 c 128,-1,28
 307 -53 307 -53 307 -57 c 0,29,30
 307 -67 307 -67 306.5 -76.5 c 128,-1,31
 306 -86 306 -86 302 -92 c 0,32,33
 297 -98 297 -98 284 -100 c 0,34,35
 282 -101 282 -101 278 -100.5 c 128,-1,36
 274 -100 274 -100 272 -100 c 0,37,38
 264 -98 264 -98 258.5 -95.5 c 128,-1,39
 253 -93 253 -93 251 -85 c 0,40,41
 248 -76 248 -76 248.5 -66.5 c 128,-1,42
 249 -57 249 -57 249 -48 c 128,-1,43
 249 -39 249 -39 247 -31.5 c 128,-1,44
 245 -24 245 -24 238 -19 c 256,45,46
 231 -14 231 -14 222.5 -13 c 128,-1,47
 214 -12 214 -12 206 -10 c 0,48,49
 192 -7 192 -7 179 -4 c 128,-1,50
 166 -1 166 -1 154 4 c 0,51,52
 105 24 105 24 74.5 53.5 c 128,-1,53
 44 83 44 83 24 132 c 0,54,55
 19 143 19 143 16 154 c 128,-1,56
 13 165 13 165 10 176 c 0,57,58
 8 180 8 180 8.5 183 c 128,-1,59
 9 186 9 186 7 190 c 0,60,61
 5 196 5 196 4.5 204 c 128,-1,62
 4 212 4 212 6 218 c 0,63,64
 9 225 9 225 17 228 c 0,65,66
 22 230 22 230 29 230.5 c 128,-1,67
 36 231 36 231 44 231 c 2,68,-1
 93 231 l 2,69,70
 101 231 101 231 109.5 231 c 128,-1,71
 118 231 118 231 124 229 c 0,72,73
 132 226 132 226 136 220 c 128,-1,74
 140 214 140 214 142 206.5 c 128,-1,75
 144 199 144 199 146 190.5 c 128,-1,76
 148 182 148 182 151 175 c 0,77,78
 159 156 159 156 171 142.5 c 128,-1,79
 183 129 183 129 200 118 c 0,80,81
 204 115 204 115 210.5 112 c 128,-1,82
 217 109 217 109 223.5 107.5 c 128,-1,83
 230 106 230 106 236.5 107 c 128,-1,84
 243 108 243 108 246 115 c 0,85,86
 248 120 248 120 248.5 128 c 128,-1,87
 249 136 249 136 249 144 c 2,88,-1
 249 264 l 2,89,90
 249 276 249 276 248.5 286.5 c 128,-1,91
 248 297 248 297 243 304 c 0,92,93
 238 312 238 312 229.5 314 c 128,-1,94
 221 316 221 316 212 319 c 0,95,96
 201 323 201 323 189.5 326 c 128,-1,97
 178 329 178 329 167 333 c 0,98,99
 138 344 138 344 112 357.5 c 128,-1,100
 86 371 86 371 66 391 c 2,101,-1
 55 402 l 2,102,103
 46 414 46 414 38.5 427.5 c 128,-1,104
 31 441 31 441 26 458 c 0,105,106
 23 467 23 467 21.5 476.5 c 128,-1,107
 20 486 20 486 18 496 c 2,108,-1
 18 517 l 2,109,110
 18 531 18 531 19 542.5 c 128,-1,111
 20 554 20 554 23 565 c 0,112,113
 26 575 26 575 28 584 c 128,-1,114
 30 593 30 593 35 602 c 0,115,116
 49 633 49 633 71.5 655 c 128,-1,117
 94 677 94 677 122 694 c 0,118,119
 138 704 138 704 156 710 c 128,-1,120
 174 716 174 716 194 722 c 0,121,122
 205 725 205 725 217 726 c 128,-1,123
 229 727 229 727 237 732 c 0,124,125
 244 737 244 737 245.5 743 c 128,-1,126
 247 749 247 749 249 759 c 0,127,128
 250 763 250 763 249.5 767.5 c 128,-1,129
 249 772 249 772 250 776 c 0,130,131
 251 781 251 781 250.5 784 c 128,-1,132
 250 787 250 787 251 791 c 0,133,134
 255 801 255 801 262 804 c 0,135,136
 264 805 264 805 267 804.5 c 128,-1,137
 270 804 270 804 272 806 c 0,138,139
 284 806 284 806 292 803.5 c 128,-1,140
 300 801 300 801 304 793 c 0,141,142
 306 787 306 787 306 783 c 2,143,-1
 306 772 l 2,144,145
 307 769 307 769 306.5 764.5 c 128,-1,146
 306 760 306 760 307 756 c 0,147,148
 309 748 309 748 310.5 742 c 128,-1,149
 312 736 312 736 318 732 c 256,150,151
 324 728 324 728 331.5 727 c 128,-1,152
 339 726 339 726 347 724 c 0,153,154
 358 720 358 720 369 717.5 c 128,-1,155
 380 715 380 715 391 711 c 0,156,157
 436 693 436 693 466 666.5 c 128,-1,158
 496 640 496 640 514 596 c 0,159,160
 519 585 519 585 524 568 c 0,161,162
 525 565 525 565 525 562 c 128,-1,163
 525 559 525 559 526 556 c 0,164,165
 528 551 528 551 529 545 c 128,-1,166
 530 539 530 539 528 534 c 0,167,168
 525 524 525 524 517 521 c 0,169,170
 511 519 511 519 504 519 c 128,-1,171
 497 519 497 519 489 519 c 2,172,-1
 441 519 l 2,173,174
 433 519 433 519 424.5 518.5 c 128,-1,175
 416 518 416 518 409 520 c 0,176,177
 395 524 395 524 391 535 c 128,-1,178
 387 546 387 546 382 559 c 0,179,180
 369 587 369 587 348 601 c 0,181,182
 339 606 339 606 326.5 608 c 128,-1,183
 314 610 314 610 309 597 c 0,184,185
 306 590 306 590 306.5 579 c 128,-1,186
 307 568 307 568 307 558 c 2,187,-1
 307 482 l 2,188,189
 307 471 307 471 307 460.5 c 128,-1,190
 307 450 307 450 312 443 c 0,191,192
 319 432 319 432 333 429.5 c 128,-1,193
 347 427 347 427 361 422 c 0,194,195
 387 414 387 414 411.5 405.5 c 128,-1,196
 436 397 436 397 457 383 c 0,197,198
 485 366 485 366 506.5 343.5 c 128,-1,199
 528 321 528 321 542 289 c 0,200,201
 546 279 546 279 548.5 269 c 128,-1,202
 551 259 551 259 553 248 c 0,203,204
 555 243 555 243 554 238 c 128,-1,205
 553 233 553 233 555 228 c 0,0,1
233 457 m 0,206,207
 247 460 247 460 248 474 c 128,-1,208
 249 488 249 488 249 505 c 2,209,-1
 249 568 l 2,210,211
 249 579 249 579 249 588 c 128,-1,212
 249 597 249 597 244 603 c 0,213,214
 238 610 238 610 225 610 c 0,215,216
 224 609 224 609 222.5 609.5 c 128,-1,217
 221 610 221 610 219 609 c 0,218,219
 211 607 211 607 207 605 c 0,220,221
 191 598 191 598 179 585.5 c 128,-1,222
 167 573 167 573 162 555 c 2,223,-1
 159 540 l 2,224,225
 157 535 157 535 158 527.5 c 128,-1,226
 159 520 159 520 160 516 c 0,227,228
 162 512 162 512 162 509.5 c 128,-1,229
 162 507 162 507 163 504 c 0,230,231
 169 490 169 490 178 482.5 c 128,-1,232
 187 475 187 475 198 468 c 0,233,234
 203 465 203 465 214 460 c 128,-1,235
 225 455 225 455 233 457 c 0,206,207
415 186 m 0,236,237
 417 194 417 194 415.5 204 c 128,-1,238
 414 214 414 214 412 220 c 0,239,240
 405 243 405 243 391.5 254.5 c 128,-1,241
 378 266 378 266 358 275 c 0,242,243
 350 279 350 279 342 281.5 c 128,-1,244
 334 284 334 284 322 284 c 0,245,246
 318 282 318 282 315.5 281 c 128,-1,247
 313 280 313 280 311 276 c 0,248,249
 306 269 306 269 306.5 258 c 128,-1,250
 307 247 307 247 307 237 c 2,251,-1
 307 150 l 2,252,253
 307 134 307 134 308 122 c 128,-1,254
 309 110 309 110 321 105 c 0,255,256
 328 103 328 103 333 104 c 0,257,258
 360 111 360 111 380 126.5 c 128,-1,259
 400 142 400 142 410 166 c 0,260,261
 412 171 412 171 412.5 176 c 128,-1,262
 413 181 413 181 415 186 c 0,236,237
EndSplineSet
EndChar

StartChar: percent
Encoding: 37 37 12
Width: 1000
GlyphClass: 1
Flags: W
LayerCount: 2
Fore
SplineSet
690 612 m 0,0,1
 684 602 684 602 679 592 c 128,-1,2
 674 582 674 582 668 572 c 0,3,4
 643 531 643 531 621.5 488.5 c 128,-1,5
 600 446 600 446 575 405 c 0,6,7
 567 393 567 393 561 380.5 c 128,-1,8
 555 368 555 368 548 356 c 0,9,10
 539 341 539 341 531 325.5 c 128,-1,11
 523 310 523 310 514 295 c 0,12,13
 511 290 511 290 509 286 c 128,-1,14
 507 282 507 282 505 277 c 0,15,16
 495 262 495 262 487 246 c 128,-1,17
 479 230 479 230 470 215 c 0,18,19
 466 210 466 210 464 204.5 c 128,-1,20
 462 199 462 199 459 194 c 0,21,22
 448 175 448 175 437.5 156 c 128,-1,23
 427 137 427 137 416 118 c 0,24,25
 413 113 413 113 410.5 107.5 c 128,-1,26
 408 102 408 102 405 97 c 0,27,28
 394 80 394 80 385 61.5 c 128,-1,29
 376 43 376 43 365 26 c 0,30,31
 358 15 358 15 353 3.5 c 128,-1,32
 348 -8 348 -8 337 -14 c 0,33,34
 333 -17 333 -17 324 -18.5 c 128,-1,35
 315 -20 315 -20 305 -20.5 c 128,-1,36
 295 -21 295 -21 286 -20 c 128,-1,37
 277 -19 277 -19 273 -16 c 0,38,39
 264 -11 264 -11 268 2 c 0,40,41
 270 9 270 9 274 16.5 c 128,-1,42
 278 24 278 24 282 29 c 0,43,44
 297 55 297 55 311 82 c 128,-1,45
 325 109 325 109 341 135 c 0,46,47
 346 142 346 142 349 149 c 128,-1,48
 352 156 352 156 356 164 c 0,49,50
 382 206 382 206 404 248 c 128,-1,51
 426 290 426 290 451 332 c 0,52,53
 459 346 459 346 466 359.5 c 128,-1,54
 473 373 473 373 481 386 c 0,55,56
 484 391 484 391 485.5 395 c 128,-1,57
 487 399 487 399 490 403 c 0,58,59
 498 417 498 417 505.5 430.5 c 128,-1,60
 513 444 513 444 521 458 c 0,61,62
 523 463 523 463 525 466.5 c 128,-1,63
 527 470 527 470 530 475 c 0,64,65
 541 493 541 493 551 512.5 c 128,-1,66
 561 532 561 532 572 550 c 0,67,68
 576 556 576 556 579 562.5 c 128,-1,69
 582 569 582 569 586 576 c 0,70,71
 599 597 599 597 610.5 619.5 c 128,-1,72
 622 642 622 642 635 663 c 0,73,74
 640 672 640 672 645 681 c 128,-1,75
 650 690 650 690 655 698 c 0,76,77
 657 702 657 702 659.5 706 c 128,-1,78
 662 710 662 710 665 712 c 0,79,80
 673 718 673 718 678 720 c 0,81,82
 682 720 682 720 690 722 c 0,83,84
 703 722 703 722 717.5 722 c 128,-1,85
 732 722 732 722 737 714 c 0,86,87
 739 712 739 712 739 707.5 c 128,-1,88
 739 703 739 703 738 700 c 0,89,90
 736 693 736 693 732.5 687 c 128,-1,91
 729 681 729 681 726 675 c 0,92,93
 717 659 717 659 708 643 c 128,-1,94
 699 627 699 627 690 612 c 0,0,1
392 422 m 0,95,96
 379 390 379 390 357 368 c 128,-1,97
 335 346 335 346 302 335 c 0,98,99
 293 332 293 332 284.5 330.5 c 128,-1,100
 276 329 276 329 266 327 c 0,101,102
 261 326 261 326 257 326.5 c 128,-1,103
 253 327 253 327 248 326 c 0,104,105
 244 324 244 324 234.5 324.5 c 128,-1,106
 225 325 225 325 221 326 c 0,107,108
 216 328 216 328 212.5 327.5 c 128,-1,109
 209 327 209 327 204 328 c 0,110,111
 194 330 194 330 185 332 c 128,-1,112
 176 334 176 334 168 338 c 0,113,114
 109 364 109 364 87 428 c 0,115,116
 84 436 84 436 82.5 445 c 128,-1,117
 81 454 81 454 79 462 c 0,118,119
 78 467 78 467 78 477 c 0,120,121
 76 481 76 481 76.5 485.5 c 128,-1,122
 77 490 77 490 76 494 c 2,123,-1
 76 505 l 1,124,125
 72 515 72 515 76 526 c 1,126,-1
 76 534 l 2,127,128
 76 539 76 539 76.5 543.5 c 128,-1,129
 77 548 77 548 77 553 c 0,130,131
 80 566 80 566 82 579 c 128,-1,132
 84 592 84 592 89 604 c 0,133,134
 103 639 103 639 123.5 663.5 c 128,-1,135
 144 688 144 688 179 702 c 0,136,137
 188 706 188 706 197.5 708 c 128,-1,138
 207 710 207 710 218 712 c 0,139,140
 221 713 221 713 227.5 712 c 128,-1,141
 234 711 234 711 236 713 c 0,142,143
 298 714 298 714 334 689.5 c 128,-1,144
 370 665 370 665 389 622 c 0,145,146
 393 614 393 614 395.5 604.5 c 128,-1,147
 398 595 398 595 400 586 c 0,148,149
 401 583 401 583 401 580 c 128,-1,150
 401 577 401 577 402 574 c 0,151,152
 404 568 404 568 404 561.5 c 128,-1,153
 404 555 404 555 406 548 c 0,154,155
 407 545 407 545 406.5 541.5 c 128,-1,156
 406 538 406 538 407 536 c 2,157,-1
 407 525 l 2,158,159
 409 514 409 514 407 504 c 0,160,161
 405 498 405 498 406 492.5 c 128,-1,162
 407 487 407 487 406 482 c 256,163,164
 405 477 405 477 405 473 c 128,-1,165
 405 469 405 469 403 464 c 0,166,167
 401 453 401 453 398.5 442.5 c 128,-1,168
 396 432 396 432 392 422 c 0,95,96
258 402 m 0,169,170
 276 408 276 408 287 423 c 0,171,172
 294 433 294 433 297.5 444.5 c 128,-1,173
 301 456 301 456 304 470 c 0,174,175
 306 475 306 475 305 480.5 c 128,-1,176
 304 486 304 486 306 493 c 0,177,178
 307 497 307 497 307.5 506.5 c 128,-1,179
 308 516 308 516 306 521 c 2,180,-1
 306 544 l 2,181,182
 305 548 305 548 305.5 551.5 c 128,-1,183
 306 555 306 555 305 559 c 0,184,185
 303 566 303 566 302 573 c 128,-1,186
 301 580 301 580 299 586 c 0,187,188
 297 593 297 593 295 599.5 c 128,-1,189
 293 606 293 606 289 612 c 0,190,191
 284 618 284 618 279 623.5 c 128,-1,192
 274 629 274 629 268 633 c 0,193,194
 256 640 256 640 236 638 c 0,195,196
 234 637 234 637 227 637 c 0,197,198
 224 635 224 635 220.5 634 c 128,-1,199
 217 633 217 633 214 631 c 0,200,201
 202 623 202 623 195 611.5 c 128,-1,202
 188 600 188 600 183 586 c 0,203,204
 180 576 180 576 179 566 c 128,-1,205
 178 556 178 556 176 545 c 2,206,-1
 176 526 l 2,207,208
 174 520 174 520 174.5 506.5 c 128,-1,209
 175 493 175 493 176 487 c 0,210,211
 178 481 178 481 177.5 475 c 128,-1,212
 177 469 177 469 178 464 c 0,213,214
 183 447 183 447 188 434 c 128,-1,215
 193 421 193 421 204 412 c 0,216,217
 215 405 215 405 226 401 c 0,218,219
 232 401 232 401 235 400 c 0,220,221
 237 400 237 400 239.5 399.5 c 128,-1,222
 242 399 242 399 244 400 c 0,223,224
 248 401 248 401 251 401 c 128,-1,225
 254 401 254 401 258 402 c 0,169,170
923 192 m 0,226,227
 924 187 924 187 924 180.5 c 128,-1,228
 924 174 924 174 923 169 c 2,229,-1
 923 160 l 2,230,231
 922 156 922 156 922 152 c 128,-1,232
 922 148 922 148 921 144 c 0,233,234
 920 139 920 139 920 134.5 c 128,-1,235
 920 130 920 130 918 125 c 0,236,237
 916 114 916 114 913.5 104 c 128,-1,238
 911 94 911 94 907 85 c 0,239,240
 880 20 880 20 812 -4 c 0,241,242
 805 -6 805 -6 797.5 -7 c 128,-1,243
 790 -8 790 -8 782 -10 c 0,244,245
 777 -11 777 -11 773 -10.5 c 128,-1,246
 769 -10 769 -10 764 -11 c 0,247,248
 760 -13 760 -13 750.5 -12.5 c 128,-1,249
 741 -12 741 -12 738 -10 c 0,250,251
 733 -9 733 -9 729 -9.5 c 128,-1,252
 725 -10 725 -10 721 -9 c 0,253,254
 712 -7 712 -7 703.5 -5 c 128,-1,255
 695 -3 695 -3 687 1 c 0,256,257
 653 15 653 15 633.5 38 c 128,-1,258
 614 61 614 61 603 96 c 0,259,260
 600 104 600 104 598.5 112.5 c 128,-1,261
 597 121 597 121 595 129 c 0,262,263
 595 132 595 132 594.5 134.5 c 128,-1,264
 594 137 594 137 594 140 c 0,265,266
 593 145 593 145 593 150.5 c 128,-1,267
 593 156 593 156 592 161 c 2,268,-1
 592 173 l 2,269,270
 590 181 590 181 592 191 c 2,271,-1
 592 200 l 2,272,273
 592 210 592 210 593 214 c 0,274,275
 594 219 594 219 594 229 c 0,276,277
 597 239 597 239 598.5 249 c 128,-1,278
 600 259 600 259 604 268 c 0,279,280
 619 305 619 305 639 327.5 c 128,-1,281
 659 350 659 350 697 365 c 0,282,283
 705 369 705 369 714.5 370.5 c 128,-1,284
 724 372 724 372 735 374 c 0,285,286
 740 374 740 374 744.5 374.5 c 128,-1,287
 749 375 749 375 754 375 c 0,288,289
 813 377 813 377 849.5 354 c 128,-1,290
 886 331 886 331 904 290 c 0,291,292
 908 282 908 282 910.5 272 c 128,-1,293
 913 262 913 262 916 252 c 0,294,295
 917 249 917 249 917 246 c 128,-1,296
 917 243 917 243 918 240 c 0,297,298
 920 233 920 233 920 225.5 c 128,-1,299
 920 218 920 218 922 210 c 0,300,301
 922 205 922 205 922.5 201 c 128,-1,302
 923 197 923 197 923 192 c 0,226,227
822 172 m 2,303,304
 824 177 824 177 823.5 188 c 128,-1,305
 823 199 823 199 822 204 c 2,306,-1
 822 211 l 2,307,308
 821 216 821 216 821 220 c 128,-1,309
 821 224 821 224 820 228 c 0,310,311
 817 242 817 242 814 254 c 128,-1,312
 811 266 811 266 804 277 c 0,313,314
 800 282 800 282 795 286.5 c 128,-1,315
 790 291 790 291 785 294 c 0,316,317
 778 299 778 299 770.5 300 c 128,-1,318
 763 301 763 301 752 301 c 0,319,320
 750 299 750 299 748 299.5 c 128,-1,321
 746 300 746 300 744 299 c 0,322,323
 736 297 736 297 730 293 c 0,324,325
 718 286 718 286 711 274.5 c 128,-1,326
 704 263 704 263 699 249 c 0,327,328
 696 241 696 241 695 231 c 128,-1,329
 694 221 694 221 692 211 c 2,330,-1
 692 192 l 2,331,332
 690 186 690 186 690.5 173 c 128,-1,333
 691 160 691 160 692 154 c 0,334,335
 694 149 694 149 693 143.5 c 128,-1,336
 692 138 692 138 694 133 c 0,337,338
 699 114 699 114 702.5 101.5 c 128,-1,339
 706 89 706 89 718 77 c 0,340,341
 723 72 723 72 735.5 66 c 128,-1,342
 748 60 748 60 760 62 c 0,343,344
 763 63 763 63 766.5 63 c 128,-1,345
 770 63 770 63 773 64 c 0,346,347
 781 67 781 67 788 71.5 c 128,-1,348
 795 76 795 76 799 82 c 0,349,350
 805 90 805 90 809 99 c 128,-1,351
 813 108 813 108 817 119 c 0,352,353
 820 128 820 128 820 138.5 c 128,-1,354
 820 149 820 149 822 160 c 2,355,-1
 822 172 l 2,303,304
EndSplineSet
EndChar

StartChar: ampersand
Encoding: 38 38 13
Width: 685
GlyphClass: 1
Flags: W
LayerCount: 2
Fore
SplineSet
675 18 m 0,0,1
 677 13 677 13 675.5 9.5 c 128,-1,2
 674 6 674 6 671 4 c 0,3,4
 664 -1 664 -1 652 -0.5 c 128,-1,5
 640 0 640 0 629 0 c 2,6,-1
 568 0 l 2,7,8
 551 0 551 0 538.5 0.5 c 128,-1,9
 526 1 526 1 516 9 c 0,10,11
 512 12 512 12 509 15.5 c 128,-1,12
 506 19 506 19 503 23 c 0,13,14
 501 25 501 25 499.5 27 c 128,-1,15
 498 29 498 29 496 31 c 0,16,17
 492 36 492 36 488 41 c 128,-1,18
 484 46 484 46 479 51 c 0,19,20
 476 54 476 54 471 57.5 c 128,-1,21
 466 61 466 61 458 59 c 256,22,23
 450 57 450 57 445 53 c 128,-1,24
 440 49 440 49 435 45 c 0,25,26
 427 40 427 40 419 34 c 128,-1,27
 411 28 411 28 403 23 c 0,28,29
 389 15 389 15 372.5 8.5 c 128,-1,30
 356 2 356 2 339 -4 c 0,31,32
 332 -6 332 -6 325 -7 c 128,-1,33
 318 -8 318 -8 310 -10 c 0,34,35
 305 -12 305 -12 300 -11.5 c 128,-1,36
 295 -11 295 -11 290 -12 c 2,37,-1
 283 -12 l 2,38,39
 278 -14 278 -14 268.5 -14 c 128,-1,40
 259 -14 259 -14 254 -13 c 0,41,42
 249 -13 249 -13 245 -12.5 c 128,-1,43
 241 -12 241 -12 236 -12 c 0,44,45
 226 -10 226 -10 216 -9 c 128,-1,46
 206 -8 206 -8 197 -6 c 0,47,48
 184 -2 184 -2 173.5 1 c 128,-1,49
 163 4 163 4 152 9 c 0,50,51
 129 19 129 19 108.5 34.5 c 128,-1,52
 88 50 88 50 75 68 c 0,53,54
 70 75 70 75 65.5 82 c 128,-1,55
 61 89 61 89 56 97 c 0,56,57
 52 104 52 104 49.5 111 c 128,-1,58
 47 118 47 118 44 126 c 0,59,60
 39 140 39 140 36 155.5 c 128,-1,61
 33 171 33 171 33 189 c 2,62,-1
 33 212 l 2,63,64
 34 215 34 215 34 218.5 c 128,-1,65
 34 222 34 222 35 225 c 0,66,67
 37 233 37 233 38 240 c 128,-1,68
 39 247 39 247 41 254 c 0,69,70
 52 288 52 288 73.5 315 c 128,-1,71
 95 342 95 342 121 362 c 0,72,73
 138 374 138 374 158 387 c 0,74,75
 164 391 164 391 170.5 394.5 c 128,-1,76
 177 398 177 398 180 406 c 0,77,78
 183 416 183 416 176 426 c 128,-1,79
 169 436 169 436 165 441 c 0,80,81
 147 467 147 467 136 495 c 0,82,83
 133 502 133 502 131.5 509 c 128,-1,84
 130 516 130 516 128 524 c 0,85,86
 123 541 123 541 124.5 563 c 128,-1,87
 126 585 126 585 131 599 c 0,88,89
 145 641 145 641 171 665.5 c 128,-1,90
 197 690 197 690 236 707 c 0,91,92
 247 711 247 711 258 713 c 128,-1,93
 269 715 269 715 281 718 c 0,94,95
 287 718 287 718 293 718.5 c 128,-1,96
 299 719 299 719 305 720 c 0,97,98
 368 721 368 721 413 698.5 c 128,-1,99
 458 676 458 676 482 638 c 0,100,101
 485 632 485 632 487.5 626 c 128,-1,102
 490 620 490 620 493 614 c 0,103,104
 501 594 501 594 504.5 564.5 c 128,-1,105
 508 535 508 535 500 510 c 0,106,107
 496 497 496 497 491.5 485 c 128,-1,108
 487 473 487 473 481 462 c 0,109,110
 470 446 470 446 456 430.5 c 128,-1,111
 442 415 442 415 427 404 c 0,112,113
 422 399 422 399 416 395.5 c 128,-1,114
 410 392 410 392 405 388 c 0,115,116
 402 386 402 386 399 383.5 c 128,-1,117
 396 381 396 381 394 378 c 0,118,119
 389 372 389 372 390 364.5 c 128,-1,120
 391 357 391 357 395 352 c 0,121,122
 398 347 398 347 402 343 c 128,-1,123
 406 339 406 339 409 334 c 0,124,125
 419 320 419 320 429 308.5 c 128,-1,126
 439 297 439 297 449 284 c 0,127,128
 452 279 452 279 459.5 275 c 128,-1,129
 467 271 467 271 474 276 c 0,130,131
 480 280 480 280 483.5 287 c 128,-1,132
 487 294 487 294 489 302.5 c 128,-1,133
 491 311 491 311 493 319 c 128,-1,134
 495 327 495 327 500 333 c 0,135,136
 508 343 508 343 527 343 c 128,-1,137
 546 343 546 343 563 343 c 0,138,139
 569 343 569 343 576 343.5 c 128,-1,140
 583 344 583 344 588 342 c 2,141,-1
 594 342 l 2,142,143
 607 340 607 340 612 333 c 0,144,145
 617 325 617 325 613.5 310 c 128,-1,146
 610 295 610 295 608 287 c 0,147,148
 606 280 606 280 604.5 274 c 128,-1,149
 603 268 603 268 601 263 c 0,150,151
 594 246 594 246 587.5 230.5 c 128,-1,152
 581 215 581 215 573 201 c 0,153,154
 570 196 570 196 563 185 c 128,-1,155
 556 174 556 174 558 165 c 0,156,157
 562 151 562 151 571 142.5 c 128,-1,158
 580 134 580 134 588 124 c 0,159,160
 600 107 600 107 614 93 c 128,-1,161
 628 79 628 79 640 62 c 0,162,163
 643 57 643 57 647 54 c 128,-1,164
 651 51 651 51 654 46 c 0,165,166
 659 39 659 39 665 32.5 c 128,-1,167
 671 26 671 26 675 18 c 0,0,1
367 143 m 0,168,169
 372 147 372 147 377.5 154 c 128,-1,170
 383 161 383 161 380 171 c 0,171,172
 378 179 378 179 372.5 185.5 c 128,-1,173
 367 192 367 192 362 198 c 0,174,175
 354 209 354 209 346 218 c 128,-1,176
 338 227 338 227 330 238 c 0,177,178
 328 240 328 240 326.5 241.5 c 128,-1,179
 325 243 325 243 323 245 c 0,180,181
 316 254 316 254 309 262.5 c 128,-1,182
 302 271 302 271 295 280 c 256,183,184
 288 289 288 289 280 298 c 128,-1,185
 272 307 272 307 255 307 c 0,186,187
 253 306 253 306 247 304 c 0,188,189
 242 302 242 302 238.5 300 c 128,-1,190
 235 298 235 298 231 296 c 0,191,192
 211 284 211 284 195 266.5 c 128,-1,193
 179 249 179 249 171 226 c 0,194,195
 170 222 170 222 169.5 218 c 128,-1,196
 169 214 169 214 168 209 c 0,197,198
 166 199 166 199 168 187.5 c 128,-1,199
 170 176 170 176 172 169 c 0,200,201
 189 122 189 122 242 105 c 0,202,203
 252 102 252 102 268 101.5 c 128,-1,204
 284 101 284 101 295 104 c 0,205,206
 318 110 318 110 334.5 119.5 c 128,-1,207
 351 129 351 129 367 143 c 0,168,169
381 546 m 0,208,209
 383 553 383 553 382 561 c 128,-1,210
 381 569 381 569 379 574 c 0,211,212
 368 612 368 612 335 622 c 0,213,214
 326 625 326 625 313 625 c 0,215,216
 311 624 311 624 308.5 624.5 c 128,-1,217
 306 625 306 625 304 624 c 0,218,219
 296 622 296 622 291 620 c 0,220,221
 266 610 266 610 255 580 c 0,222,223
 253 572 253 572 253 562 c 128,-1,224
 253 552 253 552 255 544 c 0,225,226
 257 539 257 539 257.5 534.5 c 128,-1,227
 258 530 258 530 260 525 c 0,228,229
 265 513 265 513 271.5 503.5 c 128,-1,230
 278 494 278 494 285 484 c 0,231,232
 289 479 289 479 297.5 470.5 c 128,-1,233
 306 462 306 462 315 464 c 0,234,235
 325 466 325 466 330.5 470.5 c 128,-1,236
 336 475 336 475 343 480 c 0,237,238
 368 498 368 498 378 531 c 0,239,240
 380 535 380 535 379.5 538.5 c 128,-1,241
 379 542 379 542 381 546 c 0,208,209
EndSplineSet
EndChar

StartChar: quotesingle
Encoding: 39 39 14
Width: 278
GlyphClass: 1
Flags: W
LayerCount: 2
Fore
SplineSet
187 705 m 0,0,1
 193 696 193 696 192.5 679.5 c 128,-1,2
 192 663 192 663 192 649 c 2,3,-1
 192 441 l 2,4,5
 192 430 192 430 192 420 c 128,-1,6
 192 410 192 410 188 404 c 0,7,8
 184 397 184 397 173 395 c 0,9,10
 168 393 168 393 162 393.5 c 128,-1,11
 156 394 156 394 150 394 c 0,12,13
 135 394 135 394 117 393.5 c 128,-1,14
 99 393 99 393 93 402 c 0,15,16
 88 407 88 407 87.5 415.5 c 128,-1,17
 87 424 87 424 87 434 c 2,18,-1
 87 639 l 2,19,20
 87 653 87 653 86.5 673.5 c 128,-1,21
 86 694 86 694 91 703 c 0,22,23
 95 708 95 708 104 712 c 0,24,25
 106 712 106 712 108.5 712.5 c 128,-1,26
 111 713 111 713 114 713 c 0,27,28
 122 713 122 713 133.5 713.5 c 128,-1,29
 145 714 145 714 155.5 713.5 c 128,-1,30
 166 713 166 713 175 711 c 128,-1,31
 184 709 184 709 187 705 c 0,0,1
EndSplineSet
EndChar

StartChar: parenleft
Encoding: 40 40 15
Width: 296
GlyphClass: 1
Flags: W
LayerCount: 2
Fore
SplineSet
54 250 m 1,0,1
 52 255 52 255 52.5 260.5 c 128,-1,2
 53 266 53 266 53 271 c 256,3,4
 53 276 53 276 52.5 281 c 128,-1,5
 52 286 52 286 54 291 c 2,6,-1
 54 301 l 2,7,8
 54 306 54 306 54 312 c 128,-1,9
 54 318 54 318 55 323 c 0,10,11
 55 328 55 328 55.5 333 c 128,-1,12
 56 338 56 338 56 343 c 2,13,-1
 62 397 l 2,14,15
 64 408 64 408 65.5 417.5 c 128,-1,16
 67 427 67 427 69 438 c 0,17,18
 71 447 71 447 73 457 c 128,-1,19
 75 467 75 467 77 477 c 0,20,21
 84 500 84 500 89.5 523.5 c 128,-1,22
 95 547 95 547 104 568 c 0,23,24
 107 576 107 576 109 583 c 128,-1,25
 111 590 111 590 115 598 c 0,26,27
 123 619 123 619 132.5 639.5 c 128,-1,28
 142 660 142 660 153 679 c 0,29,30
 161 691 161 691 168 704.5 c 128,-1,31
 175 718 175 718 188 726 c 0,32,33
 192 728 192 728 196.5 728.5 c 128,-1,34
 201 729 201 729 206 730 c 2,35,-1
 228 730 l 2,36,37
 236 730 236 730 246 730.5 c 128,-1,38
 256 731 256 731 265 730.5 c 128,-1,39
 274 730 274 730 280.5 727 c 128,-1,40
 287 724 287 724 289 718 c 256,41,42
 291 712 291 712 288.5 706 c 128,-1,43
 286 700 286 700 284 696 c 0,44,45
 279 685 279 685 274 673.5 c 128,-1,46
 269 662 269 662 264 651 c 0,47,48
 253 623 253 623 244.5 594 c 128,-1,49
 236 565 236 565 226 536 c 0,50,51
 221 521 221 521 218.5 504.5 c 128,-1,52
 216 488 216 488 212 473 c 0,53,54
 207 456 207 456 206 439.5 c 128,-1,55
 205 423 205 423 201 406 c 0,56,57
 200 401 200 401 200 395.5 c 128,-1,58
 200 390 200 390 199 384 c 0,59,60
 197 373 197 373 197 360 c 128,-1,61
 197 347 197 347 195 336 c 0,62,63
 193 330 193 330 194 323.5 c 128,-1,64
 195 317 195 317 194 312 c 2,65,-1
 194 289 l 2,66,67
 192 279 192 279 194 270 c 0,68,69
 194 264 194 264 193.5 258 c 128,-1,70
 193 252 193 252 194 247 c 2,71,-1
 194 234 l 2,72,73
 196 228 196 228 195 220.5 c 128,-1,74
 194 213 194 213 196 207 c 0,75,76
 196 203 196 203 196.5 200 c 128,-1,77
 197 197 197 197 197 193 c 0,78,79
 199 184 199 184 199 174 c 128,-1,80
 199 164 199 164 201 154 c 0,81,82
 203 143 203 143 203.5 133 c 128,-1,83
 204 123 204 123 206 112 c 0,84,85
 208 105 208 105 208.5 98 c 128,-1,86
 209 91 209 91 211 84 c 0,87,88
 214 71 214 71 216.5 58 c 128,-1,89
 219 45 219 45 223 33 c 0,90,91
 228 13 228 13 232.5 -5 c 128,-1,92
 237 -23 237 -23 243 -41 c 0,93,94
 245 -47 245 -47 246.5 -52.5 c 128,-1,95
 248 -58 248 -58 250 -64 c 0,96,97
 258 -81 258 -81 264 -99 c 128,-1,98
 270 -117 270 -117 278 -134 c 0,99,100
 281 -140 281 -140 286 -151 c 128,-1,101
 291 -162 291 -162 288 -170 c 0,102,103
 285 -177 285 -177 274 -179 c 0,104,105
 272 -180 272 -180 270 -179.5 c 128,-1,106
 268 -179 268 -179 266 -180 c 2,107,-1
 226 -180 l 2,108,109
 216 -180 216 -180 207 -180 c 128,-1,110
 198 -180 198 -180 190 -177 c 0,111,112
 179 -172 179 -172 173.5 -161 c 128,-1,113
 168 -150 168 -150 162 -140 c 0,114,115
 148 -117 148 -117 137 -91.5 c 128,-1,116
 126 -66 126 -66 115 -40 c 0,117,118
 107 -23 107 -23 101 -5.5 c 128,-1,119
 95 12 95 12 90 29 c 0,120,121
 86 39 86 39 84 49 c 128,-1,122
 82 59 82 59 79 69 c 2,123,-1
 67 120 l 2,124,125
 63 135 63 135 62 150.5 c 128,-1,126
 61 166 61 166 58 180 c 0,127,128
 57 185 57 185 57 189.5 c 128,-1,129
 57 194 57 194 56 199 c 0,130,131
 55 208 55 208 54.5 217 c 128,-1,132
 54 226 54 226 54 235 c 2,133,-1
 54 250 l 1,134,-1
 54 250 l 1,0,1
EndSplineSet
EndChar

StartChar: parenright
Encoding: 41 41 16
Width: 296
GlyphClass: 1
Flags: W
LayerCount: 2
Fore
SplineSet
242 300 m 1,0,1
 244 295 244 295 243.5 289.5 c 128,-1,2
 243 284 243 284 243 279 c 256,3,4
 243 274 243 274 243.5 269 c 128,-1,5
 244 264 244 264 242 259 c 2,6,-1
 242 249 l 2,7,8
 242 244 242 244 242 238 c 128,-1,9
 242 232 242 232 241 227 c 0,10,11
 241 222 241 222 240.5 217 c 128,-1,12
 240 212 240 212 240 207 c 2,13,-1
 234 153 l 2,14,15
 232 142 232 142 230.5 132.5 c 128,-1,16
 229 123 229 123 227 112 c 0,17,18
 225 103 225 103 223 93 c 128,-1,19
 221 83 221 83 219 73 c 0,20,21
 212 50 212 50 206.5 26.5 c 128,-1,22
 201 3 201 3 192 -18 c 0,23,24
 189 -26 189 -26 187 -33 c 128,-1,25
 185 -40 185 -40 181 -48 c 0,26,27
 173 -69 173 -69 163.5 -89.5 c 128,-1,28
 154 -110 154 -110 143 -129 c 0,29,30
 135 -141 135 -141 128 -154.5 c 128,-1,31
 121 -168 121 -168 108 -176 c 0,32,33
 104 -178 104 -178 99.5 -178.5 c 128,-1,34
 95 -179 95 -179 90 -180 c 2,35,-1
 68 -180 l 2,36,37
 60 -180 60 -180 50 -180.5 c 128,-1,38
 40 -181 40 -181 31 -180.5 c 128,-1,39
 22 -180 22 -180 15 -177 c 128,-1,40
 8 -174 8 -174 7 -168 c 0,41,42
 5 -162 5 -162 7.5 -156 c 128,-1,43
 10 -150 10 -150 12 -146 c 0,44,45
 17 -135 17 -135 22 -123.5 c 128,-1,46
 27 -112 27 -112 32 -101 c 0,47,48
 43 -73 43 -73 51.5 -44 c 128,-1,49
 60 -15 60 -15 70 14 c 0,50,51
 75 29 75 29 77.5 45.5 c 128,-1,52
 80 62 80 62 84 77 c 0,53,54
 89 94 89 94 90 110.5 c 128,-1,55
 91 127 91 127 95 144 c 0,56,57
 96 149 96 149 96 154.5 c 128,-1,58
 96 160 96 160 97 166 c 0,59,60
 99 177 99 177 99 190 c 128,-1,61
 99 203 99 203 101 214 c 0,62,63
 103 220 103 220 102 226.5 c 128,-1,64
 101 233 101 233 102 238 c 2,65,-1
 102 261 l 2,66,67
 104 270 104 270 102 280 c 0,68,69
 102 286 102 286 102.5 292 c 128,-1,70
 103 298 103 298 102 303 c 2,71,-1
 102 316 l 2,72,73
 100 322 100 322 101 329.5 c 128,-1,74
 102 337 102 337 100 343 c 0,75,76
 100 347 100 347 99.5 350 c 128,-1,77
 99 353 99 353 99 357 c 0,78,79
 97 366 97 366 97 376 c 128,-1,80
 97 386 97 386 95 396 c 0,81,82
 93 407 93 407 92.5 417 c 128,-1,83
 92 427 92 427 90 438 c 0,84,85
 88 445 88 445 87.5 452 c 128,-1,86
 87 459 87 459 85 466 c 0,87,88
 82 479 82 479 79.5 492 c 128,-1,89
 77 505 77 505 73 517 c 0,90,91
 68 537 68 537 63.5 555 c 128,-1,92
 59 573 59 573 53 591 c 0,93,94
 51 597 51 597 49.5 602.5 c 128,-1,95
 48 608 48 608 46 614 c 0,96,97
 38 631 38 631 32 649 c 128,-1,98
 26 667 26 667 18 684 c 0,99,100
 15 690 15 690 10 701 c 128,-1,101
 5 712 5 712 8 720 c 0,102,103
 11 727 11 727 22 729 c 0,104,105
 24 730 24 730 26 729.5 c 128,-1,106
 28 729 28 729 30 730 c 2,107,-1
 70 730 l 2,108,109
 80 730 80 730 89 730 c 128,-1,110
 98 730 98 730 106 727 c 0,111,112
 117 722 117 722 122.5 711 c 128,-1,113
 128 700 128 700 134 690 c 0,114,115
 148 667 148 667 159 641.5 c 128,-1,116
 170 616 170 616 181 590 c 0,117,118
 189 573 189 573 195 555.5 c 128,-1,119
 201 538 201 538 206 521 c 0,120,121
 210 511 210 511 212 501 c 128,-1,122
 214 491 214 491 217 481 c 2,123,-1
 229 430 l 2,124,125
 233 415 233 415 234 399.5 c 128,-1,126
 235 384 235 384 238 370 c 0,127,128
 239 365 239 365 239 360.5 c 128,-1,129
 239 356 239 356 240 351 c 0,130,131
 241 342 241 342 241.5 333 c 128,-1,132
 242 324 242 324 242 315 c 2,133,-1
 242 300 l 1,134,-1
 242 300 l 1,0,1
EndSplineSet
EndChar

StartChar: asterisk
Encoding: 42 42 17
Width: 407
GlyphClass: 1
Flags: W
LayerCount: 2
Fore
SplineSet
101 531 m 0,0,1
 89 535 89 535 76.5 538.5 c 128,-1,2
 64 542 64 542 53 547 c 0,3,4
 43 552 43 552 35 558 c 128,-1,5
 27 564 27 564 32 579 c 0,6,7
 33 584 33 584 34.5 588 c 128,-1,8
 36 592 36 592 38 597 c 0,9,10
 40 603 40 603 42 609 c 128,-1,11
 44 615 44 615 49 619 c 0,12,13
 60 628 60 628 74 623 c 256,14,15
 88 618 88 618 100.5 613 c 128,-1,16
 113 608 113 608 126 603 c 0,17,18
 133 600 133 600 143 598.5 c 128,-1,19
 153 597 153 597 158 604 c 0,20,21
 164 612 164 612 163.5 631.5 c 128,-1,22
 163 651 163 651 163 665 c 0,23,24
 163 669 163 669 163 673.5 c 128,-1,25
 163 678 163 678 164 681 c 0,26,27
 165 685 165 685 164 688.5 c 128,-1,28
 163 692 163 692 165 696 c 0,29,30
 168 708 168 708 179 712 c 0,31,32
 181 712 181 712 183.5 712.5 c 128,-1,33
 186 713 186 713 189 713 c 0,34,35
 205 714 205 714 219.5 713 c 128,-1,36
 234 712 234 712 239 701 c 0,37,38
 241 696 241 696 241 689 c 128,-1,39
 241 682 241 682 241 674 c 0,40,41
 241 663 241 663 241.5 653 c 128,-1,42
 242 643 242 643 242 633 c 256,43,44
 242 623 242 623 243 614.5 c 128,-1,45
 244 606 244 606 249 602 c 0,46,47
 254 599 254 599 260.5 598.5 c 128,-1,48
 267 598 267 598 273 600 c 0,49,50
 287 605 287 605 300.5 610.5 c 128,-1,51
 314 616 314 616 328 621 c 0,52,53
 336 624 336 624 345.5 624 c 128,-1,54
 355 624 355 624 360 618 c 0,55,56
 364 613 364 613 366.5 607.5 c 128,-1,57
 369 602 369 602 371 596 c 0,58,59
 373 591 373 591 374 586.5 c 128,-1,60
 375 582 375 582 377 577 c 0,61,62
 380 563 380 563 372 557.5 c 128,-1,63
 364 552 364 552 356 548 c 0,64,65
 343 543 343 543 329 538.5 c 128,-1,66
 315 534 315 534 302 529 c 0,67,68
 295 526 295 526 288.5 523.5 c 128,-1,69
 282 521 282 521 280 513 c 0,70,71
 277 504 277 504 283.5 495.5 c 128,-1,72
 290 487 290 487 294 482 c 0,73,74
 302 471 302 471 309 461 c 128,-1,75
 316 451 316 451 324 440 c 0,76,77
 326 437 326 437 329 432 c 128,-1,78
 332 427 332 427 330 420 c 0,79,80
 328 411 328 411 321 405.5 c 128,-1,81
 314 400 314 400 307 395 c 0,82,83
 302 392 302 392 297.5 388 c 128,-1,84
 293 384 293 384 287 382 c 0,85,86
 275 378 275 378 268 385.5 c 128,-1,87
 261 393 261 393 256 399 c 0,88,89
 249 409 249 409 242 418.5 c 128,-1,90
 235 428 235 428 227 438 c 0,91,92
 223 444 223 444 218 451 c 128,-1,93
 213 458 213 458 204 460 c 0,94,95
 196 462 196 462 190 455 c 128,-1,96
 184 448 184 448 181 444 c 2,97,-1
 154 405 l 2,98,99
 150 400 150 400 147.5 395 c 128,-1,100
 145 390 145 390 140 387 c 0,101,102
 136 384 136 384 130 382.5 c 128,-1,103
 124 381 124 381 118 383 c 256,104,105
 112 385 112 385 107 389 c 128,-1,106
 102 393 102 393 97 397 c 256,107,108
 92 401 92 401 86 405.5 c 128,-1,109
 80 410 80 410 77 417 c 0,110,111
 75 422 75 422 76.5 428 c 128,-1,112
 78 434 78 434 80 437 c 0,113,114
 87 449 87 449 95.5 460 c 128,-1,115
 104 471 104 471 112 482 c 0,116,117
 116 487 116 487 122.5 496 c 128,-1,118
 129 505 129 505 126 514 c 0,119,120
 123 522 123 522 116 525 c 128,-1,121
 109 528 109 528 101 531 c 0,0,1
EndSplineSet
EndChar

StartChar: plus
Encoding: 43 43 18
Width: 600
GlyphClass: 1
Flags: W
LayerCount: 2
Fore
SplineSet
552 249 m 0,0,1
 552 240 552 240 552.5 230 c 128,-1,2
 553 220 553 220 550 214 c 0,3,4
 545 202 545 202 531.5 200.5 c 128,-1,5
 518 199 518 199 501 199 c 2,6,-1
 402 199 l 2,7,8
 388 199 388 199 376.5 198 c 128,-1,9
 365 197 365 197 359 189 c 0,10,11
 354 182 354 182 354 169.5 c 128,-1,12
 354 157 354 157 354 145 c 2,13,-1
 354 52 l 2,14,15
 354 41 354 41 354 29 c 128,-1,16
 354 17 354 17 349 10 c 0,17,18
 346 6 346 6 341.5 4.5 c 128,-1,19
 337 3 337 3 332 1 c 0,20,21
 324 -1 324 -1 316 -0.5 c 128,-1,22
 308 0 308 0 300 0 c 0,23,24
 286 0 286 0 272.5 1 c 128,-1,25
 259 2 259 2 253 10 c 0,26,27
 248 17 248 17 248 30 c 128,-1,28
 248 43 248 43 248 55 c 2,29,-1
 248 146 l 2,30,31
 248 159 248 159 247.5 171 c 128,-1,32
 247 183 247 183 242 191 c 0,33,34
 236 199 236 199 223 199 c 128,-1,35
 210 199 210 199 196 199 c 2,36,-1
 96 199 l 2,37,38
 84 199 84 199 72 200 c 128,-1,39
 60 201 60 201 55 208 c 256,40,41
 50 215 50 215 49.5 225.5 c 128,-1,42
 49 236 49 236 49 247 c 0,43,44
 49 264 49 264 49.5 280.5 c 128,-1,45
 50 297 50 297 63 302 c 0,46,47
 71 305 71 305 83.5 305 c 128,-1,48
 96 305 96 305 107 305 c 2,49,-1
 193 305 l 2,50,51
 210 305 210 305 224.5 306 c 128,-1,52
 239 307 239 307 245 318 c 0,53,54
 249 326 249 326 248.5 338 c 128,-1,55
 248 350 248 350 248 361 c 2,56,-1
 248 447 l 2,57,58
 248 458 248 458 247.5 470 c 128,-1,59
 247 482 247 482 251 490 c 0,60,61
 254 498 254 498 265 502 c 0,62,63
 268 503 268 503 274 503 c 0,64,65
 283 503 283 503 294.5 504 c 128,-1,66
 306 505 306 505 317 504.5 c 128,-1,67
 328 504 328 504 337 501.5 c 128,-1,68
 346 499 346 499 349 494 c 0,69,70
 354 486 354 486 354 473.5 c 128,-1,71
 354 461 354 461 354 449 c 2,72,-1
 354 358 l 2,73,74
 354 344 354 344 354.5 332.5 c 128,-1,75
 355 321 355 321 360 313 c 0,76,77
 367 305 367 305 384 305 c 128,-1,78
 401 305 401 305 415 305 c 2,79,-1
 503 305 l 2,80,81
 514 305 514 305 525.5 304.5 c 128,-1,82
 537 304 537 304 543 299 c 0,83,84
 552 293 552 293 552 278 c 128,-1,85
 552 263 552 263 552 249 c 0,0,1
EndSplineSet
EndChar

StartChar: comma
Encoding: 44 44 19
Width: 278
GlyphClass: 1
Flags: W
LayerCount: 2
Fore
SplineSet
216 42 m 1,0,1
 216 25 216 25 216.5 4 c 128,-1,2
 217 -17 217 -17 213 -31 c 0,3,4
 204 -68 204 -68 187 -92.5 c 128,-1,5
 170 -117 170 -117 141 -134 c 0,6,7
 122 -147 122 -147 100 -154 c 0,8,9
 96 -156 96 -156 90 -158 c 128,-1,10
 84 -160 84 -160 79 -159 c 0,11,12
 71 -157 71 -157 67 -153 c 0,13,14
 62 -147 62 -147 61.5 -130.5 c 128,-1,15
 61 -114 61 -114 65 -105 c 0,16,17
 69 -95 69 -95 77.5 -90 c 128,-1,18
 86 -85 86 -85 94 -79 c 0,19,20
 110 -68 110 -68 122 -45 c 0,21,22
 124 -41 124 -41 127.5 -33 c 128,-1,23
 131 -25 131 -25 129 -18 c 0,24,25
 126 -4 126 -4 112 -1 c 0,26,27
 101 2 101 2 89.5 1 c 128,-1,28
 78 0 78 0 70 5 c 0,29,30
 64 10 64 10 62.5 20 c 128,-1,31
 61 30 61 30 61 41 c 2,32,-1
 61 107 l 2,33,34
 61 116 61 116 61 125.5 c 128,-1,35
 61 135 61 135 65 141 c 0,36,37
 70 149 70 149 81 152 c 0,38,39
 83 152 83 152 86 151.5 c 128,-1,40
 89 151 89 151 91 153 c 2,41,-1
 173 153 l 2,42,43
 185 153 185 153 195.5 152 c 128,-1,44
 206 151 206 151 211 143 c 0,45,46
 216 137 216 137 216 128 c 128,-1,47
 216 119 216 119 216 109 c 2,48,-1
 216 42 l 1,49,-1
 216 42 l 1,0,1
EndSplineSet
EndChar

StartChar: hyphen
Encoding: 45 45 20
Width: 407
GlyphClass: 1
Flags: W
LayerCount: 2
Fore
SplineSet
344 329 m 0,0,1
 349 325 349 325 351 316.5 c 128,-1,2
 353 308 353 308 353.5 297.5 c 128,-1,3
 354 287 354 287 353.5 276 c 128,-1,4
 353 265 353 265 353 256 c 0,5,6
 353 248 353 248 353 240.5 c 128,-1,7
 353 233 353 233 351 227 c 0,8,9
 346 216 346 216 335 214.5 c 128,-1,10
 324 213 324 213 309 213 c 2,11,-1
 122 213 l 2,12,13
 109 213 109 213 91 212.5 c 128,-1,14
 73 212 73 212 65 217 c 0,15,16
 59 221 59 221 56.5 229.5 c 128,-1,17
 54 238 54 238 53.5 248.5 c 128,-1,18
 53 259 53 259 53.5 270.5 c 128,-1,19
 54 282 54 282 54 291 c 256,20,21
 54 300 54 300 54.5 309 c 128,-1,22
 55 318 55 318 58 323 c 0,23,24
 62 328 62 328 71 332 c 0,25,26
 73 332 73 332 75.5 332.5 c 128,-1,27
 78 333 78 333 80 333 c 2,28,-1
 315 333 l 2,29,30
 324 333 324 333 331.5 332.5 c 128,-1,31
 339 332 339 332 344 329 c 0,0,1
EndSplineSet
EndChar

StartChar: period
Encoding: 46 46 21
Width: 278
GlyphClass: 1
Flags: W
LayerCount: 2
Fore
SplineSet
61 108 m 2,0,1
 61 117 61 117 61 127 c 128,-1,2
 61 137 61 137 65 142 c 0,3,4
 69 149 69 149 80 153 c 0,5,6
 82 153 82 153 84.5 152.5 c 128,-1,7
 87 152 87 152 89 153 c 2,8,-1
 168 153 l 2,9,10
 180 153 180 153 190.5 153 c 128,-1,11
 201 153 201 153 208 148 c 0,12,13
 214 143 214 143 215 134 c 128,-1,14
 216 125 216 125 216 114 c 2,15,-1
 216 42 l 2,16,17
 216 31 216 31 215 21.5 c 128,-1,18
 214 12 214 12 209 8 c 0,19,20
 202 3 202 3 192 2 c 128,-1,21
 182 1 182 1 171 1 c 2,22,-1
 104 1 l 2,23,24
 93 1 93 1 83 2 c 128,-1,25
 73 3 73 3 68 9 c 256,26,27
 63 15 63 15 62 24.5 c 128,-1,28
 61 34 61 34 61 45 c 2,29,-1
 61 108 l 2,0,1
EndSplineSet
EndChar

StartChar: slash
Encoding: 47 47 22
Width: 371
GlyphClass: 1
Flags: W
LayerCount: 2
Fore
SplineSet
293 729 m 2,0,-1
 329 729 l 2,1,2
 334 729 334 729 339.5 729.5 c 128,-1,3
 345 730 345 730 350 729 c 2,4,-1
 354 729 l 2,5,6
 360 727 360 727 364.5 725 c 128,-1,7
 369 723 369 723 371 718 c 0,8,9
 373 714 373 714 372 709.5 c 128,-1,10
 371 705 371 705 370 701 c 0,11,12
 368 694 368 694 365.5 687.5 c 128,-1,13
 363 681 363 681 360 674 c 0,14,15
 358 668 358 668 356 662.5 c 128,-1,16
 354 657 354 657 352 651 c 0,17,18
 343 628 343 628 335 605.5 c 128,-1,19
 327 583 327 583 317 560 c 0,20,21
 309 539 309 539 302 518 c 128,-1,22
 295 497 295 497 286 476 c 0,23,24
 284 472 284 472 283.5 468.5 c 128,-1,25
 283 465 283 465 281 461 c 0,26,27
 273 442 273 442 267 423.5 c 128,-1,28
 261 405 261 405 253 386 c 0,29,30
 245 368 245 368 239 348.5 c 128,-1,31
 233 329 233 329 225 310 c 0,32,33
 205 262 205 262 188 213 c 128,-1,34
 171 164 171 164 151 116 c 0,35,36
 142 94 142 94 134.5 72 c 128,-1,37
 127 50 127 50 119 28 c 0,38,39
 114 17 114 17 110.5 6 c 128,-1,40
 107 -5 107 -5 97 -11 c 0,41,42
 89 -16 89 -16 74 -16 c 128,-1,43
 59 -16 59 -16 45 -16 c 0,44,45
 36 -16 36 -16 26.5 -16 c 128,-1,46
 17 -16 17 -16 10 -13 c 0,47,48
 4 -10 4 -10 2 -4.5 c 128,-1,49
 0 1 0 1 1 7.5 c 128,-1,50
 2 14 2 14 4.5 20.5 c 128,-1,51
 7 27 7 27 9 32 c 0,52,53
 20 58 20 58 29 85.5 c 128,-1,54
 38 113 38 113 49 139 c 0,55,56
 52 145 52 145 53.5 151.5 c 128,-1,57
 55 158 55 158 58 164 c 0,58,59
 65 181 65 181 70.5 198.5 c 128,-1,60
 76 216 76 216 84 234 c 0,61,62
 89 247 89 247 93.5 260 c 128,-1,63
 98 273 98 273 103 286 c 0,64,65
 123 335 123 335 140 385 c 128,-1,66
 157 435 157 435 177 483 c 0,67,68
 180 490 180 490 181.5 496 c 128,-1,69
 183 502 183 502 186 508 c 0,70,71
 192 523 192 523 197.5 539 c 128,-1,72
 203 555 203 555 209 570 c 0,73,74
 212 577 212 577 214.5 584 c 128,-1,75
 217 591 217 591 220 598 c 0,76,77
 228 618 228 618 234.5 637.5 c 128,-1,78
 241 657 241 657 249 677 c 0,79,80
 254 688 254 688 258.5 702 c 128,-1,81
 263 716 263 716 272 723 c 0,82,83
 275 726 275 726 285 728 c 0,84,85
 287 729 287 729 289 728.5 c 128,-1,86
 291 728 291 728 293 729 c 2,0,-1
EndSplineSet
EndChar

StartChar: zero
Encoding: 48 48 23
Width: 556
GlyphClass: 1
Flags: W
LayerCount: 2
Fore
SplineSet
533 377 m 2,0,1
 534 371 534 371 533.5 364 c 128,-1,2
 533 357 533 357 533 350 c 0,3,4
 533 345 533 345 533.5 340 c 128,-1,5
 534 335 534 335 533 330 c 2,6,-1
 533 315 l 1,7,-1
 530 279 l 2,8,9
 529 271 529 271 528.5 262.5 c 128,-1,10
 528 254 528 254 527 245 c 0,11,12
 522 227 522 227 519.5 208.5 c 128,-1,13
 517 190 517 190 511 173 c 0,14,15
 491 111 491 111 459.5 69.5 c 128,-1,16
 428 28 428 28 369 4 c 0,17,18
 356 -1 356 -1 341.5 -3 c 128,-1,19
 327 -5 327 -5 312 -9 c 0,20,21
 305 -10 305 -10 299 -10 c 128,-1,22
 293 -10 293 -10 286 -11 c 0,23,24
 283 -12 283 -12 276 -11.5 c 128,-1,25
 269 -11 269 -11 266 -10 c 2,26,-1
 256 -10 l 2,27,28
 254 -10 254 -10 250.5 -10 c 128,-1,29
 247 -10 247 -10 245 -9 c 0,30,31
 237 -7 237 -7 229 -6.5 c 128,-1,32
 221 -6 221 -6 213 -4 c 0,33,34
 194 1 194 1 178 7.5 c 128,-1,35
 162 14 162 14 148 23 c 0,36,37
 111 46 111 46 89 77 c 128,-1,38
 67 108 67 108 50 150 c 0,39,40
 45 164 45 164 42 179 c 128,-1,41
 39 194 39 194 34 209 c 0,42,43
 31 220 31 220 30 232 c 128,-1,44
 29 244 29 244 26 256 c 0,45,46
 25 261 25 261 25.5 265 c 128,-1,47
 26 269 26 269 24 273 c 0,48,49
 24 279 24 279 24 285 c 128,-1,50
 24 291 24 291 23 297 c 0,51,52
 22 302 22 302 22.5 306 c 128,-1,53
 23 310 23 310 22 315 c 0,54,55
 20 323 20 323 20.5 333 c 128,-1,56
 21 343 21 343 21 351 c 0,57,58
 21 358 21 358 20.5 365.5 c 128,-1,59
 20 373 20 373 22 379 c 2,60,-1
 22 392 l 2,61,62
 24 400 24 400 23 407.5 c 128,-1,63
 22 415 22 415 24 423 c 2,64,-1
 24 433 l 2,65,66
 26 439 26 439 25.5 445 c 128,-1,67
 25 451 25 451 27 458 c 0,68,69
 29 463 29 463 29 469.5 c 128,-1,70
 29 476 29 476 31 482 c 0,71,72
 35 496 35 496 37 509 c 128,-1,73
 39 522 39 522 44 535 c 0,74,75
 64 595 64 595 96 635.5 c 128,-1,76
 128 676 128 676 184 699 c 0,77,78
 196 704 196 704 209.5 706.5 c 128,-1,79
 223 709 223 709 237 712 c 0,80,81
 242 713 242 713 247 713 c 128,-1,82
 252 713 252 713 257 714 c 0,83,84
 259 715 259 715 262.5 714 c 128,-1,85
 266 713 266 713 268 714 c 0,86,87
 321 715 321 715 360.5 702 c 128,-1,88
 400 689 400 689 429 665 c 128,-1,89
 458 641 458 641 477.5 607.5 c 128,-1,90
 497 574 497 574 510 535 c 0,91,92
 516 518 516 518 518.5 500 c 128,-1,93
 521 482 521 482 526 464 c 0,94,95
 528 456 528 456 527.5 448.5 c 128,-1,96
 527 441 527 441 529 433 c 0,97,98
 531 423 531 423 531 412.5 c 128,-1,99
 531 402 531 402 533 392 c 2,100,-1
 533 377 l 2,0,1
393 332 m 2,101,102
 394 337 394 337 393.5 342.5 c 128,-1,103
 393 348 393 348 393 353 c 256,104,105
 393 358 393 358 393.5 363.5 c 128,-1,106
 394 369 394 369 393 374 c 2,107,-1
 393 382 l 2,108,109
 393 389 393 389 393 395.5 c 128,-1,110
 393 402 393 402 392 408 c 2,111,-1
 392 418 l 2,112,113
 390 428 390 428 389.5 437.5 c 128,-1,114
 389 447 389 447 388 457 c 0,115,116
 386 465 386 465 385 473 c 128,-1,117
 384 481 384 481 382 489 c 0,118,119
 374 517 374 517 363.5 541.5 c 128,-1,120
 353 566 353 566 332 580 c 0,121,122
 320 589 320 589 305.5 593.5 c 128,-1,123
 291 598 291 598 269 598 c 0,124,125
 267 596 267 596 263.5 597 c 128,-1,126
 260 598 260 598 258 597 c 0,127,128
 253 595 253 595 248.5 594 c 128,-1,129
 244 593 244 593 239 591 c 0,130,131
 216 581 216 581 203 562 c 128,-1,132
 190 543 190 543 180 520 c 0,133,134
 174 505 174 505 172 487.5 c 128,-1,135
 170 470 170 470 166 452 c 0,136,137
 165 444 165 444 164.5 436 c 128,-1,138
 164 428 164 428 163 420 c 256,139,140
 162 412 162 412 162 403 c 128,-1,141
 162 394 162 394 162 386 c 2,142,-1
 162 375 l 2,143,144
 160 370 160 370 160.5 364 c 128,-1,145
 161 358 161 358 161 353 c 256,146,147
 161 348 161 348 161 343 c 128,-1,148
 161 338 161 338 162 333 c 256,149,150
 163 328 163 328 162 321.5 c 128,-1,151
 161 315 161 315 162 310 c 2,152,-1
 162 296 l 2,153,154
 164 287 164 287 164 277 c 128,-1,155
 164 267 164 267 166 258 c 2,156,-1
 166 250 l 2,157,158
 168 241 168 241 169 231.5 c 128,-1,159
 170 222 170 222 172 213 c 0,160,161
 178 193 178 193 184 176 c 128,-1,162
 190 159 190 159 201 144 c 0,163,164
 212 130 212 130 223.5 121.5 c 128,-1,165
 235 113 235 113 254 107 c 0,166,167
 259 105 259 105 268 103.5 c 128,-1,168
 277 102 277 102 284 104 c 0,169,170
 289 106 289 106 294.5 106 c 128,-1,171
 300 106 300 106 305 108 c 0,172,173
 316 112 316 112 328 119.5 c 128,-1,174
 340 127 340 127 347 135 c 0,175,176
 356 148 356 148 362 159.5 c 128,-1,177
 368 171 368 171 374 186 c 0,178,179
 379 199 379 199 381 212.5 c 128,-1,180
 383 226 383 226 387 240 c 0,181,182
 388 245 388 245 388 249.5 c 128,-1,183
 388 254 388 254 389 259 c 0,184,185
 391 266 391 266 390.5 273.5 c 128,-1,186
 390 281 390 281 392 288 c 0,187,188
 392 296 392 296 392 305 c 128,-1,189
 392 314 392 314 393 322 c 2,190,-1
 393 332 l 2,101,102
EndSplineSet
EndChar

StartChar: one
Encoding: 49 49 24
Width: 556
GlyphClass: 1
Flags: W
LayerCount: 2
Fore
SplineSet
306 698 m 2,0,-1
 344 698 l 2,1,2
 349 698 349 698 354 698.5 c 128,-1,3
 359 699 359 699 364 697 c 2,4,-1
 369 697 l 2,5,6
 374 696 374 696 378.5 694.5 c 128,-1,7
 383 693 383 693 385 690 c 0,8,9
 390 683 390 683 390.5 671.5 c 128,-1,10
 391 660 391 660 391 647 c 2,11,-1
 391 554 l 1,12,-1
 391 189 l 1,13,-1
 391 62 l 2,14,15
 391 49 391 49 391.5 33.5 c 128,-1,16
 392 18 392 18 387 10 c 0,17,18
 383 5 383 5 377.5 3.5 c 128,-1,19
 372 2 372 2 364 0 c 2,20,-1
 339 0 l 1,21,-1
 299 0 l 2,22,23
 294 0 294 0 288.5 -0.5 c 128,-1,24
 283 -1 283 -1 278 0 c 2,25,-1
 273 0 l 2,26,27
 268 2 268 2 263.5 3.5 c 128,-1,28
 259 5 259 5 256 9 c 0,29,30
 251 15 251 15 251 25 c 128,-1,31
 251 35 251 35 251 46 c 2,32,-1
 251 121 l 1,33,-1
 251 334 l 1,34,-1
 251 398 l 2,35,36
 251 406 251 406 251.5 416.5 c 128,-1,37
 252 427 252 427 250 434 c 0,38,39
 245 451 245 451 231 452.5 c 128,-1,40
 217 454 217 454 197 454 c 2,41,-1
 125 454 l 2,42,43
 111 454 111 454 98 455 c 128,-1,44
 85 456 85 456 79 464 c 0,45,46
 77 468 77 468 77 471.5 c 128,-1,47
 77 475 77 475 76 480 c 0,48,49
 74 485 74 485 74.5 490.5 c 128,-1,50
 75 496 75 496 75 501 c 0,51,52
 75 514 75 514 75 528 c 128,-1,53
 75 542 75 542 80 550 c 0,54,55
 85 557 85 557 94.5 558 c 128,-1,56
 104 559 104 559 114 561 c 2,57,-1
 124 561 l 2,58,59
 130 563 130 563 136.5 563.5 c 128,-1,60
 143 564 143 564 149 565 c 0,61,62
 161 569 161 569 171.5 572 c 128,-1,63
 182 575 182 575 193 580 c 0,64,65
 216 590 216 590 232.5 606 c 128,-1,66
 249 622 249 622 261 642 c 0,67,68
 267 653 267 653 272 669.5 c 128,-1,69
 277 686 277 686 286 692 c 0,70,71
 291 696 291 696 297 697 c 0,72,73
 299 698 299 698 301.5 697.5 c 128,-1,74
 304 697 304 697 306 698 c 2,0,-1
EndSplineSet
EndChar

StartChar: two
Encoding: 50 50 25
Width: 556
GlyphClass: 1
Flags: W
LayerCount: 2
Fore
SplineSet
282 713 m 0,0,1
 362 715 362 715 416.5 684 c 128,-1,2
 471 653 471 653 501 605 c 0,3,4
 506 597 506 597 509 589 c 128,-1,5
 512 581 512 581 516 573 c 0,6,7
 522 557 522 557 525.5 536.5 c 128,-1,8
 529 516 529 516 529.5 494 c 128,-1,9
 530 472 530 472 527 451 c 128,-1,10
 524 430 524 430 517 414 c 0,11,12
 507 388 507 388 491 364 c 0,13,14
 471 335 471 335 445 314 c 128,-1,15
 419 293 419 293 391 273 c 0,16,17
 383 268 383 268 374.5 262 c 128,-1,18
 366 256 366 256 358 251 c 0,19,20
 336 237 336 237 315.5 223 c 128,-1,21
 295 209 295 209 275 194 c 0,22,23
 268 189 268 189 262.5 184 c 128,-1,24
 257 179 257 179 251 174 c 0,25,26
 250 173 250 173 249.5 172 c 128,-1,27
 249 171 249 171 247 170 c 0,28,29
 241 165 241 165 234.5 158.5 c 128,-1,30
 228 152 228 152 224 144 c 0,31,32
 223 142 223 142 221.5 139.5 c 128,-1,33
 220 137 220 137 221 132 c 0,34,35
 223 127 223 127 228 125 c 128,-1,36
 233 123 233 123 238 122 c 2,37,-1
 243 122 l 2,38,39
 248 120 248 120 254.5 120.5 c 128,-1,40
 261 121 261 121 266 121 c 2,41,-1
 311 121 l 1,42,-1
 463 121 l 2,43,44
 477 121 477 121 497 121.5 c 128,-1,45
 517 122 517 122 525 116 c 0,46,47
 530 112 530 112 532 104 c 128,-1,48
 534 96 534 96 534.5 85.5 c 128,-1,49
 535 75 535 75 534.5 64.5 c 128,-1,50
 534 54 534 54 534 45 c 0,51,52
 534 39 534 39 534.5 32 c 128,-1,53
 535 25 535 25 533 20 c 0,54,55
 532 10 532 10 523 5 c 0,56,57
 517 1 517 1 507.5 1 c 128,-1,58
 498 1 498 1 489 1 c 2,59,-1
 420 1 l 1,60,-1
 151 1 l 1,61,-1
 74 1 l 2,62,63
 65 1 65 1 54.5 0.5 c 128,-1,64
 44 0 44 0 37 3 c 0,65,66
 27 8 27 8 24.5 19 c 128,-1,67
 22 30 22 30 25 43 c 0,68,69
 25 46 25 46 25.5 49.5 c 128,-1,70
 26 53 26 53 26 56 c 0,71,72
 28 64 28 64 30 73 c 128,-1,73
 32 82 32 82 34 90 c 0,74,75
 49 134 49 134 72 167 c 0,76,77
 97 202 97 202 131 229.5 c 128,-1,78
 165 257 165 257 200 283 c 0,79,80
 228 302 228 302 255.5 320.5 c 128,-1,81
 283 339 283 339 311 359 c 0,82,83
 318 364 318 364 323.5 369 c 128,-1,84
 329 374 329 374 335 379 c 0,85,86
 349 390 349 390 361 405.5 c 128,-1,87
 373 421 373 421 380 438 c 0,88,89
 382 443 382 443 383 447.5 c 128,-1,90
 384 452 384 452 386 457 c 0,91,92
 388 465 388 465 389 479 c 128,-1,93
 390 493 390 493 388 503 c 0,94,95
 387 508 387 508 386 514 c 128,-1,96
 385 520 385 520 383 525 c 0,97,98
 369 561 369 561 340 578 c 0,99,100
 334 582 334 582 327 584.5 c 128,-1,101
 320 587 320 587 312 589 c 0,102,103
 307 591 307 591 301.5 590.5 c 128,-1,104
 296 590 296 590 290 592 c 0,105,106
 283 594 283 594 274 592.5 c 128,-1,107
 265 591 265 591 259 589 c 0,108,109
 220 577 220 577 201 546 c 0,110,111
 192 532 192 532 187 516.5 c 128,-1,112
 182 501 182 501 177 483 c 0,113,114
 174 470 174 470 173.5 456.5 c 128,-1,115
 173 443 173 443 162 436 c 0,116,117
 157 433 157 433 148.5 432.5 c 128,-1,118
 140 432 140 432 131 432 c 2,119,-1
 80 432 l 2,120,121
 69 432 69 432 60.5 432.5 c 128,-1,122
 52 433 52 433 46 438 c 0,123,124
 41 441 41 441 39 449 c 128,-1,125
 37 457 37 457 39 464 c 2,126,-1
 39 473 l 2,127,128
 40 479 40 479 40.5 485.5 c 128,-1,129
 41 492 41 492 42 498 c 0,130,131
 45 511 45 511 47 523.5 c 128,-1,132
 49 536 49 536 54 547 c 0,133,134
 57 556 57 556 60 564 c 128,-1,135
 63 572 63 572 66 580 c 0,136,137
 69 586 69 586 73 592.5 c 128,-1,138
 77 599 77 599 81 605 c 0,139,140
 101 638 101 638 128.5 659.5 c 128,-1,141
 156 681 156 681 194 697 c 0,142,143
 208 702 208 702 222 704.5 c 128,-1,144
 236 707 236 707 251 711 c 0,145,146
 256 711 256 711 261 711.5 c 128,-1,147
 266 712 266 712 271 713 c 0,148,149
 273 713 273 713 276.5 712.5 c 128,-1,150
 280 712 280 712 282 713 c 0,0,1
EndSplineSet
EndChar

StartChar: three
Encoding: 51 51 26
Width: 556
GlyphClass: 1
Flags: W
LayerCount: 2
Fore
SplineSet
269 713 m 0,0,1
 319 715 319 715 357 702.5 c 128,-1,2
 395 690 395 690 425 671 c 0,3,4
 431 667 431 667 436.5 662.5 c 128,-1,5
 442 658 442 658 448 653 c 0,6,7
 477 632 477 632 493 595 c 0,8,9
 495 589 495 589 498 583 c 128,-1,10
 501 577 501 577 503 570 c 0,11,12
 509 552 509 552 510 525 c 128,-1,13
 511 498 511 498 506 478 c 0,14,15
 498 449 498 449 485 429 c 0,16,17
 482 425 482 425 479 422 c 128,-1,18
 476 419 476 419 473 416 c 0,19,20
 469 410 469 410 467 408 c 0,21,22
 452 398 452 398 442 388 c 0,23,24
 440 386 440 386 438 383.5 c 128,-1,25
 436 381 436 381 437 377 c 0,26,27
 437 372 437 372 445 366 c 0,28,29
 452 361 452 361 459 357 c 128,-1,30
 466 353 466 353 474 348 c 0,31,32
 508 323 508 323 525 280 c 0,33,34
 529 271 529 271 531 260.5 c 128,-1,35
 533 250 533 250 535 239 c 0,36,37
 537 234 537 234 535.5 228 c 128,-1,38
 534 222 534 222 536 216 c 0,39,40
 537 212 537 212 536.5 205 c 128,-1,41
 536 198 536 198 535 194 c 0,42,43
 535 185 535 185 534 181 c 0,44,45
 532 173 532 173 530.5 165 c 128,-1,46
 529 157 529 157 527 149 c 0,47,48
 508 92 508 92 473.5 60 c 128,-1,49
 439 28 439 28 385 6 c 0,50,51
 374 2 374 2 363 -0.5 c 128,-1,52
 352 -3 352 -3 340 -6 c 0,53,54
 335 -8 335 -8 329.5 -8 c 128,-1,55
 324 -8 324 -8 319 -10 c 0,56,57
 311 -10 311 -10 303.5 -10.5 c 128,-1,58
 296 -11 296 -11 288 -12 c 0,59,60
 284 -13 284 -13 276.5 -12.5 c 128,-1,61
 269 -12 269 -12 265 -11 c 2,62,-1
 248 -11 l 2,63,64
 245 -10 245 -10 241 -10.5 c 128,-1,65
 237 -11 237 -11 234 -10 c 0,66,67
 226 -8 226 -8 218 -7 c 128,-1,68
 210 -6 210 -6 203 -4 c 0,69,70
 199 -2 199 -2 195.5 -2 c 128,-1,71
 192 -2 192 -2 189 -1 c 0,72,73
 178 2 178 2 168.5 5.5 c 128,-1,74
 159 9 159 9 150 13 c 0,75,76
 112 30 112 30 84 58.5 c 128,-1,77
 56 87 56 87 39 125 c 0,78,79
 34 136 34 136 31 148 c 128,-1,80
 28 160 28 160 24 173 c 0,81,82
 22 178 22 178 22.5 183.5 c 128,-1,83
 23 189 23 189 21 194 c 0,84,85
 19 201 19 201 19 210.5 c 128,-1,86
 19 220 19 220 21 227 c 0,87,88
 27 240 27 240 48 240.5 c 128,-1,89
 69 241 69 241 88 241 c 0,90,91
 95 241 95 241 103 241.5 c 128,-1,92
 111 242 111 242 117 240 c 2,93,-1
 128 240 l 2,94,95
 139 238 139 238 143 235 c 0,96,97
 151 230 151 230 152.5 219.5 c 128,-1,98
 154 209 154 209 158 198 c 0,99,100
 163 184 163 184 167 172.5 c 128,-1,101
 171 161 171 161 179 150 c 0,102,103
 197 123 197 123 234 109 c 0,104,105
 240 107 240 107 246 106.5 c 128,-1,106
 252 106 252 106 258 104 c 2,107,-1
 263 104 l 2,108,109
 273 102 273 102 285 103 c 128,-1,110
 297 104 297 104 305 107 c 0,111,112
 315 109 315 109 322 111 c 0,113,114
 342 119 342 119 357 132.5 c 128,-1,115
 372 146 372 146 380 166 c 0,116,117
 383 172 383 172 384.5 179 c 128,-1,118
 386 186 386 186 388 194 c 0,119,120
 390 199 390 199 390.5 210 c 128,-1,121
 391 221 391 221 389 227 c 0,122,123
 389 229 389 229 388.5 231 c 128,-1,124
 388 233 388 233 388 235 c 0,125,126
 387 240 387 240 386 245.5 c 128,-1,127
 385 251 385 251 383 256 c 0,128,129
 373 279 373 279 356.5 291.5 c 128,-1,130
 340 304 340 304 314 312 c 0,131,132
 307 314 307 314 299.5 314 c 128,-1,133
 292 314 292 314 284 316 c 0,134,135
 281 317 281 317 277.5 317 c 128,-1,136
 274 317 274 317 272 317 c 2,137,-1
 263 317 l 2,138,139
 260 318 260 318 256.5 317.5 c 128,-1,140
 253 317 253 317 251 318 c 0,141,142
 243 320 243 320 238 323 c 128,-1,143
 233 326 233 326 231 332 c 0,144,145
 229 337 229 337 228.5 344 c 128,-1,146
 228 351 228 351 228 359 c 0,147,148
 228 372 228 372 228.5 386 c 128,-1,149
 229 400 229 400 234 408 c 0,150,151
 237 412 237 412 245.5 414 c 128,-1,152
 254 416 254 416 264 417 c 128,-1,153
 274 418 274 418 283.5 418.5 c 128,-1,154
 293 419 293 419 299 421 c 0,155,156
 327 429 327 429 344.5 440.5 c 128,-1,157
 362 452 362 452 372 478 c 0,158,159
 374 484 374 484 376 496 c 128,-1,160
 378 508 378 508 376 518 c 0,161,162
 374 526 374 526 372 534.5 c 128,-1,163
 370 543 370 543 365 550 c 0,164,165
 347 581 347 581 310 593 c 0,166,167
 305 595 305 595 300.5 595 c 128,-1,168
 296 595 296 595 291 597 c 0,169,170
 283 599 283 599 271.5 598 c 128,-1,171
 260 597 260 597 253 595 c 0,172,173
 248 593 248 593 244.5 592.5 c 128,-1,174
 241 592 241 592 236 590 c 0,175,176
 206 578 206 578 189 552 c 0,177,178
 183 543 183 543 179.5 533 c 128,-1,179
 176 523 176 523 173 512 c 256,180,181
 170 501 170 501 168 491.5 c 128,-1,182
 166 482 166 482 158 477 c 0,183,184
 155 475 155 475 145 473 c 2,185,-1
 134 473 l 2,186,187
 129 472 129 472 122 472.5 c 128,-1,188
 115 473 115 473 109 473 c 0,189,190
 93 473 93 473 73.5 472 c 128,-1,191
 54 471 54 471 44 479 c 0,192,193
 40 482 40 482 38 490.5 c 128,-1,194
 36 499 36 499 38 507 c 0,195,196
 40 512 40 512 40 517 c 128,-1,197
 40 522 40 522 42 527 c 0,198,199
 45 539 45 539 48 550.5 c 128,-1,200
 51 562 51 562 56 573 c 0,201,202
 77 621 77 621 109 651.5 c 128,-1,203
 141 682 141 682 192 701 c 0,204,205
 203 705 203 705 215.5 707 c 128,-1,206
 228 709 228 709 241 711 c 0,207,208
 249 712 249 712 255.5 712.5 c 128,-1,209
 262 713 262 713 269 713 c 0,0,1
EndSplineSet
EndChar

StartChar: four
Encoding: 52 52 27
Width: 556
GlyphClass: 1
Flags: W
LayerCount: 2
Fore
SplineSet
522 277 m 0,0,1
 538 272 538 272 538.5 255 c 128,-1,2
 539 238 539 238 539 218 c 2,3,-1
 539 190 l 2,4,5
 537 180 537 180 534.5 173.5 c 128,-1,6
 532 167 532 167 523 165 c 0,7,8
 514 162 514 162 503 162.5 c 128,-1,9
 492 163 492 163 482 163 c 128,-1,10
 472 163 472 163 463 160.5 c 128,-1,11
 454 158 454 158 450 150 c 0,12,13
 448 146 448 146 446 136 c 2,14,-1
 446 125 l 2,15,16
 445 120 445 120 445.5 112.5 c 128,-1,17
 446 105 446 105 446 98 c 2,18,-1
 446 46 l 2,19,20
 446 35 446 35 446 25.5 c 128,-1,21
 446 16 446 16 441 10 c 0,22,23
 438 6 438 6 433.5 4.5 c 128,-1,24
 429 3 429 3 424 1 c 2,25,-1
 419 1 l 2,26,27
 411 -1 411 -1 400 0 c 128,-1,28
 389 1 389 1 381 1 c 0,29,30
 371 1 371 1 360.5 0.5 c 128,-1,31
 350 0 350 0 341 1 c 128,-1,32
 332 2 332 2 325 5 c 128,-1,33
 318 8 318 8 315 15 c 0,34,35
 313 20 313 20 313 27.5 c 128,-1,36
 313 35 313 35 313 43 c 2,37,-1
 313 91 l 2,38,39
 313 96 313 96 313.5 103 c 128,-1,40
 314 110 314 110 313 115 c 2,41,-1
 313 136 l 2,42,43
 311 144 311 144 309 149 c 128,-1,44
 307 154 307 154 302 158 c 0,45,46
 293 164 293 164 274 163.5 c 128,-1,47
 255 163 255 163 241 163 c 2,48,-1
 93 163 l 2,49,50
 85 163 85 163 74.5 162.5 c 128,-1,51
 64 162 64 162 53.5 162.5 c 128,-1,52
 43 163 43 163 34.5 164.5 c 128,-1,53
 26 166 26 166 23 171 c 0,54,55
 17 178 17 178 17 193 c 2,56,-1
 17 205 l 2,57,58
 15 212 15 212 15.5 220 c 128,-1,59
 16 228 16 228 16 236 c 0,60,61
 16 248 16 248 16 263.5 c 128,-1,62
 16 279 16 279 19 289 c 0,63,64
 21 296 21 296 24.5 302 c 128,-1,65
 28 308 28 308 32 313 c 0,66,67
 42 327 42 327 52 339 c 128,-1,68
 62 351 62 351 72 365 c 0,69,70
 98 403 98 403 126.5 439.5 c 128,-1,71
 155 476 155 476 182 514 c 0,72,73
 187 522 187 522 193.5 529 c 128,-1,74
 200 536 200 536 205 544 c 0,75,76
 223 569 223 569 241.5 593 c 128,-1,77
 260 617 260 617 278 642 c 0,78,79
 283 650 283 650 289 657 c 128,-1,80
 295 664 295 664 301 672 c 0,81,82
 304 677 304 677 307 681.5 c 128,-1,83
 310 686 310 686 315 690 c 0,84,85
 319 692 319 692 322.5 694 c 128,-1,86
 326 696 326 696 331 697 c 0,87,88
 333 698 333 698 336.5 697.5 c 128,-1,89
 340 697 340 697 342 699 c 2,90,-1
 407 699 l 2,91,92
 418 699 418 699 427 698 c 128,-1,93
 436 697 436 697 441 690 c 0,94,95
 445 684 445 684 445.5 675 c 128,-1,96
 446 666 446 666 446 655 c 2,97,-1
 446 329 l 2,98,99
 446 321 446 321 446 312 c 128,-1,100
 446 303 446 303 448 296 c 0,101,102
 451 283 451 283 464 280 c 0,103,104
 476 276 476 276 493 278.5 c 128,-1,105
 510 281 510 281 522 277 c 0,0,1
313 325 m 2,106,107
 314 330 314 330 313.5 337 c 128,-1,108
 313 344 313 344 313 349 c 2,109,-1
 313 433 l 2,110,111
 313 438 313 438 313.5 443 c 128,-1,112
 314 448 314 448 313 453 c 0,113,114
 311 459 311 459 312.5 465.5 c 128,-1,115
 314 472 314 472 312 478 c 0,116,117
 310 486 310 486 309.5 492.5 c 128,-1,118
 309 499 309 499 299 500 c 0,119,120
 297 498 297 498 294.5 497.5 c 128,-1,121
 292 497 292 497 290 495 c 0,122,123
 285 491 285 491 280.5 484 c 128,-1,124
 276 477 276 477 271 472 c 0,125,126
 264 461 264 461 256.5 452 c 128,-1,127
 249 443 249 443 241 432 c 0,128,129
 238 427 238 427 234 422 c 128,-1,130
 230 417 230 417 226 412 c 2,131,-1
 172 340 l 2,132,133
 168 335 168 335 164.5 329 c 128,-1,134
 161 323 161 323 156 317 c 0,135,136
 154 313 154 313 150.5 309.5 c 128,-1,137
 147 306 147 306 145 301 c 256,138,139
 143 296 143 296 144 290.5 c 128,-1,140
 145 285 145 285 149 283 c 0,141,142
 155 278 155 278 166.5 278 c 128,-1,143
 178 278 178 278 188 278 c 2,144,-1
 247 278 l 2,145,146
 254 278 254 278 262 277.5 c 128,-1,147
 270 277 270 277 276 278 c 2,148,-1
 286 278 l 2,149,150
 293 280 293 280 298.5 281.5 c 128,-1,151
 304 283 304 283 307 288 c 0,152,153
 311 293 311 293 312 299.5 c 128,-1,154
 313 306 313 306 313 314 c 2,155,-1
 313 325 l 2,106,107
EndSplineSet
EndChar

StartChar: five
Encoding: 53 53 28
Width: 556
GlyphClass: 1
Flags: W
LayerCount: 2
Fore
SplineSet
136 699 m 2,0,-1
 394 699 l 1,1,-1
 456 699 l 2,2,3
 467 699 467 699 476.5 698.5 c 128,-1,4
 486 698 486 698 492 693 c 0,5,6
 496 690 496 690 498 681.5 c 128,-1,7
 500 673 500 673 500.5 663 c 128,-1,8
 501 653 501 653 500.5 642.5 c 128,-1,9
 500 632 500 632 500 624 c 0,10,11
 500 617 500 617 500 610.5 c 128,-1,12
 500 604 500 604 498 599 c 0,13,14
 493 587 493 587 481.5 585.5 c 128,-1,15
 470 584 470 584 453 584 c 2,16,-1
 376 584 l 1,17,-1
 268 584 l 2,18,19
 254 584 254 584 239.5 583.5 c 128,-1,20
 225 583 225 583 217 577 c 0,21,22
 212 573 212 573 209 565.5 c 128,-1,23
 206 558 206 558 204.5 548.5 c 128,-1,24
 203 539 203 539 202 529 c 128,-1,25
 201 519 201 519 199 512 c 0,26,27
 197 504 197 504 196 496 c 128,-1,28
 195 488 195 488 193 480 c 0,29,30
 192 477 192 477 192 470 c 0,31,32
 190 465 190 465 190 458.5 c 128,-1,33
 190 452 190 452 192 448 c 0,34,35
 193 446 193 446 194 445 c 128,-1,36
 195 444 195 444 197 442 c 0,37,38
 206 441 206 441 212 444 c 128,-1,39
 218 447 218 447 223 450 c 0,40,41
 230 455 230 455 237 458 c 128,-1,42
 244 461 244 461 252 464 c 0,43,44
 264 469 264 469 280.5 471.5 c 128,-1,45
 297 474 297 474 315.5 475 c 128,-1,46
 334 476 334 476 351.5 474 c 128,-1,47
 369 472 369 472 382 468 c 0,48,49
 393 464 393 464 404.5 460 c 128,-1,50
 416 456 416 456 426 450 c 0,51,52
 488 414 488 414 517 349 c 0,53,54
 522 337 522 337 525 324.5 c 128,-1,55
 528 312 528 312 531 298 c 0,56,57
 534 286 534 286 536 269 c 128,-1,58
 538 252 538 252 538 235 c 128,-1,59
 538 218 538 218 536 201.5 c 128,-1,60
 534 185 534 185 530 173 c 0,61,62
 524 157 524 157 518.5 142 c 128,-1,63
 513 127 513 127 505 113 c 0,64,65
 499 103 499 103 492.5 94 c 128,-1,66
 486 85 486 85 479 77 c 0,67,68
 478 76 478 76 477 75.5 c 128,-1,69
 476 75 476 75 475 74 c 0,70,71
 471 69 471 69 467 64.5 c 128,-1,72
 463 60 463 60 458 56 c 0,73,74
 457 55 457 55 456.5 54 c 128,-1,75
 456 53 456 53 454 52 c 0,76,77
 449 48 449 48 444.5 44 c 128,-1,78
 440 40 440 40 435 36 c 0,79,80
 403 13 403 13 362 0 c 0,81,82
 354 -3 354 -3 345 -4.5 c 128,-1,83
 336 -6 336 -6 326 -8 c 0,84,85
 318 -10 318 -10 309 -10.5 c 128,-1,86
 300 -11 300 -11 289 -12 c 0,87,88
 285 -12 285 -12 281 -12.5 c 128,-1,89
 277 -13 277 -13 273 -12 c 2,90,-1
 266 -12 l 2,91,92
 261 -11 261 -11 255.5 -11 c 128,-1,93
 250 -11 250 -11 245 -11 c 0,94,95
 234 -8 234 -8 222.5 -7.5 c 128,-1,96
 211 -7 211 -7 200 -4 c 0,97,98
 177 3 177 3 156 11 c 128,-1,99
 135 19 135 19 117 30 c 0,100,101
 111 34 111 34 105.5 38 c 128,-1,102
 100 42 100 42 94 47 c 2,103,-1
 88 53 l 2,104,105
 83 56 83 56 79.5 60 c 128,-1,106
 76 64 76 64 73 68 c 0,107,108
 69 73 69 73 65 76.5 c 128,-1,109
 61 80 61 80 58 85 c 0,110,111
 48 99 48 99 41 115 c 128,-1,112
 34 131 34 131 28 149 c 0,113,114
 26 157 26 157 23 172.5 c 128,-1,115
 20 188 20 188 25 196 c 256,116,117
 30 204 30 204 39.5 205.5 c 128,-1,118
 49 207 49 207 62 207 c 2,119,-1
 116 207 l 2,120,121
 125 207 125 207 133.5 207 c 128,-1,122
 142 207 142 207 149 204 c 0,123,124
 159 199 159 199 162.5 189 c 128,-1,125
 166 179 166 179 170 169 c 0,126,127
 174 161 174 161 178 154.5 c 128,-1,128
 182 148 182 148 187 141 c 0,129,130
 190 137 190 137 194 134 c 128,-1,131
 198 131 198 131 202 128 c 0,132,133
 208 121 208 121 216 117 c 0,134,135
 230 109 230 109 255.5 104.5 c 128,-1,136
 281 100 281 100 303 106 c 0,137,138
 318 111 318 111 329.5 117.5 c 128,-1,139
 341 124 341 124 352 132 c 0,140,141
 357 135 357 135 360 139 c 128,-1,142
 363 143 363 143 366 148 c 0,143,144
 375 159 375 159 381 170.5 c 128,-1,145
 387 182 387 182 392 197 c 0,146,147
 394 209 394 209 396 216 c 2,148,-1
 396 225 l 2,149,150
 398 231 398 231 398 243 c 128,-1,151
 398 255 398 255 396 261 c 0,152,153
 394 268 394 268 392.5 275.5 c 128,-1,154
 391 283 391 283 389 289 c 0,155,156
 377 318 377 318 358.5 337 c 128,-1,157
 340 356 340 356 308 365 c 0,158,159
 303 367 303 367 298 367 c 128,-1,160
 293 367 293 367 288 369 c 2,161,-1
 280 369 l 2,162,163
 274 371 274 371 265.5 370 c 128,-1,164
 257 369 257 369 252 367 c 0,165,166
 247 366 247 366 243.5 366 c 128,-1,167
 240 366 240 366 236 365 c 0,168,169
 225 361 225 361 215.5 356 c 128,-1,170
 206 351 206 351 198 345 c 0,171,172
 189 339 189 339 182.5 330.5 c 128,-1,173
 176 322 176 322 165 317 c 256,174,175
 154 312 154 312 136.5 313 c 128,-1,176
 119 314 119 314 104 314 c 0,177,178
 97 314 97 314 89.5 313 c 128,-1,179
 82 312 82 312 77 314 c 2,180,-1
 68 314 l 2,181,182
 57 316 57 316 53 319 c 0,183,184
 44 327 44 327 47 344 c 0,185,186
 50 358 50 358 52 371.5 c 128,-1,187
 54 385 54 385 57 399 c 0,188,189
 58 403 58 403 58 406 c 128,-1,190
 58 409 58 409 59 413 c 0,191,192
 61 423 61 423 62.5 433 c 128,-1,193
 64 443 64 443 66 453 c 0,194,195
 68 461 68 461 69.5 470.5 c 128,-1,196
 71 480 71 480 73 488 c 0,197,198
 74 493 74 493 74 499 c 128,-1,199
 74 505 74 505 76 510 c 0,200,201
 82 532 82 532 85 555.5 c 128,-1,202
 88 579 88 579 93 601 c 0,203,204
 94 604 94 604 94 607 c 128,-1,205
 94 610 94 610 95 612 c 0,206,207
 97 623 97 623 98.5 633.5 c 128,-1,208
 100 644 100 644 103 655 c 0,209,210
 105 666 105 666 106.5 674.5 c 128,-1,211
 108 683 108 683 114 691 c 0,212,213
 118 696 118 696 128 698 c 0,214,215
 130 699 130 699 132 698.5 c 128,-1,216
 134 698 134 698 136 699 c 2,0,-1
EndSplineSet
EndChar

StartChar: six
Encoding: 54 54 29
Width: 556
GlyphClass: 1
Flags: W
LayerCount: 2
Fore
SplineSet
533 250 m 2,0,1
 534 245 534 245 533.5 233.5 c 128,-1,2
 533 222 533 222 532 217 c 256,3,4
 531 212 531 212 531 208.5 c 128,-1,5
 531 205 531 205 530 200 c 0,6,7
 528 189 528 189 526.5 179 c 128,-1,8
 525 169 525 169 521 159 c 0,9,10
 504 107 504 107 472.5 69 c 128,-1,11
 441 31 441 31 393 10 c 0,12,13
 384 6 384 6 374.5 3.5 c 128,-1,14
 365 1 365 1 354 -3 c 0,15,16
 346 -5 346 -5 337 -6 c 128,-1,17
 328 -7 328 -7 319 -9 c 0,18,19
 314 -11 314 -11 308.5 -10 c 128,-1,20
 303 -9 303 -9 298 -10 c 0,21,22
 292 -12 292 -12 282.5 -12 c 128,-1,23
 273 -12 273 -12 268 -10 c 2,24,-1
 261 -10 l 2,25,26
 257 -9 257 -9 252.5 -9 c 128,-1,27
 248 -9 248 -9 244 -8 c 0,28,29
 239 -6 239 -6 234.5 -6.5 c 128,-1,30
 230 -7 230 -7 225 -5 c 0,31,32
 205 1 205 1 188 6.5 c 128,-1,33
 171 12 171 12 156 22 c 0,34,35
 114 47 114 47 88 85 c 128,-1,36
 62 123 62 123 45 173 c 0,37,38
 39 189 39 189 36 206.5 c 128,-1,39
 33 224 33 224 29 241 c 0,40,41
 27 249 27 249 26.5 257.5 c 128,-1,42
 26 266 26 266 24 275 c 0,43,44
 24 284 24 284 23.5 293.5 c 128,-1,45
 23 303 23 303 22 313 c 2,46,-1
 22 326 l 2,47,48
 20 331 20 331 20.5 336.5 c 128,-1,49
 21 342 21 342 21 347 c 256,50,51
 21 352 21 352 20.5 357.5 c 128,-1,52
 20 363 20 363 22 367 c 2,53,-1
 22 379 l 1,54,-1
 25 418 l 2,55,56
 29 433 29 433 30 448.5 c 128,-1,57
 31 464 31 464 36 478 c 0,58,59
 47 516 47 516 59.5 548.5 c 128,-1,60
 72 581 72 581 92 609 c 0,61,62
 115 641 115 641 145.5 665 c 128,-1,63
 176 689 176 689 218 703 c 0,64,65
 229 707 229 707 241 708.5 c 128,-1,66
 253 710 253 710 265 713 c 0,67,68
 268 714 268 714 277 713.5 c 128,-1,69
 286 713 286 713 288 714 c 0,70,71
 326 715 326 715 357.5 707.5 c 128,-1,72
 389 700 389 700 413.5 686.5 c 128,-1,73
 438 673 438 673 457.5 654 c 128,-1,74
 477 635 477 635 491 612 c 0,75,76
 499 599 499 599 504.5 585 c 128,-1,77
 510 571 510 571 515 555 c 0,78,79
 517 550 517 550 516.5 542.5 c 128,-1,80
 516 535 516 535 513 531 c 0,81,82
 510 526 510 526 505.5 525 c 128,-1,83
 501 524 501 524 495 522 c 2,84,-1
 484 522 l 2,85,86
 478 520 478 520 470 521 c 128,-1,87
 462 522 462 522 454 522 c 256,88,89
 446 522 446 522 437.5 521 c 128,-1,90
 429 520 429 520 421 522 c 0,91,92
 416 523 416 523 406 523 c 0,93,94
 389 527 389 527 384 538.5 c 128,-1,95
 379 550 379 550 371 563 c 0,96,97
 352 593 352 593 315 605 c 0,98,99
 309 607 309 607 299.5 608.5 c 128,-1,100
 290 610 290 610 282 608 c 0,101,102
 271 606 271 606 262 603.5 c 128,-1,103
 253 601 253 601 245 596 c 0,104,105
 221 581 221 581 206 559 c 128,-1,106
 191 537 191 537 180 508 c 0,107,108
 178 503 178 503 177 498.5 c 128,-1,109
 176 494 176 494 174 489 c 0,110,111
 171 481 171 481 169 472 c 128,-1,112
 167 463 167 463 165 454 c 0,113,114
 165 452 165 452 164.5 449.5 c 128,-1,115
 164 447 164 447 164 445 c 0,116,117
 163 440 163 440 163 434 c 128,-1,118
 163 428 163 428 165 424 c 0,119,120
 166 422 166 422 167 421 c 128,-1,121
 168 420 168 420 170 418 c 0,122,123
 181 416 181 416 188 423 c 128,-1,124
 195 430 195 430 202 435 c 0,125,126
 213 444 213 444 226.5 450.5 c 128,-1,127
 240 457 240 457 255 462 c 0,128,129
 263 464 263 464 271.5 465.5 c 128,-1,130
 280 467 280 467 288 469 c 0,131,132
 293 470 293 470 296.5 469 c 128,-1,133
 300 468 300 468 305 470 c 0,134,135
 310 471 310 471 317 471 c 128,-1,136
 324 471 324 471 329 470 c 0,137,138
 333 469 333 469 341 469 c 0,139,140
 346 468 346 468 351 467.5 c 128,-1,141
 356 467 356 467 361 465 c 0,142,143
 369 463 369 463 376.5 461.5 c 128,-1,144
 384 460 384 460 392 457 c 0,145,146
 424 444 424 444 449 425.5 c 128,-1,147
 474 407 474 407 493 381 c 0,148,149
 502 368 502 368 509.5 352.5 c 128,-1,150
 517 337 517 337 522 320 c 0,151,152
 525 312 525 312 526.5 303.5 c 128,-1,153
 528 295 528 295 530 287 c 0,154,155
 531 280 531 280 531.5 274 c 128,-1,156
 532 268 532 268 533 261 c 2,157,-1
 533 250 l 2,0,1
385 183 m 0,158,159
 392 204 392 204 392.5 232 c 128,-1,160
 393 260 393 260 385 281 c 0,161,162
 374 316 374 316 351 340 c 128,-1,163
 328 364 328 364 282 364 c 0,164,165
 280 363 280 363 276 363.5 c 128,-1,166
 272 364 272 364 269 363 c 0,167,168
 262 361 262 361 255 360 c 128,-1,169
 248 359 248 359 242 357 c 0,170,171
 195 337 195 337 180 286 c 0,172,173
 178 279 178 279 176.5 272.5 c 128,-1,174
 175 266 175 266 173 258 c 2,175,-1
 173 250 l 2,176,177
 171 241 171 241 171.5 229 c 128,-1,178
 172 217 172 217 174 209 c 0,179,180
 176 204 176 204 176.5 199 c 128,-1,181
 177 194 177 194 179 189 c 0,182,183
 193 142 193 142 234 118 c 0,184,185
 246 111 246 111 263 106 c 0,186,187
 269 106 269 106 272 105 c 0,188,189
 276 104 276 104 281.5 103.5 c 128,-1,190
 287 103 287 103 292 104 c 0,191,192
 301 106 301 106 308.5 107.5 c 128,-1,193
 316 109 316 109 324 112 c 0,194,195
 347 122 347 122 362 141 c 128,-1,196
 377 160 377 160 385 183 c 0,158,159
EndSplineSet
EndChar

StartChar: seven
Encoding: 55 55 30
Width: 556
GlyphClass: 1
Flags: W
LayerCount: 2
Fore
SplineSet
67 699 m 2,0,-1
 399 699 l 1,1,-1
 473 699 l 2,2,3
 485 699 485 699 495 698 c 128,-1,4
 505 697 505 697 510 689 c 0,5,6
 514 684 514 684 514.5 675.5 c 128,-1,7
 515 667 515 667 515 658 c 2,8,-1
 515 617 l 2,9,10
 515 607 515 607 515 598 c 128,-1,11
 515 589 515 589 512 581 c 0,12,13
 509 575 509 575 504.5 569.5 c 128,-1,14
 500 564 500 564 495 559 c 0,15,16
 491 555 491 555 488 553 c 0,17,18
 486 549 486 549 482.5 546 c 128,-1,19
 479 543 479 543 476 540 c 0,20,21
 470 532 470 532 463 524 c 128,-1,22
 456 516 456 516 450 508 c 0,23,24
 400 438 400 438 364 356 c 0,25,26
 352 328 352 328 342.5 298.5 c 128,-1,27
 333 269 333 269 323 239 c 0,28,29
 318 225 318 225 315.5 212 c 128,-1,30
 313 199 313 199 310 186 c 0,31,32
 305 170 305 170 303 154 c 128,-1,33
 301 138 301 138 297 121 c 0,34,35
 296 116 296 116 296 111.5 c 128,-1,36
 296 107 296 107 294 102 c 0,37,38
 293 91 293 91 292 81.5 c 128,-1,39
 291 72 291 72 289 61 c 0,40,41
 288 56 288 56 288.5 52 c 128,-1,42
 289 48 289 48 288 43 c 2,43,-1
 288 31 l 2,44,45
 285 20 285 20 282.5 13 c 128,-1,46
 280 6 280 6 269 2 c 0,47,48
 263 0 263 0 255 0.5 c 128,-1,49
 247 1 247 1 239 1 c 2,50,-1
 177 1 l 2,51,52
 166 1 166 1 156.5 2 c 128,-1,53
 147 3 147 3 142 11 c 0,54,55
 139 16 139 16 138.5 27 c 128,-1,56
 138 38 138 38 140 46 c 0,57,58
 142 52 142 52 142 59 c 128,-1,59
 142 66 142 66 144 73 c 0,60,61
 148 88 148 88 149.5 103.5 c 128,-1,62
 151 119 151 119 156 134 c 0,63,64
 163 159 163 159 169 184 c 128,-1,65
 175 209 175 209 183 232 c 0,66,67
 185 237 185 237 186.5 242.5 c 128,-1,68
 188 248 188 248 190 253 c 0,69,70
 198 273 198 273 206 292 c 128,-1,71
 214 311 214 311 222 331 c 0,72,73
 236 364 236 364 253.5 395 c 128,-1,74
 271 426 271 426 290 456 c 0,75,76
 302 474 302 474 314 492 c 128,-1,77
 326 510 326 510 339 528 c 0,78,79
 341 532 341 532 348 540.5 c 128,-1,80
 355 549 355 549 353 556 c 256,81,82
 351 563 351 563 346 564.5 c 128,-1,83
 341 566 341 566 334 568 c 2,84,-1
 325 568 l 2,85,86
 321 570 321 570 315.5 569.5 c 128,-1,87
 310 569 310 569 305 569 c 2,88,-1
 266 569 l 1,89,-1
 113 569 l 2,90,91
 99 569 99 569 78.5 568.5 c 128,-1,92
 58 568 58 568 50 573 c 0,93,94
 43 577 43 577 41 584 c 0,95,96
 39 589 39 589 39 596 c 128,-1,97
 39 603 39 603 39 610 c 2,98,-1
 39 655 l 2,99,100
 39 664 39 664 39 673 c 128,-1,101
 39 682 39 682 43 688 c 0,102,103
 47 695 47 695 58 698 c 0,104,105
 60 699 60 699 62.5 698.5 c 128,-1,106
 65 698 65 698 67 699 c 2,0,-1
EndSplineSet
EndChar

StartChar: eight
Encoding: 56 56 31
Width: 556
GlyphClass: 1
Flags: W
LayerCount: 2
Fore
SplineSet
541 221 m 0,0,1
 542 216 542 216 542.5 210.5 c 128,-1,2
 543 205 543 205 542 201 c 0,3,4
 541 196 541 196 541 192 c 128,-1,5
 541 188 541 188 541 183 c 0,6,7
 540 180 540 180 540 176 c 128,-1,8
 540 172 540 172 539 168 c 0,9,10
 537 162 537 162 536 156 c 128,-1,11
 535 150 535 150 533 145 c 0,12,13
 531 137 531 137 528 129 c 128,-1,14
 525 121 525 121 522 113 c 0,15,16
 519 106 519 106 514.5 99.5 c 128,-1,17
 510 93 510 93 505 86 c 0,18,19
 484 56 484 56 453 35.5 c 128,-1,20
 422 15 422 15 384 2 c 0,21,22
 373 -1 373 -1 362 -3 c 128,-1,23
 351 -5 351 -5 340 -8 c 0,24,25
 336 -10 336 -10 332 -9.5 c 128,-1,26
 328 -9 328 -9 324 -11 c 0,27,28
 316 -11 316 -11 308 -11.5 c 128,-1,29
 300 -12 300 -12 292 -13 c 2,30,-1
 283 -13 l 2,31,32
 277 -13 277 -13 270 -13.5 c 128,-1,33
 263 -14 263 -14 258 -12 c 0,34,35
 252 -10 252 -10 246 -11 c 128,-1,36
 240 -12 240 -12 235 -11 c 0,37,38
 231 -9 231 -9 227 -9.5 c 128,-1,39
 223 -10 223 -10 218 -8 c 0,40,41
 209 -6 209 -6 200 -4.5 c 128,-1,42
 191 -3 191 -3 183 0 c 0,43,44
 181 1 181 1 178.5 1 c 128,-1,45
 176 1 176 1 174 2 c 0,46,47
 154 8 154 8 135 17 c 0,48,49
 113 27 113 27 91.5 44 c 128,-1,50
 70 61 70 61 56 79 c 0,51,52
 46 92 46 92 38 108 c 0,53,54
 34 114 34 114 31.5 121 c 128,-1,55
 29 128 29 128 27 135 c 0,56,57
 24 143 24 143 22 153 c 128,-1,58
 20 163 20 163 18 173 c 0,59,60
 17 177 17 177 17 181 c 128,-1,61
 17 185 17 185 16 189 c 2,62,-1
 16 198 l 2,63,64
 15 202 15 202 15.5 211.5 c 128,-1,65
 16 221 16 221 17 225 c 0,66,67
 20 238 20 238 21 249.5 c 128,-1,68
 22 261 22 261 27 272 c 0,69,70
 36 294 36 294 48 312 c 128,-1,71
 60 330 60 330 77 343 c 0,72,73
 91 352 91 352 108 362 c 0,74,75
 112 365 112 365 116.5 368 c 128,-1,76
 121 371 121 371 123 376 c 0,77,78
 124 380 124 380 122.5 382.5 c 128,-1,79
 121 385 121 385 119 387 c 0,80,81
 111 395 111 395 98 403 c 0,82,83
 81 416 81 416 70 434.5 c 128,-1,84
 59 453 59 453 51 476 c 0,85,86
 43 498 43 498 45 527.5 c 128,-1,87
 47 557 47 557 54 577 c 0,88,89
 72 626 72 626 106 653.5 c 128,-1,90
 140 681 140 681 189 698 c 0,91,92
 202 703 202 703 216 705 c 128,-1,93
 230 707 230 707 245 710 c 0,94,95
 252 711 252 711 258.5 711.5 c 128,-1,96
 265 712 265 712 272 712 c 0,97,98
 323 714 323 714 362 702.5 c 128,-1,99
 401 691 401 691 430 670 c 0,100,101
 440 663 440 663 448.5 656 c 128,-1,102
 457 649 457 649 465 640 c 2,103,-1
 468 637 l 2,104,105
 472 632 472 632 476 626.5 c 128,-1,106
 480 621 480 621 484 616 c 0,107,108
 486 613 486 613 487.5 610 c 128,-1,109
 489 607 489 607 491 603 c 0,110,111
 504 582 504 582 510.5 546 c 128,-1,112
 517 510 517 510 507 478 c 0,113,114
 499 455 499 455 488 436.5 c 128,-1,115
 477 418 477 418 460 405 c 0,116,117
 455 401 455 401 449 397 c 128,-1,118
 443 393 443 393 439 388 c 0,119,120
 437 386 437 386 435 383.5 c 128,-1,121
 433 381 433 381 435 376 c 256,122,123
 437 371 437 371 440 368.5 c 128,-1,124
 443 366 443 366 447 364 c 0,125,126
 454 360 454 360 461 356.5 c 128,-1,127
 468 353 468 353 475 348 c 0,128,129
 510 324 510 324 528 281 c 0,130,131
 533 270 533 270 535 259 c 128,-1,132
 537 248 537 248 540 235 c 0,133,134
 540 231 540 231 540.5 228 c 128,-1,135
 541 225 541 225 541 221 c 0,0,1
180 546 m 0,136,137
 173 531 173 531 173 509.5 c 128,-1,138
 173 488 173 488 180 473 c 0,139,140
 188 455 188 455 202 443.5 c 128,-1,141
 216 432 216 432 235 424 c 0,142,143
 240 422 240 422 245 421.5 c 128,-1,144
 250 421 250 421 255 420 c 0,145,146
 266 417 266 417 283 417 c 128,-1,147
 300 417 300 417 311 420 c 0,148,149
 337 428 337 428 355 441.5 c 128,-1,150
 373 455 373 455 381 481 c 0,151,152
 383 488 383 488 385 500 c 128,-1,153
 387 512 387 512 385 521 c 0,154,155
 384 525 384 525 383.5 528 c 128,-1,156
 383 531 383 531 382 535 c 0,157,158
 380 543 380 543 377.5 550 c 128,-1,159
 375 557 375 557 371 564 c 0,160,161
 354 589 354 589 318 602 c 0,162,163
 313 604 313 604 307.5 604 c 128,-1,164
 302 604 302 604 297 606 c 0,165,166
 291 608 291 608 284 607 c 128,-1,167
 277 606 277 606 270 606 c 0,168,169
 268 604 268 604 264.5 605 c 128,-1,170
 261 606 261 606 258 605 c 0,171,172
 253 603 253 603 247.5 602.5 c 128,-1,173
 242 602 242 602 237 600 c 0,174,175
 217 592 217 592 202.5 579 c 128,-1,176
 188 566 188 566 180 546 c 0,136,137
399 188 m 0,177,178
 404 205 404 205 400 224.5 c 128,-1,179
 396 244 396 244 391 255 c 0,180,181
 377 287 377 287 348.5 304.5 c 128,-1,182
 320 322 320 322 275 323 c 0,183,184
 273 321 273 321 269 321.5 c 128,-1,185
 265 322 265 322 262 322 c 0,186,187
 255 320 255 320 248.5 319 c 128,-1,188
 242 318 242 318 236 316 c 0,189,190
 211 308 211 308 193 293.5 c 128,-1,191
 175 279 175 279 165 256 c 0,192,193
 163 250 163 250 161.5 243.5 c 128,-1,194
 160 237 160 237 158 229 c 0,195,196
 156 218 156 218 157 203.5 c 128,-1,197
 158 189 158 189 161 181 c 0,198,199
 164 170 164 170 168 160 c 0,200,201
 176 143 176 143 188.5 130 c 128,-1,202
 201 117 201 117 216 108 c 0,203,204
 221 106 221 106 225 104 c 128,-1,205
 229 102 229 102 234 100 c 256,206,207
 239 98 239 98 245.5 97 c 128,-1,208
 252 96 252 96 258 94 c 0,209,210
 262 93 262 93 270 93 c 0,211,212
 273 92 273 92 280.5 91.5 c 128,-1,213
 288 91 288 91 291 92 c 0,214,215
 301 94 301 94 310 95 c 128,-1,216
 319 96 319 96 327 100 c 0,217,218
 349 109 349 109 365.5 123.5 c 128,-1,219
 382 138 382 138 391 159 c 0,220,221
 394 166 394 166 395.5 173 c 128,-1,222
 397 180 397 180 399 188 c 0,177,178
EndSplineSet
EndChar

StartChar: nine
Encoding: 57 57 32
Width: 556
GlyphClass: 1
Flags: W
LayerCount: 2
Fore
SplineSet
532 375 m 0,0,1
 533 370 533 370 533 356 c 128,-1,2
 533 342 533 342 532 337 c 2,3,-1
 532 325 l 2,4,5
 531 320 531 320 531 314 c 128,-1,6
 531 308 531 308 530 303 c 256,7,8
 529 298 529 298 529 293.5 c 128,-1,9
 529 289 529 289 528 284 c 0,10,11
 526 272 526 272 525 260 c 128,-1,12
 524 248 524 248 521 237 c 0,13,14
 517 226 517 226 515 214.5 c 128,-1,15
 513 203 513 203 509 192 c 0,16,17
 501 170 501 170 492 149.5 c 128,-1,18
 483 129 483 129 472 111 c 0,19,20
 467 103 467 103 462 96 c 128,-1,21
 457 89 457 89 452 81 c 0,22,23
 449 77 449 77 445.5 74 c 128,-1,24
 442 71 442 71 439 66 c 0,25,26
 436 63 436 63 432 58 c 128,-1,27
 428 53 428 53 424 51 c 0,28,29
 416 44 416 44 407.5 37 c 128,-1,30
 399 30 399 30 390 25 c 0,31,32
 377 17 377 17 362.5 10.5 c 128,-1,33
 348 4 348 4 333 -1 c 0,34,35
 322 -4 322 -4 311 -5.5 c 128,-1,36
 300 -7 300 -7 288 -9 c 0,37,38
 283 -11 283 -11 277.5 -10 c 128,-1,39
 272 -9 272 -9 267 -10 c 0,40,41
 262 -12 262 -12 253 -11.5 c 128,-1,42
 244 -11 244 -11 239 -10 c 0,43,44
 235 -10 235 -10 231.5 -9.5 c 128,-1,45
 228 -9 228 -9 223 -9 c 0,46,47
 215 -7 215 -7 207 -6 c 128,-1,48
 199 -5 199 -5 192 -3 c 0,49,50
 181 1 181 1 171.5 3.5 c 128,-1,51
 162 6 162 6 153 10 c 0,52,53
 64 49 64 49 38 152 c 0,54,55
 36 158 36 158 38 165 c 0,56,57
 42 177 42 177 52 178.5 c 128,-1,58
 62 180 62 180 77 180 c 2,59,-1
 109 180 l 2,60,61
 117 180 117 180 128 181 c 128,-1,62
 139 182 139 182 146 180 c 0,63,64
 164 175 164 175 169 164 c 128,-1,65
 174 153 174 153 182 139 c 0,66,67
 188 130 188 130 198 120 c 128,-1,68
 208 110 208 110 221.5 103.5 c 128,-1,69
 235 97 235 97 251 94.5 c 128,-1,70
 267 92 267 92 284 97 c 0,71,72
 306 103 306 103 321.5 114.5 c 128,-1,73
 337 126 337 126 348 141.5 c 128,-1,74
 359 157 359 157 366.5 176.5 c 128,-1,75
 374 196 374 196 381 218 c 0,76,77
 383 224 383 224 384 231 c 128,-1,78
 385 238 385 238 387 245 c 0,79,80
 388 249 388 249 388 252 c 128,-1,81
 388 255 388 255 389 258 c 0,82,83
 390 263 390 263 390 269 c 128,-1,84
 390 275 390 275 388 279 c 0,85,86
 387 281 387 281 385.5 282 c 128,-1,87
 384 283 384 283 383 284 c 0,88,89
 374 285 374 285 369 281 c 128,-1,90
 364 277 364 277 359 273 c 0,91,92
 351 267 351 267 342 261 c 128,-1,93
 333 255 333 255 323 250 c 0,94,95
 309 243 309 243 290 238.5 c 128,-1,96
 271 234 271 234 250.5 233 c 128,-1,97
 230 232 230 232 209.5 234 c 128,-1,98
 189 236 189 236 173 242 c 0,99,100
 128 256 128 256 99.5 280 c 128,-1,101
 71 304 71 304 48 341 c 0,102,103
 41 353 41 353 37 367 c 128,-1,104
 33 381 33 381 28 395 c 0,105,106
 26 402 26 402 25 410 c 128,-1,107
 24 418 24 418 22 426 c 0,108,109
 22 430 22 430 21.5 433.5 c 128,-1,110
 21 437 21 437 21 441 c 0,111,112
 20 446 20 446 19.5 455 c 128,-1,113
 19 464 19 464 21 469 c 0,114,115
 22 474 22 474 21 479.5 c 128,-1,116
 20 485 20 485 22 490 c 0,117,118
 22 498 22 498 23 502 c 0,119,120
 25 513 25 513 26.5 522.5 c 128,-1,121
 28 532 28 532 32 542 c 0,122,123
 39 563 39 563 47.5 581.5 c 128,-1,124
 56 600 56 600 68 616 c 0,125,126
 72 623 72 623 77 628.5 c 128,-1,127
 82 634 82 634 87 640 c 0,128,129
 90 644 90 644 95.5 649 c 128,-1,130
 101 654 101 654 105 657 c 2,131,-1
 108 660 l 2,132,133
 113 664 113 664 118 668 c 128,-1,134
 123 672 123 672 129 675 c 0,135,136
 143 685 143 685 159.5 692 c 128,-1,137
 176 699 176 699 194 705 c 0,138,139
 204 708 204 708 214 709.5 c 128,-1,140
 224 711 224 711 235 713 c 0,141,142
 239 714 239 714 247.5 713.5 c 128,-1,143
 256 713 256 713 258 714 c 0,144,145
 309 715 309 715 347.5 703.5 c 128,-1,146
 386 692 386 692 415 670 c 128,-1,147
 444 648 444 648 465 618 c 128,-1,148
 486 588 486 588 501 553 c 0,149,150
 506 539 506 539 509.5 525.5 c 128,-1,151
 513 512 513 512 517 498 c 0,152,153
 519 491 519 491 520 484 c 128,-1,154
 521 477 521 477 523 470 c 0,155,156
 526 459 526 459 526.5 448.5 c 128,-1,157
 527 438 527 438 529 428 c 0,158,159
 530 423 530 423 529.5 419.5 c 128,-1,160
 529 416 529 416 530 412 c 0,161,162
 531 406 531 406 531 400.5 c 128,-1,163
 531 395 531 395 531 389 c 0,164,165
 532 386 532 386 531.5 382 c 128,-1,166
 531 378 531 378 532 375 c 0,0,1
379 438 m 0,167,168
 384 455 384 455 382 476.5 c 128,-1,169
 380 498 380 498 375 512 c 0,170,171
 362 549 362 549 336.5 573.5 c 128,-1,172
 311 598 311 598 262 598 c 0,173,174
 260 596 260 596 256 597 c 128,-1,175
 252 598 252 598 250 597 c 2,176,-1
 229 591 l 2,177,178
 203 580 203 580 188.5 558.5 c 128,-1,179
 174 537 174 537 166 509 c 0,180,181
 162 498 162 498 161 478.5 c 128,-1,182
 160 459 160 459 163 447 c 0,183,184
 165 439 165 439 165 433 c 128,-1,185
 165 427 165 427 167 421 c 0,186,187
 175 396 175 396 187 379.5 c 128,-1,188
 199 363 199 363 219 351 c 0,189,190
 225 347 225 347 232.5 344.5 c 128,-1,191
 240 342 240 342 248 340 c 0,192,193
 250 340 250 340 252.5 339.5 c 128,-1,194
 255 339 255 339 258 339 c 0,195,196
 261 338 261 338 265.5 337.5 c 128,-1,197
 270 337 270 337 273 338 c 0,198,199
 275 339 275 339 278.5 338.5 c 128,-1,200
 282 338 282 338 285 339 c 0,201,202
 291 341 291 341 297 342 c 128,-1,203
 303 343 303 343 309 345 c 0,204,205
 350 363 350 363 370 405 c 0,206,207
 373 413 373 413 375 421 c 128,-1,208
 377 429 377 429 379 438 c 0,167,168
EndSplineSet
EndChar

StartChar: colon
Encoding: 58 58 33
Width: 278
GlyphClass: 1
Flags: W
LayerCount: 2
Fore
SplineSet
61 461 m 2,0,1
 61 470 61 470 61 480 c 128,-1,2
 61 490 61 490 65 495 c 0,3,4
 69 502 69 502 80 506 c 0,5,6
 82 506 82 506 84.5 505.5 c 128,-1,7
 87 505 87 505 89 506 c 2,8,-1
 168 506 l 2,9,10
 180 506 180 506 190.5 506 c 128,-1,11
 201 506 201 506 208 501 c 0,12,13
 214 496 214 496 215 487 c 128,-1,14
 216 478 216 478 216 467 c 2,15,-1
 216 395 l 2,16,17
 216 384 216 384 215 374.5 c 128,-1,18
 214 365 214 365 209 361 c 0,19,20
 202 356 202 356 192 355 c 128,-1,21
 182 354 182 354 171 354 c 2,22,-1
 104 354 l 2,23,24
 93 354 93 354 83 355 c 128,-1,25
 73 356 73 356 68 362 c 256,26,27
 63 368 63 368 62 377.5 c 128,-1,28
 61 387 61 387 61 398 c 2,29,-1
 61 461 l 2,0,1
61 108 m 2,30,31
 61 117 61 117 61 127 c 128,-1,32
 61 137 61 137 65 142 c 0,33,34
 69 149 69 149 80 153 c 0,35,36
 82 153 82 153 84.5 152.5 c 128,-1,37
 87 152 87 152 89 153 c 2,38,-1
 168 153 l 2,39,40
 180 153 180 153 190.5 153 c 128,-1,41
 201 153 201 153 208 148 c 0,42,43
 214 143 214 143 215 134 c 128,-1,44
 216 125 216 125 216 114 c 2,45,-1
 216 42 l 2,46,47
 216 31 216 31 215 21.5 c 128,-1,48
 214 12 214 12 209 8 c 0,49,50
 202 3 202 3 192 2 c 128,-1,51
 182 1 182 1 171 1 c 2,52,-1
 104 1 l 2,53,54
 93 1 93 1 83 2 c 128,-1,55
 73 3 73 3 68 9 c 256,56,57
 63 15 63 15 62 24.5 c 128,-1,58
 61 34 61 34 61 45 c 2,59,-1
 61 108 l 2,30,31
EndSplineSet
EndChar

StartChar: semicolon
Encoding: 59 59 34
Width: 278
GlyphClass: 1
Flags: W
LayerCount: 2
Fore
SplineSet
61 461 m 2,0,1
 61 470 61 470 61 480 c 128,-1,2
 61 490 61 490 65 495 c 0,3,4
 69 502 69 502 80 506 c 0,5,6
 82 506 82 506 84.5 505.5 c 128,-1,7
 87 505 87 505 89 506 c 2,8,-1
 168 506 l 2,9,10
 180 506 180 506 190.5 506 c 128,-1,11
 201 506 201 506 208 501 c 0,12,13
 214 496 214 496 215 487 c 128,-1,14
 216 478 216 478 216 467 c 2,15,-1
 216 395 l 2,16,17
 216 384 216 384 215 374.5 c 128,-1,18
 214 365 214 365 209 361 c 0,19,20
 202 356 202 356 192 355 c 128,-1,21
 182 354 182 354 171 354 c 2,22,-1
 104 354 l 2,23,24
 93 354 93 354 83 355 c 128,-1,25
 73 356 73 356 68 362 c 256,26,27
 63 368 63 368 62 377.5 c 128,-1,28
 61 387 61 387 61 398 c 2,29,-1
 61 461 l 2,0,1
216 42 m 2,30,31
 216 25 216 25 216.5 4 c 128,-1,32
 217 -17 217 -17 213 -31 c 0,33,34
 204 -68 204 -68 187 -92.5 c 128,-1,35
 170 -117 170 -117 141 -134 c 0,36,37
 122 -147 122 -147 100 -154 c 0,38,39
 96 -156 96 -156 90 -158 c 128,-1,40
 84 -160 84 -160 79 -159 c 0,41,42
 71 -157 71 -157 67 -153 c 0,43,44
 62 -147 62 -147 61.5 -130.5 c 128,-1,45
 61 -114 61 -114 65 -105 c 0,46,47
 69 -95 69 -95 77.5 -90 c 128,-1,48
 86 -85 86 -85 94 -79 c 0,49,50
 110 -68 110 -68 122 -45 c 0,51,52
 124 -41 124 -41 127.5 -33 c 128,-1,53
 131 -25 131 -25 129 -18 c 0,54,55
 126 -4 126 -4 112 -1 c 0,56,57
 101 2 101 2 89.5 1 c 128,-1,58
 78 0 78 0 70 5 c 0,59,60
 64 10 64 10 62.5 20 c 128,-1,61
 61 30 61 30 61 41 c 2,62,-1
 61 107 l 2,63,64
 61 116 61 116 61 125.5 c 128,-1,65
 61 135 61 135 65 141 c 0,66,67
 70 149 70 149 81 152 c 0,68,69
 83 152 83 152 86 151.5 c 128,-1,70
 89 151 89 151 91 153 c 2,71,-1
 173 153 l 2,72,73
 185 153 185 153 195.5 152 c 128,-1,74
 206 151 206 151 211 143 c 0,75,76
 216 137 216 137 216 128 c 128,-1,77
 216 119 216 119 216 109 c 2,78,-1
 216 42 l 2,30,31
EndSplineSet
EndChar

StartChar: less
Encoding: 60 60 35
Width: 600
GlyphClass: 1
Flags: W
LayerCount: 2
Fore
SplineSet
90 178 m 0,0,1
 81 182 81 182 70.5 185 c 128,-1,2
 60 188 60 188 54 196 c 0,3,4
 46 207 46 207 46.5 230.5 c 128,-1,5
 47 254 47 254 47 273 c 0,6,7
 47 283 47 283 47.5 292 c 128,-1,8
 48 301 48 301 52 306 c 0,9,10
 57 314 57 314 66.5 318 c 128,-1,11
 76 322 76 322 85 326 c 0,12,13
 102 334 102 334 120 340 c 128,-1,14
 138 346 138 346 155 354 c 0,15,16
 224 383 224 383 294 409.5 c 128,-1,17
 364 436 364 436 433 465 c 0,18,19
 454 473 454 473 475.5 481 c 128,-1,20
 497 489 497 489 517 498 c 0,21,22
 525 501 525 501 535 502.5 c 128,-1,23
 545 504 545 504 550 496 c 0,24,25
 553 491 553 491 553 483.5 c 128,-1,26
 553 476 553 476 553 468 c 0,27,28
 553 451 553 451 554 431.5 c 128,-1,29
 555 412 555 412 547 402 c 0,30,31
 543 397 543 397 536.5 393.5 c 128,-1,32
 530 390 530 390 522 387 c 0,33,34
 511 382 511 382 499.5 378 c 128,-1,35
 488 374 488 374 477 369 c 0,36,37
 432 350 432 350 386.5 333 c 128,-1,38
 341 316 341 316 296 297 c 0,39,40
 279 289 279 289 261 283 c 128,-1,41
 243 277 243 277 227 269 c 0,42,43
 223 267 223 267 216 263 c 128,-1,44
 209 259 209 259 211 251 c 256,45,46
 213 243 213 243 220.5 240 c 128,-1,47
 228 237 228 237 235 234 c 0,48,49
 249 227 249 227 264.5 221.5 c 128,-1,50
 280 216 280 216 295 210 c 0,51,52
 337 192 337 192 378.5 176 c 128,-1,53
 420 160 420 160 462 143 c 0,54,55
 476 137 476 137 488.5 132 c 128,-1,56
 501 127 501 127 514 122 c 0,57,58
 522 119 522 119 529 116.5 c 128,-1,59
 536 114 536 114 541 109 c 0,60,61
 553 101 553 101 553 82 c 128,-1,62
 553 63 553 63 553 43 c 0,63,64
 553 35 553 35 553.5 27 c 128,-1,65
 554 19 554 19 552 13 c 0,66,67
 550 8 550 8 547.5 7 c 128,-1,68
 545 6 545 6 540 3 c 0,69,70
 527 2 527 2 517 7 c 128,-1,71
 507 12 507 12 497 16 c 0,72,73
 479 24 479 24 461 30.5 c 128,-1,74
 443 37 443 37 425 45 c 0,75,76
 411 50 411 50 397.5 55 c 128,-1,77
 384 60 384 60 370 66 c 0,78,79
 320 86 320 86 270 105.5 c 128,-1,80
 220 125 220 125 170 146 c 0,81,82
 150 154 150 154 130 162 c 128,-1,83
 110 170 110 170 90 178 c 0,0,1
EndSplineSet
EndChar

StartChar: equal
Encoding: 61 61 36
Width: 600
GlyphClass: 1
Flags: W
LayerCount: 2
Fore
SplineSet
54 403 m 0,0,1
 58 407 58 407 66 411 c 0,2,3
 68 411 68 411 71 411.5 c 128,-1,4
 74 412 74 412 76 412 c 2,5,-1
 502 412 l 2,6,7
 515 412 515 412 526 411.5 c 128,-1,8
 537 411 537 411 544 406 c 0,9,10
 552 400 552 400 552 381 c 128,-1,11
 552 362 552 362 552 348 c 0,12,13
 552 343 552 343 552.5 337 c 128,-1,14
 553 331 553 331 551 326 c 0,15,16
 548 315 548 315 541 311 c 0,17,18
 535 307 535 307 526 307 c 128,-1,19
 517 307 517 307 508 307 c 2,20,-1
 94 307 l 2,21,22
 84 307 84 307 74.5 307 c 128,-1,23
 65 307 65 307 59 311 c 0,24,25
 48 318 48 318 48.5 336.5 c 128,-1,26
 49 355 49 355 49 372 c 0,27,28
 49 381 49 381 49.5 389.5 c 128,-1,29
 50 398 50 398 54 403 c 0,0,1
543 193 m 0,30,31
 552 186 552 186 552 168 c 128,-1,32
 552 150 552 150 552 135 c 0,33,34
 552 129 552 129 552.5 123 c 128,-1,35
 553 117 553 117 551 112 c 0,36,37
 546 96 546 96 533 94.5 c 128,-1,38
 520 93 520 93 500 93 c 2,39,-1
 100 93 l 2,40,41
 91 93 91 93 81 92.5 c 128,-1,42
 71 92 71 92 63 95 c 0,43,44
 49 101 49 101 49 118.5 c 128,-1,45
 49 136 49 136 49 155 c 0,46,47
 49 165 49 165 49 174 c 128,-1,48
 49 183 49 183 54 189 c 0,49,50
 57 194 57 194 62 195 c 128,-1,51
 67 196 67 196 74 198 c 0,52,53
 78 199 78 199 83 197.5 c 128,-1,54
 88 196 88 196 91 198 c 2,55,-1
 480 198 l 2,56,57
 487 198 487 198 495 199 c 128,-1,58
 503 200 503 200 509 198 c 2,59,-1
 520 198 l 2,60,61
 537 198 537 198 543 193 c 0,30,31
EndSplineSet
EndChar

StartChar: greater
Encoding: 62 62 37
Width: 600
GlyphClass: 1
Flags: W
LayerCount: 2
Fore
SplineSet
510 328 m 0,0,1
 519 324 519 324 529.5 321 c 128,-1,2
 540 318 540 318 546 310 c 0,3,4
 554 299 554 299 553.5 275.5 c 128,-1,5
 553 252 553 252 553 233 c 0,6,7
 553 223 553 223 552.5 214 c 128,-1,8
 552 205 552 205 548 200 c 0,9,10
 543 192 543 192 533.5 188 c 128,-1,11
 524 184 524 184 515 180 c 0,12,13
 498 172 498 172 480 166 c 128,-1,14
 462 160 462 160 445 152 c 0,15,16
 376 123 376 123 306 96.5 c 128,-1,17
 236 70 236 70 167 41 c 0,18,19
 146 33 146 33 124.5 25 c 128,-1,20
 103 17 103 17 83 8 c 0,21,22
 75 5 75 5 65 3.5 c 128,-1,23
 55 2 55 2 50 10 c 0,24,25
 47 15 47 15 47 22.5 c 128,-1,26
 47 30 47 30 47 38 c 0,27,28
 47 55 47 55 46 74.5 c 128,-1,29
 45 94 45 94 53 104 c 0,30,31
 57 109 57 109 63.5 112.5 c 128,-1,32
 70 116 70 116 78 119 c 0,33,34
 89 124 89 124 100.5 128 c 128,-1,35
 112 132 112 132 123 137 c 0,36,37
 168 156 168 156 213.5 173 c 128,-1,38
 259 190 259 190 304 209 c 0,39,40
 321 217 321 217 339 223 c 128,-1,41
 357 229 357 229 373 237 c 0,42,43
 377 239 377 239 384 243 c 128,-1,44
 391 247 391 247 389 255 c 256,45,46
 387 263 387 263 379.5 266 c 128,-1,47
 372 269 372 269 365 272 c 0,48,49
 351 279 351 279 335.5 284.5 c 128,-1,50
 320 290 320 290 305 296 c 0,51,52
 263 314 263 314 221.5 330 c 128,-1,53
 180 346 180 346 138 363 c 0,54,55
 124 369 124 369 111.5 374 c 128,-1,56
 99 379 99 379 86 384 c 0,57,58
 78 387 78 387 71 389.5 c 128,-1,59
 64 392 64 392 59 397 c 0,60,61
 47 405 47 405 47 424 c 128,-1,62
 47 443 47 443 47 463 c 0,63,64
 47 471 47 471 46.5 479 c 128,-1,65
 46 487 46 487 48 493 c 0,66,67
 50 498 50 498 52.5 499 c 128,-1,68
 55 500 55 500 60 503 c 0,69,70
 73 504 73 504 83 499 c 128,-1,71
 93 494 93 494 103 490 c 0,72,73
 121 482 121 482 139 475.5 c 128,-1,74
 157 469 157 469 175 461 c 0,75,76
 189 456 189 456 202.5 451 c 128,-1,77
 216 446 216 446 230 440 c 0,78,79
 280 420 280 420 330 400.5 c 128,-1,80
 380 381 380 381 430 360 c 0,81,82
 450 352 450 352 470 344 c 128,-1,83
 490 336 490 336 510 328 c 0,0,1
EndSplineSet
EndChar

StartChar: question
Encoding: 63 63 38
Width: 556
GlyphClass: 1
Flags: W
LayerCount: 2
Fore
SplineSet
522 548 m 0,0,1
 524 543 524 543 524 534 c 128,-1,2
 524 525 524 525 522 519 c 0,3,4
 521 514 521 514 521.5 509.5 c 128,-1,5
 522 505 522 505 521 500 c 0,6,7
 518 487 518 487 515.5 475.5 c 128,-1,8
 513 464 513 464 508 453 c 0,9,10
 500 436 500 436 489 419 c 128,-1,11
 478 402 478 402 464 391 c 2,12,-1
 459 386 l 2,13,14
 451 380 451 380 443.5 373.5 c 128,-1,15
 436 367 436 367 428 361 c 0,16,17
 414 351 414 351 400.5 341 c 128,-1,18
 387 331 387 331 375 319 c 0,19,20
 355 299 355 299 346 271 c 0,21,22
 342 260 342 260 342 245.5 c 128,-1,23
 342 231 342 231 336 223 c 0,24,25
 332 219 332 219 327 218 c 128,-1,26
 322 217 322 217 316 215 c 2,27,-1
 291 215 l 2,28,29
 282 215 282 215 270 214.5 c 128,-1,30
 258 214 258 214 246.5 214.5 c 128,-1,31
 235 215 235 215 226 217 c 128,-1,32
 217 219 217 219 213 224 c 256,33,34
 209 229 209 229 208.5 236.5 c 128,-1,35
 208 244 208 244 208 252 c 2,36,-1
 208 260 l 2,37,38
 209 265 209 265 209.5 270 c 128,-1,39
 210 275 210 275 210 280 c 0,40,41
 214 293 214 293 216.5 305.5 c 128,-1,42
 219 318 219 318 224 329 c 0,43,44
 232 348 232 348 245 367 c 128,-1,45
 258 386 258 386 272 397 c 2,46,-1
 281 406 l 2,47,48
 288 411 288 411 293.5 415.5 c 128,-1,49
 299 420 299 420 305 425 c 0,50,51
 321 436 321 436 334 449 c 128,-1,52
 347 462 347 462 357 479 c 0,53,54
 361 486 361 486 364 497 c 128,-1,55
 367 508 367 508 367.5 520 c 128,-1,56
 368 532 368 532 366.5 544 c 128,-1,57
 365 556 365 556 361 565 c 0,58,59
 359 571 359 571 355.5 577 c 128,-1,60
 352 583 352 583 348 588 c 0,61,62
 342 596 342 596 332 601.5 c 128,-1,63
 322 607 322 607 311 611 c 0,64,65
 307 612 307 612 304 612 c 128,-1,66
 301 612 301 612 296 613 c 256,67,68
 291 614 291 614 284.5 614.5 c 128,-1,69
 278 615 278 615 273 614 c 0,70,71
 268 612 268 612 263 612.5 c 128,-1,72
 258 613 258 613 253 611 c 0,73,74
 210 596 210 596 192 556 c 0,75,76
 189 548 189 548 186.5 539.5 c 128,-1,77
 184 531 184 531 182 522 c 0,78,79
 179 511 179 511 177.5 502.5 c 128,-1,80
 176 494 176 494 168 489 c 0,81,82
 162 485 162 485 153 485 c 128,-1,83
 144 485 144 485 135 485 c 2,84,-1
 76 485 l 2,85,86
 66 485 66 485 57 485.5 c 128,-1,87
 48 486 48 486 43 490 c 256,88,89
 38 494 38 494 36 503 c 128,-1,90
 34 512 34 512 36 521 c 0,91,92
 37 527 37 527 38 532.5 c 128,-1,93
 39 538 39 538 40 544 c 0,94,95
 43 555 43 555 46 565.5 c 128,-1,96
 49 576 49 576 53 586 c 0,97,98
 55 591 55 591 57 596 c 128,-1,99
 59 601 59 601 62 606 c 0,100,101
 72 623 72 623 81 637 c 0,102,103
 95 657 95 657 114 672.5 c 128,-1,104
 133 688 133 688 155 702 c 0,105,106
 162 707 162 707 170 710 c 128,-1,107
 178 713 178 713 186 716 c 0,108,109
 199 721 199 721 212.5 723 c 128,-1,110
 226 725 226 725 241 728 c 0,111,112
 247 729 247 729 253.5 729.5 c 128,-1,113
 260 730 260 730 267 730 c 0,114,115
 323 732 323 732 366.5 720 c 128,-1,116
 410 708 410 708 442 685 c 0,117,118
 451 678 451 678 461 670 c 128,-1,119
 471 662 471 662 478 653 c 0,120,121
 482 648 482 648 486.5 642.5 c 128,-1,122
 491 637 491 637 494 632 c 0,123,124
 496 628 496 628 498 625 c 128,-1,125
 500 622 500 622 502 618 c 0,126,127
 509 607 509 607 512.5 594 c 128,-1,128
 516 581 516 581 520 567 c 0,129,130
 522 562 522 562 521.5 557.5 c 128,-1,131
 521 553 521 553 522 548 c 0,0,1
349 62 m 2,132,133
 349 55 349 55 350 48 c 128,-1,134
 351 41 351 41 349 35 c 2,135,-1
 349 25 l 2,136,137
 347 19 347 19 346 14 c 128,-1,138
 345 9 345 9 340 6 c 0,139,140
 334 2 334 2 325 1.5 c 128,-1,141
 316 1 316 1 305 1 c 2,142,-1
 235 1 l 2,143,144
 224 1 224 1 214 2 c 128,-1,145
 204 3 204 3 199 10 c 0,146,147
 195 16 195 16 194.5 25.5 c 128,-1,148
 194 35 194 35 194 45 c 2,149,-1
 194 110 l 2,150,151
 194 119 194 119 194.5 128.5 c 128,-1,152
 195 138 195 138 199 144 c 0,153,154
 204 150 204 150 213 152 c 0,155,156
 215 153 215 153 217 152.5 c 128,-1,157
 219 152 219 152 221 153 c 2,158,-1
 301 153 l 2,159,160
 312 153 312 153 323 153 c 128,-1,161
 334 153 334 153 340 148 c 0,162,163
 345 145 345 145 346 140 c 128,-1,164
 347 135 347 135 349 129 c 2,165,-1
 349 121 l 2,166,167
 350 116 350 116 349.5 111 c 128,-1,168
 349 106 349 106 349 101 c 2,169,-1
 349 62 l 2,132,133
EndSplineSet
EndChar

StartChar: at
Encoding: 64 64 39
Width: 800
GlyphClass: 1
Flags: W
LayerCount: 2
Fore
SplineSet
761 456 m 0,0,1
 763 450 763 450 764 436.5 c 128,-1,2
 765 423 765 423 763 415 c 0,3,4
 761 409 761 409 762.5 403.5 c 128,-1,5
 764 398 764 398 762 393 c 0,6,7
 761 389 761 389 761 385 c 128,-1,8
 761 381 761 381 760 377 c 0,9,10
 758 369 758 369 757 362 c 128,-1,11
 756 355 756 355 754 348 c 0,12,13
 753 345 753 345 752.5 341.5 c 128,-1,14
 752 338 752 338 751 335 c 0,15,16
 744 314 744 314 735 293 c 0,17,18
 732 285 732 285 728 278.5 c 128,-1,19
 724 272 724 272 719 265 c 0,20,21
 695 227 695 227 663 198.5 c 128,-1,22
 631 170 631 170 588 152 c 0,23,24
 578 147 578 147 565.5 143.5 c 128,-1,25
 553 140 553 140 539.5 139 c 128,-1,26
 526 138 526 138 512.5 139.5 c 128,-1,27
 499 141 499 141 489 147 c 0,28,29
 484 150 484 150 479.5 153.5 c 128,-1,30
 475 157 475 157 471 161 c 0,31,32
 467 166 467 166 463 170.5 c 128,-1,33
 459 175 459 175 451 177 c 0,34,35
 445 178 445 178 440 173 c 0,36,37
 432 168 432 168 426 163.5 c 128,-1,38
 420 159 420 159 413 154 c 0,39,40
 396 143 396 143 366.5 138 c 128,-1,41
 337 133 337 133 312 141 c 0,42,43
 266 155 266 155 239 184 c 128,-1,44
 212 213 212 213 197 258 c 0,45,46
 195 265 195 265 194 272.5 c 128,-1,47
 193 280 193 280 191 288 c 2,48,-1
 191 301 l 2,49,50
 189 309 189 309 191 317 c 2,51,-1
 191 326 l 2,52,53
 191 330 191 330 191.5 333.5 c 128,-1,54
 192 337 192 337 192 341 c 0,55,56
 194 352 194 352 195.5 362 c 128,-1,57
 197 372 197 372 200 382 c 0,58,59
 208 404 208 404 215.5 423.5 c 128,-1,60
 223 443 223 443 234 460 c 0,61,62
 241 470 241 470 248.5 479 c 128,-1,63
 256 488 256 488 264 497 c 0,64,65
 266 500 266 500 272 504 c 0,66,67
 274 506 274 506 275 507.5 c 128,-1,68
 276 509 276 509 278 511 c 0,69,70
 284 515 284 515 287 518 c 0,71,72
 301 528 301 528 316 536.5 c 128,-1,73
 331 545 331 545 349 551 c 0,74,75
 355 553 355 553 361.5 554.5 c 128,-1,76
 368 556 368 556 374 558 c 2,77,-1
 381 558 l 2,78,79
 389 560 389 560 403 560.5 c 128,-1,80
 417 561 417 561 426 559 c 0,81,82
 432 557 432 557 438 556.5 c 128,-1,83
 444 556 444 556 449 554 c 0,84,85
 473 546 473 546 491 533 c 0,86,87
 497 528 497 528 503 521.5 c 128,-1,88
 509 515 509 515 517 513 c 0,89,90
 522 511 522 511 526 514.5 c 128,-1,91
 530 518 530 518 532 520 c 0,92,93
 536 526 536 526 539 531.5 c 128,-1,94
 542 537 542 537 549 541 c 0,95,96
 551 543 551 543 554.5 543 c 128,-1,97
 558 543 558 543 561 544 c 2,98,-1
 567 544 l 2,99,100
 572 545 572 545 578.5 545 c 128,-1,101
 585 545 585 545 590 544 c 2,102,-1
 596 544 l 2,103,104
 602 542 602 542 607 540 c 128,-1,105
 612 538 612 538 614 533 c 256,106,107
 616 528 616 528 615 521.5 c 128,-1,108
 614 515 614 515 613 511 c 0,109,110
 609 499 609 499 607 486.5 c 128,-1,111
 605 474 605 474 601 463 c 0,112,113
 599 456 599 456 598 449.5 c 128,-1,114
 597 443 597 443 595 435 c 0,115,116
 588 412 588 412 583 387 c 128,-1,117
 578 362 578 362 571 339 c 0,118,119
 569 333 569 333 568 326.5 c 128,-1,120
 567 320 567 320 565 314 c 0,121,122
 561 303 561 303 559 291 c 128,-1,123
 557 279 557 279 554 267 c 0,124,125
 553 263 553 263 552 257.5 c 128,-1,126
 551 252 551 252 552 247 c 0,127,128
 554 236 554 236 558 231 c 128,-1,129
 562 226 562 226 573 224 c 0,130,131
 581 222 581 222 587 225 c 0,132,133
 592 225 592 225 597 228 c 0,134,135
 617 236 617 236 632 252 c 128,-1,136
 647 268 647 268 658 286 c 0,137,138
 666 300 666 300 671 316.5 c 128,-1,139
 676 333 676 333 681 350 c 0,140,141
 683 357 683 357 683.5 363.5 c 128,-1,142
 684 370 684 370 686 378 c 2,143,-1
 686 383 l 2,144,145
 687 390 687 390 687 397.5 c 128,-1,146
 687 405 687 405 687 413 c 0,147,148
 687 447 687 447 678 473 c 0,149,150
 676 479 676 479 675.5 484 c 128,-1,151
 675 489 675 489 673 494 c 0,152,153
 653 542 653 542 622 575 c 128,-1,154
 591 608 591 608 543 628 c 0,155,156
 523 636 523 636 497 643 c 0,157,158
 492 645 492 645 487.5 645 c 128,-1,159
 483 645 483 645 478 646 c 0,160,161
 464 650 464 650 449 651 c 128,-1,162
 434 652 434 652 417 652 c 0,163,164
 409 652 409 652 400.5 652 c 128,-1,165
 392 652 392 652 385 650 c 256,166,167
 378 648 378 648 371.5 648.5 c 128,-1,168
 365 649 365 649 359 647 c 0,169,170
 344 643 344 643 329.5 639.5 c 128,-1,171
 315 636 315 636 301 631 c 0,172,173
 259 613 259 613 228 585.5 c 128,-1,174
 197 558 197 558 174 521 c 0,175,176
 162 501 162 501 154.5 478.5 c 128,-1,177
 147 456 147 456 139 431 c 0,178,179
 138 426 138 426 138 422 c 128,-1,180
 138 418 138 418 136 413 c 0,181,182
 133 399 133 399 132 381.5 c 128,-1,183
 131 364 131 364 131.5 346 c 128,-1,184
 132 328 132 328 134.5 311 c 128,-1,185
 137 294 137 294 140 282 c 0,186,187
 144 268 144 268 147 255.5 c 128,-1,188
 150 243 150 243 156 230 c 0,189,190
 178 179 178 179 215.5 143 c 128,-1,191
 253 107 253 107 304 85 c 0,192,193
 320 79 320 79 336.5 75.5 c 128,-1,194
 353 72 353 72 371 67 c 0,195,196
 380 65 380 65 389.5 65 c 128,-1,197
 399 65 399 65 408 63 c 2,198,-1
 422 63 l 2,199,200
 426 62 426 62 433.5 62 c 128,-1,201
 441 62 441 62 446 64 c 2,202,-1
 453 64 l 2,203,204
 458 65 458 65 464 65 c 128,-1,205
 470 65 470 65 475 67 c 0,206,207
 483 69 483 69 489 69 c 128,-1,208
 495 69 495 69 502 71 c 0,209,210
 513 74 513 74 523 76 c 128,-1,211
 533 78 533 78 542 82 c 0,212,213
 548 85 548 85 554 88 c 128,-1,214
 560 91 560 91 566 93 c 0,215,216
 576 96 576 96 582 100 c 0,217,218
 590 105 590 105 597 109 c 128,-1,219
 604 113 604 113 611 118 c 256,220,221
 618 123 618 123 624.5 128.5 c 128,-1,222
 631 134 631 134 639 139 c 0,223,224
 647 143 647 143 663 145 c 128,-1,225
 679 147 679 147 691 144 c 0,226,227
 697 142 697 142 702 141 c 128,-1,228
 707 140 707 140 709 135 c 0,229,230
 711 133 711 133 710 129.5 c 128,-1,231
 709 126 709 126 708 124 c 0,232,233
 705 118 705 118 701.5 114 c 128,-1,234
 698 110 698 110 694 105 c 256,235,236
 690 100 690 100 686 96 c 128,-1,237
 682 92 682 92 677 87 c 0,238,239
 672 83 672 83 668.5 78.5 c 128,-1,240
 665 74 665 74 660 70 c 0,241,242
 649 62 649 62 638 54.5 c 128,-1,243
 627 47 627 47 615 39 c 0,244,245
 580 16 580 16 537 3 c 0,246,247
 529 0 529 0 521 -2 c 128,-1,248
 513 -4 513 -4 505 -6 c 0,249,250
 494 -9 494 -9 483.5 -9.5 c 128,-1,251
 473 -10 473 -10 462 -13 c 0,252,253
 457 -13 457 -13 453 -13 c 128,-1,254
 449 -13 449 -13 444 -14 c 256,255,256
 439 -15 439 -15 426.5 -15.5 c 128,-1,257
 414 -16 414 -16 408 -14 c 2,258,-1
 389 -14 l 2,259,260
 380 -12 380 -12 370 -11.5 c 128,-1,261
 360 -11 360 -11 351 -9 c 0,262,263
 337 -5 337 -5 324 -3 c 128,-1,264
 311 -1 311 -1 299 4 c 0,265,266
 245 22 245 22 201 50 c 0,267,268
 191 56 191 56 182 63 c 128,-1,269
 173 70 173 70 164 78 c 0,270,271
 162 80 162 80 160.5 81.5 c 128,-1,272
 159 83 159 83 157 85 c 0,273,274
 137 101 137 101 119 125 c 0,275,276
 113 133 113 133 106 141.5 c 128,-1,277
 99 150 99 150 94 159 c 0,278,279
 80 179 80 179 70 202 c 128,-1,280
 60 225 60 225 52 251 c 0,281,282
 47 264 47 264 45.5 277.5 c 128,-1,283
 44 291 44 291 40 305 c 0,284,285
 40 311 40 311 39.5 316.5 c 128,-1,286
 39 322 39 322 38 328 c 2,287,-1
 38 335 l 2,288,289
 36 341 36 341 36 352 c 128,-1,290
 36 363 36 363 38 369 c 2,291,-1
 38 387 l 2,292,293
 40 396 40 396 40.5 406 c 128,-1,294
 41 416 41 416 43 424 c 0,295,296
 44 428 44 428 44 430.5 c 128,-1,297
 44 433 44 433 45 437 c 0,298,299
 49 449 49 449 51.5 461.5 c 128,-1,300
 54 474 54 474 59 485 c 0,301,302
 70 511 70 511 81.5 533 c 128,-1,303
 93 555 93 555 108 576 c 0,304,305
 113 584 113 584 120 592 c 128,-1,306
 127 600 127 600 134 608 c 2,307,-1
 142 616 l 2,308,309
 145 620 145 620 149 623.5 c 128,-1,310
 153 627 153 627 158 631 c 0,311,312
 160 633 160 633 163 636 c 128,-1,313
 166 639 166 639 169 641 c 0,314,315
 183 652 183 652 196.5 661.5 c 128,-1,316
 210 671 210 671 224 680 c 0,317,318
 244 692 244 692 265.5 700 c 128,-1,319
 287 708 287 708 310 716 c 0,320,321
 324 721 324 721 339.5 722.5 c 128,-1,322
 355 724 355 724 371 728 c 0,323,324
 379 729 379 729 387.5 729.5 c 128,-1,325
 396 730 396 730 404 730 c 0,326,327
 477 732 477 732 531 714 c 128,-1,328
 585 696 585 696 630 668 c 0,329,330
 638 663 638 663 645.5 656.5 c 128,-1,331
 653 650 653 650 661 645 c 0,332,333
 663 643 663 643 665 641 c 128,-1,334
 667 639 667 639 669 637 c 0,335,336
 681 628 681 628 690 616 c 0,337,338
 693 611 693 611 697 607.5 c 128,-1,339
 701 604 701 604 705 599 c 0,340,341
 714 586 714 586 722.5 572.5 c 128,-1,342
 731 559 731 559 738 545 c 0,343,344
 745 530 745 530 749.5 513.5 c 128,-1,345
 754 497 754 497 759 480 c 0,346,347
 761 474 761 474 760.5 468.5 c 128,-1,348
 760 463 760 463 761 456 c 0,0,1
492 365 m 0,349,350
 494 373 494 373 493 384 c 128,-1,351
 492 395 492 395 490 402 c 0,352,353
 483 427 483 427 469.5 442 c 128,-1,354
 456 457 456 457 431 465 c 0,355,356
 426 467 426 467 419 466.5 c 128,-1,357
 412 466 412 466 405 466 c 0,358,359
 403 465 403 465 401.5 465.5 c 128,-1,360
 400 466 400 466 398 465 c 0,361,362
 393 464 393 464 389 463 c 128,-1,363
 385 462 385 462 380 460 c 0,364,365
 361 452 361 452 343 437 c 0,366,367
 338 433 338 433 333 427 c 128,-1,368
 328 421 328 421 324 416 c 0,369,370
 307 391 307 391 297 363 c 0,371,372
 296 354 296 354 292 341 c 0,373,374
 290 329 290 329 291.5 310.5 c 128,-1,375
 293 292 293 292 297 283 c 0,376,377
 305 263 305 263 317.5 251 c 128,-1,378
 330 239 330 239 351 233 c 0,379,380
 368 228 368 228 387.5 232.5 c 128,-1,381
 407 237 407 237 418 244 c 0,382,383
 446 261 446 261 462 285.5 c 128,-1,384
 478 310 478 310 488 345 c 0,385,386
 489 350 489 350 490 355 c 128,-1,387
 491 360 491 360 492 365 c 0,349,350
EndSplineSet
EndChar

StartChar: A
Encoding: 65 65 40
Width: 685
GlyphClass: 1
Flags: W
LayerCount: 2
Fore
SplineSet
673 48 m 0,0,1
 674 44 674 44 676.5 38 c 128,-1,2
 679 32 679 32 680.5 25.5 c 128,-1,3
 682 19 682 19 681 13 c 128,-1,4
 680 7 680 7 674 4 c 0,5,6
 666 -1 666 -1 647.5 0 c 128,-1,7
 629 1 629 1 617 1 c 2,8,-1
 570 1 l 2,9,10
 562 1 562 1 555.5 0.5 c 128,-1,11
 549 0 549 0 543 2 c 0,12,13
 532 5 532 5 527 14 c 0,14,15
 522 22 522 22 519.5 31 c 128,-1,16
 517 40 517 40 513 49 c 0,17,18
 508 65 508 65 502.5 81 c 128,-1,19
 497 97 497 97 491 112 c 0,20,21
 488 121 488 121 485.5 128.5 c 128,-1,22
 483 136 483 136 480 142 c 128,-1,23
 477 148 477 148 471 152.5 c 128,-1,24
 465 157 465 157 455 159 c 0,25,26
 450 159 450 159 445.5 159.5 c 128,-1,27
 441 160 441 160 436 160 c 2,28,-1
 278 160 l 2,29,30
 261 160 261 160 241.5 160.5 c 128,-1,31
 222 161 222 161 211 153 c 0,32,33
 203 147 203 147 200 137 c 128,-1,34
 197 127 197 127 193 117 c 0,35,36
 185 100 185 100 179.5 81.5 c 128,-1,37
 174 63 174 63 167 45 c 0,38,39
 163 35 163 35 159.5 24 c 128,-1,40
 156 13 156 13 148 7 c 0,41,42
 143 3 143 3 133.5 1.5 c 128,-1,43
 124 0 124 0 112.5 0 c 128,-1,44
 101 0 101 0 89 0.5 c 128,-1,45
 77 1 77 1 68 1 c 0,46,47
 55 1 55 1 36.5 0.5 c 128,-1,48
 18 0 18 0 10 5 c 0,49,50
 5 8 5 8 4.5 14 c 128,-1,51
 4 20 4 20 5.5 26.5 c 128,-1,52
 7 33 7 33 9 39 c 128,-1,53
 11 45 11 45 13 49 c 0,54,55
 23 72 23 72 31.5 96 c 128,-1,56
 40 120 40 120 49 143 c 0,57,58
 53 151 53 151 55 159 c 128,-1,59
 57 167 57 167 61 175 c 0,60,61
 69 196 69 196 77 218 c 128,-1,62
 85 240 85 240 93 261 c 0,63,64
 101 281 101 281 108 300.5 c 128,-1,65
 115 320 115 320 123 340 c 0,66,67
 146 395 146 395 165.5 451 c 128,-1,68
 185 507 185 507 208 562 c 0,69,70
 210 567 210 567 211 571 c 128,-1,71
 212 575 212 575 214 580 c 0,72,73
 222 601 222 601 230 623 c 128,-1,74
 238 645 238 645 247 666 c 0,75,76
 252 677 252 677 255.5 688.5 c 128,-1,77
 259 700 259 700 268 707 c 0,78,79
 273 710 273 710 281 712 c 0,80,81
 283 713 283 713 285 712.5 c 128,-1,82
 287 712 287 712 289 713 c 2,83,-1
 377 713 l 2,84,85
 388 713 388 713 399.5 713.5 c 128,-1,86
 411 714 411 714 418 709 c 0,87,88
 429 703 429 703 432.5 691.5 c 128,-1,89
 436 680 436 680 441 668 c 0,90,91
 448 651 448 651 454 634.5 c 128,-1,92
 460 618 460 618 467 601 c 0,93,94
 469 595 469 595 471 589 c 128,-1,95
 473 583 473 583 475 577 c 0,96,97
 483 557 483 557 490 537.5 c 128,-1,98
 497 518 497 518 505 498 c 0,99,100
 525 448 525 448 542.5 397 c 128,-1,101
 560 346 560 346 581 296 c 0,102,103
 583 292 583 292 583.5 288.5 c 128,-1,104
 584 285 584 285 586 281 c 0,105,106
 592 265 592 265 598 249 c 128,-1,107
 604 233 604 233 610 217 c 0,108,109
 614 209 614 209 616 201.5 c 128,-1,110
 618 194 618 194 621 186 c 0,111,112
 634 154 634 154 645 122 c 128,-1,113
 656 90 656 90 669 59 c 0,114,115
 671 56 671 56 671 53.5 c 128,-1,116
 671 51 671 51 673 48 c 0,0,1
414 277 m 0,117,118
 427 282 427 282 426 294 c 128,-1,119
 425 306 425 306 420 317 c 0,120,121
 418 321 418 321 418 324.5 c 128,-1,122
 418 328 418 328 416 332 c 0,123,124
 403 366 403 366 392 401 c 128,-1,125
 381 436 381 436 367 471 c 0,126,127
 365 476 365 476 363 483.5 c 128,-1,128
 361 491 361 491 358 497.5 c 128,-1,129
 355 504 355 504 351 509 c 128,-1,130
 347 514 347 514 341 514 c 0,131,132
 339 512 339 512 337 511 c 128,-1,133
 335 510 335 510 333 508 c 0,134,135
 325 498 325 498 321.5 484 c 128,-1,136
 318 470 318 470 313 457 c 0,137,138
 301 429 301 429 291.5 400 c 128,-1,139
 282 371 282 371 271 342 c 0,140,141
 267 332 267 332 264 322.5 c 128,-1,142
 261 313 261 313 258 302 c 0,143,144
 255 294 255 294 259 284 c 0,145,146
 264 277 264 277 275.5 276 c 128,-1,147
 287 275 287 275 299 275 c 2,148,-1
 375 275 l 2,149,150
 384 275 384 275 395 275 c 128,-1,151
 406 275 406 275 414 277 c 0,117,118
EndSplineSet
EndChar

StartChar: B
Encoding: 66 66 41
Width: 704
GlyphClass: 1
Flags: W
LayerCount: 2
Fore
SplineSet
665 224 m 2,0,1
 667 213 667 213 665.5 195 c 128,-1,2
 664 177 664 177 662 167 c 256,3,4
 660 157 660 157 658 148 c 128,-1,5
 656 139 656 139 653 131 c 0,6,7
 632 81 632 81 588 49 c 0,8,9
 571 37 571 37 551.5 28.5 c 128,-1,10
 532 20 532 20 510 13 c 0,11,12
 499 9 499 9 487 7.5 c 128,-1,13
 475 6 475 6 464 4 c 0,14,15
 459 3 459 3 454.5 3 c 128,-1,16
 450 3 450 3 445 2 c 0,17,18
 441 1 441 1 436.5 2 c 128,-1,19
 432 3 432 3 427 1 c 0,20,21
 423 0 423 0 418.5 0.5 c 128,-1,22
 414 1 414 1 409 1 c 2,23,-1
 117 1 l 2,24,25
 100 1 100 1 88.5 2.5 c 128,-1,26
 77 4 77 4 72 16 c 0,27,28
 69 24 69 24 69.5 40.5 c 128,-1,29
 70 57 70 57 70 68 c 2,30,-1
 70 655 l 2,31,32
 70 667 70 667 69.5 680.5 c 128,-1,33
 69 694 69 694 74 702 c 0,34,35
 78 709 78 709 89 712 c 0,36,37
 91 713 91 713 93 712.5 c 128,-1,38
 95 712 95 712 97 713 c 2,39,-1
 395 713 l 2,40,41
 402 713 402 713 409 713.5 c 128,-1,42
 416 714 416 714 422 713 c 0,43,44
 427 711 427 711 432 712 c 128,-1,45
 437 713 437 713 442 712 c 2,46,-1
 448 712 l 2,47,48
 454 710 454 710 460.5 710.5 c 128,-1,49
 467 711 467 711 474 709 c 0,50,51
 482 707 482 707 489.5 706 c 128,-1,52
 497 705 497 705 505 703 c 0,53,54
 524 696 524 696 541 689.5 c 128,-1,55
 558 683 558 683 572 673 c 0,56,57
 592 659 592 659 605 638 c 128,-1,58
 618 617 618 617 626 590 c 0,59,60
 628 583 628 583 628.5 576 c 128,-1,61
 629 569 629 569 631 561 c 0,62,63
 632 557 632 557 631.5 553 c 128,-1,64
 631 549 631 549 632 545 c 0,65,66
 633 542 633 542 632.5 537.5 c 128,-1,67
 632 533 632 533 631 531 c 2,68,-1
 631 522 l 2,69,70
 631 519 631 519 630.5 515 c 128,-1,71
 630 511 630 511 630 509 c 0,72,73
 628 502 628 502 627.5 496.5 c 128,-1,74
 627 491 627 491 625 486 c 0,75,76
 612 450 612 450 591 427 c 0,77,78
 584 420 584 420 576 415 c 128,-1,79
 568 410 568 410 562 402 c 0,80,81
 560 400 560 400 557.5 396.5 c 128,-1,82
 555 393 555 393 557 388 c 0,83,84
 559 380 559 380 570 374.5 c 128,-1,85
 581 369 581 369 589 364 c 0,86,87
 616 346 616 346 633 322 c 0,88,89
 649 299 649 299 658 268 c 0,90,91
 661 260 661 260 662 251.5 c 128,-1,92
 663 243 663 243 665 235 c 2,93,-1
 665 224 l 2,0,1
230 582 m 0,94,95
 225 575 225 575 225 564.5 c 128,-1,96
 225 554 225 554 225 543 c 2,97,-1
 225 489 l 2,98,99
 225 482 225 482 224.5 474.5 c 128,-1,100
 224 467 224 467 225 462 c 2,101,-1
 225 452 l 2,102,103
 227 446 227 446 228 441.5 c 128,-1,104
 229 437 229 437 231 433 c 0,105,106
 235 428 235 428 243.5 426 c 128,-1,107
 252 424 252 424 262.5 423.5 c 128,-1,108
 273 423 273 423 284 423.5 c 128,-1,109
 295 424 295 424 304 424 c 0,110,111
 319 424 319 424 335.5 423.5 c 128,-1,112
 352 423 352 423 368.5 423 c 128,-1,113
 385 423 385 423 400 424.5 c 128,-1,114
 415 426 415 426 426 430 c 0,115,116
 456 440 456 440 471 465 c 0,117,118
 478 478 478 478 480 499 c 0,119,120
 482 533 482 533 470 552.5 c 128,-1,121
 458 572 458 572 435 583 c 0,122,123
 429 585 429 585 422 586.5 c 128,-1,124
 415 588 415 588 407 590 c 0,125,126
 403 591 403 591 395 591 c 0,127,128
 383 594 383 594 367.5 593.5 c 128,-1,129
 352 593 352 593 338 593 c 2,130,-1
 253 593 l 2,131,132
 251 592 251 592 248.5 592 c 128,-1,133
 246 592 246 592 244 591 c 0,134,135
 234 588 234 588 230 582 c 0,94,95
510 208 m 2,136,137
 512 222 512 222 508.5 238 c 128,-1,138
 505 254 505 254 501 262 c 0,139,140
 487 298 487 298 446 312 c 0,141,142
 429 317 429 317 408.5 318 c 128,-1,143
 388 319 388 319 366 319 c 2,144,-1
 253 319 l 2,145,146
 251 317 251 317 249.5 317.5 c 128,-1,147
 248 318 248 318 246 318 c 0,148,149
 234 315 234 315 230 308 c 0,150,151
 225 300 225 300 225 287.5 c 128,-1,152
 225 275 225 275 225 264 c 2,153,-1
 225 175 l 2,154,155
 225 163 225 163 225.5 150.5 c 128,-1,156
 226 138 226 138 231 131 c 0,157,158
 235 126 235 126 244 123.5 c 128,-1,159
 253 121 253 121 264.5 120.5 c 128,-1,160
 276 120 276 120 288 120.5 c 128,-1,161
 300 121 300 121 309 121 c 0,162,163
 339 121 339 121 367 120.5 c 128,-1,164
 395 120 395 120 420 123.5 c 128,-1,165
 445 127 445 127 464.5 135.5 c 128,-1,166
 484 144 484 144 496 162 c 0,167,168
 501 170 501 170 504 180.5 c 128,-1,169
 507 191 507 191 510 202 c 2,170,-1
 510 208 l 2,136,137
EndSplineSet
EndChar

StartChar: C
Encoding: 67 67 42
Width: 741
GlyphClass: 1
Flags: W
LayerCount: 2
Fore
SplineSet
375 730 m 0,0,1
 480 732 480 732 548 694 c 128,-1,2
 616 656 616 656 656 593 c 0,3,4
 667 576 667 576 674 558.5 c 128,-1,5
 681 541 681 541 687 520 c 0,6,7
 689 513 689 513 691 504 c 128,-1,8
 693 495 693 495 690 487 c 0,9,10
 688 481 688 481 682.5 479.5 c 128,-1,11
 677 478 677 478 670 476 c 2,12,-1
 662 476 l 2,13,14
 656 474 656 474 648.5 474.5 c 128,-1,15
 641 475 641 475 634 475 c 0,16,17
 625 475 625 475 612.5 474.5 c 128,-1,18
 600 474 600 474 588 474.5 c 128,-1,19
 576 475 576 475 566 476.5 c 128,-1,20
 556 478 556 478 551 481 c 0,21,22
 543 488 543 488 539 500 c 128,-1,23
 535 512 535 512 529 521 c 0,24,25
 510 554 510 554 479 573 c 0,26,27
 458 586 458 586 432 594 c 0,28,29
 415 600 415 600 389.5 600 c 128,-1,30
 364 600 364 600 345 595 c 0,31,32
 337 593 337 593 330.5 591.5 c 128,-1,33
 324 590 324 590 317 587 c 0,34,35
 249 558 249 558 221 491 c 0,36,37
 216 479 216 479 212 466 c 128,-1,38
 208 453 208 453 203 439 c 0,39,40
 202 432 202 432 201 426 c 128,-1,41
 200 420 200 420 199 413 c 0,42,43
 197 407 197 407 197.5 400.5 c 128,-1,44
 198 394 198 394 196 387 c 0,45,46
 194 379 194 379 194.5 370.5 c 128,-1,47
 195 362 195 362 195 354 c 0,48,49
 195 350 195 350 194.5 346 c 128,-1,50
 194 342 194 342 195 338 c 2,51,-1
 195 329 l 2,52,53
 197 324 197 324 196.5 319 c 128,-1,54
 196 314 196 314 198 309 c 0,55,56
 198 303 198 303 200 293 c 0,57,58
 202 282 202 282 204 272.5 c 128,-1,59
 206 263 206 263 209 254 c 0,60,61
 223 212 223 212 245 182.5 c 128,-1,62
 267 153 267 153 303 134 c 0,63,64
 314 129 314 129 326 125.5 c 128,-1,65
 338 122 338 122 352 118 c 0,66,67
 357 117 357 117 361.5 116.5 c 128,-1,68
 366 116 366 116 371 116 c 2,69,-1
 379 116 l 2,70,71
 384 114 384 114 392 114.5 c 128,-1,72
 400 115 400 115 405 116 c 0,73,74
 411 116 411 116 414 117 c 0,75,76
 426 119 426 119 436.5 121 c 128,-1,77
 447 123 447 123 457 128 c 0,78,79
 480 138 480 138 496.5 154.5 c 128,-1,80
 513 171 513 171 526 192 c 0,81,82
 532 202 532 202 536 214 c 128,-1,83
 540 226 540 226 545 238 c 0,84,85
 548 249 548 249 551 258 c 128,-1,86
 554 267 554 267 564 272 c 0,87,88
 570 274 570 274 579 274 c 128,-1,89
 588 274 588 274 596 274 c 2,90,-1
 657 274 l 2,91,92
 666 274 666 274 675.5 274 c 128,-1,93
 685 274 685 274 691 270 c 0,94,95
 698 265 698 265 698.5 254 c 128,-1,96
 699 243 699 243 696 233 c 2,97,-1
 690 206 l 2,98,99
 685 191 685 191 680.5 177 c 128,-1,100
 676 163 676 163 669 150 c 0,101,102
 664 142 664 142 661 134.5 c 128,-1,103
 658 127 658 127 653 120 c 0,104,105
 598 34 598 34 493 0 c 0,106,107
 482 -4 482 -4 471 -6 c 128,-1,108
 460 -8 460 -8 449 -10 c 0,109,110
 444 -12 444 -12 439.5 -11.5 c 128,-1,111
 435 -11 435 -11 430 -13 c 0,112,113
 423 -13 423 -13 416.5 -13.5 c 128,-1,114
 410 -14 410 -14 403 -15 c 2,115,-1
 387 -15 l 2,116,117
 378 -15 378 -15 369 -15 c 128,-1,118
 360 -15 360 -15 352 -13 c 0,119,120
 349 -12 349 -12 342 -12 c 0,121,122
 335 -11 335 -11 328 -10 c 128,-1,123
 321 -9 321 -9 313 -8 c 0,124,125
 303 -5 303 -5 293.5 -3 c 128,-1,126
 284 -1 284 -1 274 2 c 0,127,128
 265 5 265 5 256 8.5 c 128,-1,129
 247 12 247 12 239 16 c 0,130,131
 179 42 179 42 137.5 85.5 c 128,-1,132
 96 129 96 129 70 189 c 0,133,134
 64 204 64 204 60 219 c 128,-1,135
 56 234 56 234 51 250 c 0,136,137
 49 255 49 255 49 258.5 c 128,-1,138
 49 262 49 262 48 266 c 0,139,140
 46 275 46 275 45 285 c 128,-1,141
 44 295 44 295 42 304 c 0,142,143
 40 309 40 309 40.5 312.5 c 128,-1,144
 41 316 41 316 40 320 c 2,145,-1
 40 339 l 2,146,147
 38 344 38 344 38 354 c 128,-1,148
 38 364 38 364 40 369 c 0,149,150
 41 372 41 372 40.5 375.5 c 128,-1,151
 40 379 40 379 40 381 c 2,152,-1
 40 390 l 2,153,154
 42 398 42 398 42.5 407 c 128,-1,155
 43 416 43 416 44 425 c 0,156,157
 46 433 46 433 47 440.5 c 128,-1,158
 48 448 48 448 50 456 c 0,159,160
 54 470 54 470 57 483.5 c 128,-1,161
 60 497 60 497 65 509 c 0,162,163
 70 522 70 522 75.5 535 c 128,-1,164
 81 548 81 548 88 559 c 0,165,166
 104 587 104 587 121 609 c 0,167,168
 126 616 126 616 132 622 c 128,-1,169
 138 628 138 628 144 634 c 0,170,171
 169 659 169 659 196.5 676.5 c 128,-1,172
 224 694 224 694 259 708 c 0,173,174
 271 713 271 713 284 716.5 c 128,-1,175
 297 720 297 720 311 723 c 0,176,177
 317 725 317 725 323 725 c 128,-1,178
 329 725 329 725 334 727 c 0,179,180
 342 728 342 728 349.5 728.5 c 128,-1,181
 357 729 357 729 365 730 c 0,182,183
 367 731 367 731 370 730 c 128,-1,184
 373 729 373 729 375 730 c 0,0,1
EndSplineSet
EndChar

StartChar: D
Encoding: 68 68 43
Width: 741
GlyphClass: 1
Flags: W
LayerCount: 2
Fore
SplineSet
699 380 m 2,0,1
 699 377 699 377 699.5 372 c 128,-1,2
 700 367 700 367 700 361 c 128,-1,3
 700 355 700 355 699.5 350 c 128,-1,4
 699 345 699 345 699 343 c 0,5,6
 699 336 699 336 698.5 329.5 c 128,-1,7
 698 323 698 323 698 317 c 0,8,9
 696 312 696 312 696.5 307 c 128,-1,10
 697 302 697 302 696 297 c 0,11,12
 694 286 694 286 693 275 c 128,-1,13
 692 264 692 264 689 253 c 0,14,15
 684 236 684 236 680 220.5 c 128,-1,16
 676 205 676 205 670 190 c 0,17,18
 653 148 653 148 628 114 c 128,-1,19
 603 80 603 80 568 56 c 0,20,21
 548 42 548 42 526.5 32 c 128,-1,22
 505 22 505 22 480 14 c 0,23,24
 470 11 470 11 459.5 9.5 c 128,-1,25
 449 8 449 8 438 5 c 0,26,27
 433 4 433 4 428.5 4 c 128,-1,28
 424 4 424 4 419 3 c 0,29,30
 415 2 415 2 411 2.5 c 128,-1,31
 407 3 407 3 402 2 c 0,32,33
 400 1 400 1 396 1.5 c 128,-1,34
 392 2 392 2 390 1 c 0,35,36
 382 -1 382 -1 370 0 c 128,-1,37
 358 1 358 1 349 1 c 2,38,-1
 116 1 l 2,39,40
 99 1 99 1 87.5 2.5 c 128,-1,41
 76 4 76 4 71 16 c 0,42,43
 68 24 68 24 68.5 40.5 c 128,-1,44
 69 57 69 57 69 68 c 2,45,-1
 69 655 l 2,46,47
 69 667 69 667 68.5 680.5 c 128,-1,48
 68 694 68 694 73 702 c 0,49,50
 77 708 77 708 88 712 c 0,51,52
 90 713 90 713 92 712.5 c 128,-1,53
 94 712 94 712 96 713 c 2,54,-1
 365 713 l 2,55,56
 371 713 371 713 377.5 713.5 c 128,-1,57
 384 714 384 714 389 713 c 2,58,-1
 401 713 l 2,59,60
 406 711 406 711 412 711.5 c 128,-1,61
 418 712 418 712 423 710 c 0,62,63
 429 708 429 708 434.5 708.5 c 128,-1,64
 440 709 440 709 446 707 c 0,65,66
 460 704 460 704 473 701.5 c 128,-1,67
 486 699 486 699 498 694 c 0,68,69
 509 689 509 689 520 685 c 128,-1,70
 531 681 531 681 541 675 c 0,71,72
 566 659 566 659 587 644 c 1,73,-1
 593 638 l 2,74,75
 603 630 603 630 611 620 c 2,76,-1
 620 612 l 2,77,78
 625 604 625 604 631.5 596.5 c 128,-1,79
 638 589 638 589 643 581 c 0,80,81
 656 560 656 560 666 536.5 c 128,-1,82
 676 513 676 513 684 487 c 0,83,84
 689 474 689 474 690.5 460 c 128,-1,85
 692 446 692 446 695 432 c 0,86,87
 695 427 695 427 695.5 423.5 c 128,-1,88
 696 420 696 420 696 416 c 0,89,90
 698 410 698 410 697.5 403 c 128,-1,91
 697 396 697 396 699 391 c 2,92,-1
 699 380 l 2,0,1
543 332 m 2,93,94
 545 337 545 337 545 348 c 128,-1,95
 545 359 545 359 543 364 c 2,96,-1
 543 383 l 2,97,98
 541 392 541 392 540.5 402 c 128,-1,99
 540 412 540 412 538 420 c 0,100,101
 536 425 536 425 536.5 429.5 c 128,-1,102
 537 434 537 434 535 439 c 0,103,104
 530 455 530 455 525.5 469.5 c 128,-1,105
 521 484 521 484 513 497 c 0,106,107
 498 521 498 521 478.5 538.5 c 128,-1,108
 459 556 459 556 431 568 c 0,109,110
 422 571 422 571 413 573.5 c 128,-1,111
 404 576 404 576 395 578 c 0,112,113
 387 579 387 579 380.5 579.5 c 128,-1,114
 374 580 374 580 366 582 c 0,115,116
 362 583 362 583 358 582.5 c 128,-1,117
 354 582 354 582 351 583 c 2,118,-1
 329 583 l 2,119,120
 324 584 324 584 318 583.5 c 128,-1,121
 312 583 312 583 306 583 c 2,122,-1
 261 583 l 2,123,124
 259 581 259 581 254.5 582 c 128,-1,125
 250 583 250 583 247 582 c 0,126,127
 242 580 242 580 237 578.5 c 128,-1,128
 232 577 232 577 229 572 c 0,129,130
 225 567 225 567 225 558 c 128,-1,131
 225 549 225 549 225 538 c 0,132,133
 225 525 225 525 224.5 511 c 128,-1,134
 224 497 224 497 224 483 c 2,135,-1
 224 204 l 2,136,137
 224 198 224 198 223.5 191 c 128,-1,138
 223 184 223 184 225 179 c 2,139,-1
 225 169 l 2,140,141
 225 162 225 162 225.5 155.5 c 128,-1,142
 226 149 226 149 228 144 c 0,143,144
 234 132 234 132 251 131.5 c 128,-1,145
 268 131 268 131 286 131 c 0,146,147
 325 131 325 131 365 131.5 c 128,-1,148
 405 132 405 132 433 143 c 0,149,150
 470 158 470 158 491.5 183 c 128,-1,151
 513 208 513 208 528 245 c 0,152,153
 532 253 532 253 534 263 c 128,-1,154
 536 273 536 273 539 283 c 2,155,-1
 539 291 l 2,156,157
 541 298 541 298 541 306 c 128,-1,158
 541 314 541 314 543 322 c 2,159,-1
 543 332 l 2,93,94
EndSplineSet
EndChar

StartChar: E
Encoding: 69 69 44
Width: 648
GlyphClass: 1
Flags: W
LayerCount: 2
Fore
SplineSet
96 713 m 2,0,-1
 470 713 l 1,1,-1
 557 713 l 2,2,3
 569 713 569 713 580 712 c 128,-1,4
 591 711 591 711 596 704 c 0,5,6
 598 701 598 701 598.5 697 c 128,-1,7
 599 693 599 693 601 689 c 2,8,-1
 601 678 l 2,9,10
 602 671 602 671 601.5 663 c 128,-1,11
 601 655 601 655 601 648 c 0,12,13
 601 640 601 640 601.5 632.5 c 128,-1,14
 602 625 602 625 601 618 c 0,15,16
 600 613 600 613 600 603 c 0,17,18
 597 591 597 591 590 587 c 0,19,20
 584 583 584 583 575 583 c 128,-1,21
 566 583 566 583 556 583 c 2,22,-1
 487 583 l 1,23,-1
 306 583 l 2,24,25
 298 583 298 583 287.5 583.5 c 128,-1,26
 277 584 277 584 266.5 583.5 c 128,-1,27
 256 583 256 583 247 581.5 c 128,-1,28
 238 580 238 580 234 577 c 0,29,30
 227 572 227 572 225.5 562.5 c 128,-1,31
 224 553 224 553 224 541 c 2,32,-1
 224 484 l 1,33,-1
 224 455 l 2,34,35
 226 447 226 447 228 441.5 c 128,-1,36
 230 436 230 436 235 433 c 0,37,38
 241 429 241 429 249 428.5 c 128,-1,39
 257 428 257 428 266 428 c 2,40,-1
 320 428 l 1,41,-1
 492 428 l 2,42,43
 499 428 499 428 509.5 428.5 c 128,-1,44
 520 429 520 429 530 428.5 c 128,-1,45
 540 428 540 428 548.5 427 c 128,-1,46
 557 426 557 426 561 423 c 0,47,48
 566 420 566 420 568 411 c 128,-1,49
 570 402 570 402 570.5 391.5 c 128,-1,50
 571 381 571 381 570.5 370 c 128,-1,51
 570 359 570 359 570 351 c 0,52,53
 570 344 570 344 570 337 c 128,-1,54
 570 330 570 330 568 325 c 0,55,56
 566 317 566 317 560 312 c 0,57,58
 555 309 555 309 546.5 308 c 128,-1,59
 538 307 538 307 527.5 307 c 128,-1,60
 517 307 517 307 506.5 307.5 c 128,-1,61
 496 308 496 308 489 308 c 2,62,-1
 294 308 l 2,63,64
 282 308 282 308 271 308.5 c 128,-1,65
 260 309 260 309 250.5 307.5 c 128,-1,66
 241 306 241 306 234.5 301.5 c 128,-1,67
 228 297 228 297 225 288 c 0,68,69
 224 283 224 283 224 277.5 c 128,-1,70
 224 272 224 272 224 267 c 2,71,-1
 224 229 l 1,72,-1
 224 173 l 2,73,74
 224 161 224 161 225.5 151.5 c 128,-1,75
 227 142 227 142 234 137 c 0,76,77
 237 134 237 134 241.5 133.5 c 128,-1,78
 246 133 246 133 251 131 c 2,79,-1
 261 131 l 2,80,81
 266 130 266 130 272 130.5 c 128,-1,82
 278 131 278 131 283 131 c 2,83,-1
 325 131 l 1,84,-1
 513 131 l 1,85,-1
 566 131 l 2,86,87
 574 131 574 131 581.5 131 c 128,-1,88
 589 131 589 131 595 128 c 0,89,90
 603 125 603 125 606 117 c 0,91,92
 608 112 608 112 608.5 105 c 128,-1,93
 609 98 609 98 609 90 c 2,94,-1
 609 44 l 2,95,96
 609 32 609 32 608 21.5 c 128,-1,97
 607 11 607 11 599 6 c 0,98,99
 593 1 593 1 583.5 1 c 128,-1,100
 574 1 574 1 563 1 c 2,101,-1
 488 1 l 1,102,-1
 192 1 l 1,103,-1
 113 1 l 2,104,105
 99 1 99 1 88.5 2.5 c 128,-1,106
 78 4 78 4 73 12 c 0,107,108
 69 18 69 18 69 27.5 c 128,-1,109
 69 37 69 37 69 46 c 2,110,-1
 69 118 l 1,111,-1
 69 390 l 1,112,-1
 69 608 l 1,113,-1
 69 670 l 2,114,115
 69 679 69 679 69 688 c 128,-1,116
 69 697 69 697 73 702 c 0,117,118
 77 709 77 709 88 712 c 0,119,120
 90 713 90 713 92 712.5 c 128,-1,121
 94 712 94 712 96 713 c 2,0,-1
EndSplineSet
EndChar

StartChar: F
Encoding: 70 70 45
Width: 593
GlyphClass: 1
Flags: W
LayerCount: 2
Fore
SplineSet
96 712 m 2,0,-1
 446 712 l 1,1,-1
 527 712 l 2,2,3
 538 712 538 712 548 711 c 128,-1,4
 558 710 558 710 563 704 c 0,5,6
 567 699 567 699 568.5 690.5 c 128,-1,7
 570 682 570 682 570 671.5 c 128,-1,8
 570 661 570 661 569.5 650.5 c 128,-1,9
 569 640 569 640 569 631 c 0,10,11
 569 624 569 624 569.5 617 c 128,-1,12
 570 610 570 610 569 604 c 0,13,14
 567 599 567 599 565.5 594.5 c 128,-1,15
 564 590 564 590 560 587 c 0,16,17
 552 581 552 581 532.5 581.5 c 128,-1,18
 513 582 513 582 499 582 c 2,19,-1
 306 582 l 2,20,21
 290 582 290 582 267.5 582.5 c 128,-1,22
 245 583 245 583 235 577 c 0,23,24
 229 573 229 573 225 562 c 0,25,26
 223 555 223 555 223.5 544 c 128,-1,27
 224 533 224 533 224 525 c 2,28,-1
 224 477 l 2,29,30
 224 472 224 472 223.5 465 c 128,-1,31
 223 458 223 458 224 453 c 2,32,-1
 224 442 l 2,33,34
 226 433 226 433 228.5 427 c 128,-1,35
 231 421 231 421 239 418 c 0,36,37
 244 416 244 416 251 415.5 c 128,-1,38
 258 415 258 415 266 415 c 2,39,-1
 304 415 l 1,40,-1
 443 415 l 2,41,42
 451 415 451 415 461.5 415.5 c 128,-1,43
 472 416 472 416 482.5 415.5 c 128,-1,44
 493 415 493 415 501.5 414 c 128,-1,45
 510 413 510 413 514 410 c 0,46,47
 524 403 524 403 523.5 383.5 c 128,-1,48
 523 364 523 364 523 348 c 0,49,50
 523 340 523 340 523.5 330.5 c 128,-1,51
 524 321 524 321 522 313 c 0,52,53
 518 302 518 302 511 298 c 256,54,55
 504 294 504 294 484 294.5 c 128,-1,56
 464 295 464 295 451 295 c 2,57,-1
 287 295 l 2,58,59
 268 295 268 295 250 294 c 128,-1,60
 232 293 232 293 227 280 c 0,61,62
 225 277 225 277 225 273.5 c 128,-1,63
 225 270 225 270 224 267 c 2,64,-1
 224 257 l 1,65,-1
 224 242 l 1,66,-1
 224 215 l 1,67,-1
 224 74 l 2,68,69
 224 60 224 60 224.5 39.5 c 128,-1,70
 225 19 225 19 220 10 c 0,71,72
 217 5 217 5 212 3.5 c 128,-1,73
 207 2 207 2 202 0 c 0,74,75
 195 -2 195 -2 187 -1 c 128,-1,76
 179 0 179 0 171 0 c 2,77,-1
 113 0 l 2,78,79
 102 0 102 0 92.5 0.5 c 128,-1,80
 83 1 83 1 77 6 c 0,81,82
 70 11 70 11 69.5 21.5 c 128,-1,83
 69 32 69 32 69 43 c 2,84,-1
 69 129 l 1,85,-1
 69 495 l 1,86,-1
 69 641 l 2,87,88
 69 655 69 655 68.5 674 c 128,-1,89
 68 693 68 693 73 701 c 0,90,91
 77 708 77 708 88 711 c 0,92,93
 90 712 90 712 92 711.5 c 128,-1,94
 94 711 94 711 96 712 c 2,0,-1
EndSplineSet
EndChar

StartChar: G
Encoding: 71 71 46
Width: 759
GlyphClass: 1
Flags: W
LayerCount: 2
Fore
SplineSet
375 731 m 0,0,1
 476 733 476 733 544 695 c 128,-1,2
 612 657 612 657 650 597 c 0,3,4
 669 565 669 565 681 523 c 0,5,6
 683 516 683 516 684 505.5 c 128,-1,7
 685 495 685 495 680 490 c 0,8,9
 675 483 675 483 666 482 c 128,-1,10
 657 481 657 481 646 481 c 2,11,-1
 581 481 l 2,12,13
 570 481 570 481 560.5 481.5 c 128,-1,14
 551 482 551 482 545 487 c 0,15,16
 536 493 536 493 532.5 504 c 128,-1,17
 529 515 529 515 524 525 c 0,18,19
 515 539 515 539 505 551.5 c 128,-1,20
 495 564 495 564 481 574 c 0,21,22
 462 587 462 587 435 595 c 0,23,24
 430 597 430 597 424 597.5 c 128,-1,25
 418 598 418 598 413 599 c 0,26,27
 410 600 410 600 404 600 c 0,28,29
 392 602 392 602 374 600.5 c 128,-1,30
 356 599 356 599 346 597 c 0,31,32
 339 595 339 595 333 594 c 128,-1,33
 327 593 327 593 321 590 c 0,34,35
 295 579 295 579 274.5 564 c 128,-1,36
 254 549 254 549 239 526 c 0,37,38
 225 507 225 507 217 485 c 128,-1,39
 209 463 209 463 202 438 c 0,40,41
 199 427 199 427 198 416 c 128,-1,42
 197 405 197 405 195 394 c 2,43,-1
 195 381 l 2,44,45
 193 375 193 375 193.5 368 c 128,-1,46
 194 361 194 361 194 354 c 0,47,48
 194 337 194 337 195 320 c 128,-1,49
 196 303 196 303 200 288 c 0,50,51
 201 284 201 284 201 281 c 128,-1,52
 201 278 201 278 202 274 c 0,53,54
 216 223 216 223 240 187.5 c 128,-1,55
 264 152 264 152 309 132 c 0,56,57
 318 128 318 128 327.5 125 c 128,-1,58
 337 122 337 122 348 119 c 0,59,60
 354 118 354 118 359.5 118.5 c 128,-1,61
 365 119 365 119 370 117 c 0,62,63
 376 115 376 115 385 115 c 128,-1,64
 394 115 394 115 401 117 c 0,65,66
 406 118 406 118 410 117.5 c 128,-1,67
 414 117 414 117 418 118 c 0,68,69
 423 119 423 119 426.5 118.5 c 128,-1,70
 430 118 430 118 434 120 c 0,71,72
 448 124 448 124 460 127.5 c 128,-1,73
 472 131 472 131 483 137 c 0,74,75
 508 152 508 152 523 171.5 c 128,-1,76
 538 191 538 191 549 220 c 0,77,78
 553 231 553 231 554.5 246 c 128,-1,79
 556 261 556 261 545 267 c 0,80,81
 539 271 539 271 529.5 271 c 128,-1,82
 520 271 520 271 511 271 c 2,83,-1
 460 271 l 2,84,85
 454 271 454 271 447 270.5 c 128,-1,86
 440 270 440 270 434 272 c 2,87,-1
 425 272 l 2,88,89
 421 273 421 273 417 273.5 c 128,-1,90
 413 274 413 274 410 276 c 0,91,92
 405 280 405 280 403 288 c 128,-1,93
 401 296 401 296 400.5 305.5 c 128,-1,94
 400 315 400 315 400.5 325.5 c 128,-1,95
 401 336 401 336 401 345 c 0,96,97
 401 353 401 353 401.5 360 c 128,-1,98
 402 367 402 367 404 372 c 0,99,100
 408 381 408 381 415 384 c 0,101,102
 421 386 421 386 425 386 c 2,103,-1
 436 386 l 2,104,105
 439 387 439 387 443.5 387 c 128,-1,106
 448 387 448 387 452 387 c 2,107,-1
 481 387 l 1,108,-1
 627 387 l 2,109,110
 644 387 644 387 665.5 387 c 128,-1,111
 687 387 687 387 694 378 c 0,112,113
 699 370 699 370 699 357 c 128,-1,114
 699 344 699 344 699 332 c 2,115,-1
 699 228 l 1,116,-1
 699 64 l 2,117,118
 699 45 699 45 698.5 27.5 c 128,-1,119
 698 10 698 10 685 5 c 0,120,121
 679 2 679 2 670.5 2 c 128,-1,122
 662 2 662 2 654 2 c 0,123,124
 634 2 634 2 619.5 3.5 c 128,-1,125
 605 5 605 5 599 19 c 0,126,127
 595 28 595 28 593 39 c 128,-1,128
 591 50 591 50 586 58 c 0,129,130
 584 60 584 60 581 62.5 c 128,-1,131
 578 65 578 65 573 64 c 0,132,133
 565 62 565 62 559.5 56 c 128,-1,134
 554 50 554 50 548 45 c 0,135,136
 538 37 538 37 529 30.5 c 128,-1,137
 520 24 520 24 509 17 c 0,138,139
 496 9 496 9 481.5 4 c 128,-1,140
 467 -1 467 -1 452 -6 c 0,141,142
 447 -8 447 -8 441.5 -8.5 c 128,-1,143
 436 -9 436 -9 431 -10 c 0,144,145
 423 -12 423 -12 414 -12 c 128,-1,146
 405 -12 405 -12 396 -14 c 0,147,148
 392 -15 392 -15 384.5 -14.5 c 128,-1,149
 377 -14 377 -14 374 -13 c 2,150,-1
 364 -13 l 2,151,152
 359 -12 359 -12 354.5 -12 c 128,-1,153
 350 -12 350 -12 345 -11 c 2,154,-1
 337 -11 l 2,155,156
 329 -9 329 -9 321 -8 c 128,-1,157
 313 -7 313 -7 305 -5 c 0,158,159
 298 -3 298 -3 291 -1.5 c 128,-1,160
 284 0 284 0 277 2 c 0,161,162
 247 11 247 11 224 23 c 0,163,164
 165 54 165 54 128 96.5 c 128,-1,165
 91 139 91 139 65 202 c 0,166,167
 59 216 59 216 56 230 c 128,-1,168
 53 244 53 244 48 258 c 0,169,170
 47 263 47 263 47 266.5 c 128,-1,171
 47 270 47 270 45 275 c 0,172,173
 43 282 43 282 43 289.5 c 128,-1,174
 43 297 43 297 41 305 c 0,175,176
 39 310 39 310 39.5 313.5 c 128,-1,177
 40 317 40 317 39 322 c 2,178,-1
 39 340 l 2,179,180
 37 345 37 345 37 355.5 c 128,-1,181
 37 366 37 366 39 371 c 2,182,-1
 39 382 l 2,183,184
 40 388 40 388 39.5 394.5 c 128,-1,185
 39 401 39 401 41 406 c 0,186,187
 43 415 43 415 43 424 c 128,-1,188
 43 433 43 433 45 441 c 0,189,190
 48 452 48 452 50 462.5 c 128,-1,191
 52 473 52 473 56 484 c 0,192,193
 61 498 61 498 65.5 511.5 c 128,-1,194
 70 525 70 525 76 538 c 0,195,196
 82 552 82 552 90 565.5 c 128,-1,197
 98 579 98 579 106 591 c 0,198,199
 136 633 136 633 174 662.5 c 128,-1,200
 212 692 212 692 266 712 c 0,201,202
 277 717 277 717 290 719.5 c 128,-1,203
 303 722 303 722 316 725 c 0,204,205
 321 727 321 727 326.5 727 c 128,-1,206
 332 727 332 727 337 729 c 0,207,208
 344 731 344 731 350.5 730 c 128,-1,209
 357 729 357 729 364 731 c 0,210,211
 366 732 366 732 369.5 731 c 128,-1,212
 373 730 373 730 375 731 c 0,0,1
EndSplineSet
EndChar

StartChar: H
Encoding: 72 72 47
Width: 741
GlyphClass: 1
Flags: W
LayerCount: 2
Fore
SplineSet
97 713 m 2,0,-1
 177 713 l 2,1,2
 194 713 194 713 206.5 711.5 c 128,-1,3
 219 710 219 710 224 696 c 0,4,5
 226 691 226 691 226 685.5 c 128,-1,6
 226 680 226 680 226 675 c 2,7,-1
 226 640 l 1,8,-1
 226 519 l 2,9,10
 226 502 226 502 225 480.5 c 128,-1,11
 224 459 224 459 232 448 c 0,12,13
 237 442 237 442 243.5 441.5 c 128,-1,14
 250 441 250 441 258 439 c 2,15,-1
 450 439 l 2,16,17
 468 439 468 439 487 439.5 c 128,-1,18
 506 440 506 440 513 452 c 0,19,20
 518 461 518 461 517 479 c 128,-1,21
 516 497 516 497 516 511 c 2,22,-1
 516 641 l 2,23,24
 516 656 516 656 515.5 676 c 128,-1,25
 515 696 515 696 522 704 c 0,26,27
 525 709 525 709 534.5 711 c 128,-1,28
 544 713 544 713 556 713.5 c 128,-1,29
 568 714 568 714 580 713.5 c 128,-1,30
 592 713 592 713 601 713 c 0,31,32
 618 713 618 713 636.5 713.5 c 128,-1,33
 655 714 655 714 664 706 c 0,34,35
 671 701 671 701 671 689.5 c 128,-1,36
 671 678 671 678 671 667 c 2,37,-1
 671 569 l 1,38,-1
 671 160 l 1,39,-1
 671 51 l 2,40,41
 671 39 671 39 671 26 c 128,-1,42
 671 13 671 13 664 8 c 0,43,44
 655 0 655 0 635.5 0.5 c 128,-1,45
 616 1 616 1 599 1 c 0,46,47
 590 1 590 1 578.5 0.5 c 128,-1,48
 567 0 567 0 555.5 0.5 c 128,-1,49
 544 1 544 1 534.5 2.5 c 128,-1,50
 525 4 525 4 522 9 c 0,51,52
 519 13 519 13 517.5 22.5 c 128,-1,53
 516 32 516 32 515.5 42.5 c 128,-1,54
 515 53 515 53 515.5 63.5 c 128,-1,55
 516 74 516 74 516 82 c 2,56,-1
 516 227 l 1,57,-1
 516 256 l 2,58,59
 516 260 516 260 516.5 264 c 128,-1,60
 517 268 517 268 516 272 c 2,61,-1
 516 282 l 2,62,63
 515 285 515 285 515 288 c 128,-1,64
 515 291 515 291 514 294 c 0,65,66
 507 308 507 308 488 308 c 128,-1,67
 469 308 469 308 449 308 c 2,68,-1
 252 308 l 2,69,70
 244 306 244 306 239 304.5 c 128,-1,71
 234 303 234 303 230 297 c 0,72,73
 228 292 228 292 226 282 c 2,74,-1
 226 272 l 2,75,76
 225 267 225 267 225.5 260.5 c 128,-1,77
 226 254 226 254 226 249 c 2,78,-1
 226 205 l 1,79,-1
 226 67 l 2,80,81
 226 52 226 52 226 35 c 128,-1,82
 226 18 226 18 220 9 c 0,83,84
 217 4 217 4 207.5 2.5 c 128,-1,85
 198 1 198 1 186.5 0.5 c 128,-1,86
 175 0 175 0 163 0.5 c 128,-1,87
 151 1 151 1 142 1 c 0,88,89
 128 1 128 1 108 0.5 c 128,-1,90
 88 0 88 0 80 6 c 256,91,92
 72 12 72 12 71 25 c 128,-1,93
 70 38 70 38 70 52 c 2,94,-1
 70 167 l 1,95,-1
 70 567 l 1,96,-1
 70 660 l 2,97,98
 70 671 70 671 70 683 c 128,-1,99
 70 695 70 695 74 702 c 256,100,101
 78 709 78 709 88 712 c 0,102,103
 90 712 90 712 92.5 712.5 c 128,-1,104
 95 713 95 713 97 713 c 2,0,-1
EndSplineSet
EndChar

StartChar: I
Encoding: 73 73 48
Width: 295
GlyphClass: 1
Flags: W
LayerCount: 2
Fore
SplineSet
95 712 m 2,0,-1
 181 712 l 2,1,2
 192 712 192 712 202 711.5 c 128,-1,3
 212 711 212 711 217 704 c 256,4,5
 222 697 222 697 222.5 686 c 128,-1,6
 223 675 223 675 223 662 c 2,7,-1
 223 575 l 1,8,-1
 223 228 l 1,9,-1
 223 64 l 2,10,11
 223 51 223 51 223.5 35 c 128,-1,12
 224 19 224 19 219 11 c 0,13,14
 215 4 215 4 201 0 c 0,15,16
 194 -2 194 -2 186 -1 c 128,-1,17
 178 0 178 0 170 0 c 2,18,-1
 111 0 l 2,19,20
 100 0 100 0 90.5 1 c 128,-1,21
 81 2 81 2 75 7 c 0,22,23
 70 12 70 12 69 22 c 128,-1,24
 68 32 68 32 68 43 c 2,25,-1
 68 130 l 1,26,-1
 68 495 l 1,27,-1
 68 641 l 2,28,29
 68 655 68 655 67.5 674 c 128,-1,30
 67 693 67 693 72 701 c 0,31,32
 76 707 76 707 85 711 c 0,33,34
 88 711 88 711 90.5 711.5 c 128,-1,35
 93 712 93 712 95 712 c 2,0,-1
EndSplineSet
EndChar

StartChar: J
Encoding: 74 74 49
Width: 556
GlyphClass: 1
Flags: W
LayerCount: 2
Fore
SplineSet
358 713 m 2,0,-1
 443 713 l 2,1,2
 454 713 454 713 464 712 c 128,-1,3
 474 711 474 711 479 706 c 0,4,5
 483 701 483 701 484.5 691.5 c 128,-1,6
 486 682 486 682 486.5 671 c 128,-1,7
 487 660 487 660 486.5 649 c 128,-1,8
 486 638 486 638 486 629 c 2,9,-1
 486 428 l 1,10,-1
 486 258 l 2,11,12
 486 235 486 235 486.5 210.5 c 0,13,14
 487 179 487 179 482 166 c 0,15,16
 480 161 480 161 480.5 156.5 c 128,-1,17
 481 152 481 152 479 147 c 0,18,19
 476 138 476 138 474 128.5 c 128,-1,20
 472 119 472 119 468 110 c 0,21,22
 446 55 446 55 405 26 c 0,23,24
 391 16 391 16 374.5 9 c 0,25,26
 349 -2 349 -2 340 -4 c 0,27,28
 332 -6 332 -6 324.5 -7.5 c 128,-1,29
 317 -9 317 -9 309 -11 c 256,30,31
 301 -13 301 -13 291.5 -13 c 128,-1,32
 282 -13 282 -13 273 -15 c 2,33,-1
 262 -15 l 2,34,35
 253 -18 253 -18 245.5 -16.5 c 0,36,37
 235 -15 235 -15 229 -14 c 0,38,39
 218 -13 218 -13 213 -13 c 0,40,41
 203 -11 203 -11 193.5 -10 c 128,-1,42
 184 -9 184 -9 176 -7 c 0,43,44
 165 -3 165 -3 154 0 c 128,-1,45
 143 3 143 3 133 8 c 0,46,47
 101 22 101 22 75 46.5 c 0,48,49
 47 73 47 73 35 103 c 0,50,51
 31 113 31 113 28 123 c 0,52,53
 22 143 22 143 22 144 c 0,54,55
 21 152 21 152 20 156 c 0,56,57
 18 161 18 161 18.5 165 c 128,-1,58
 19 169 19 169 17 174 c 0,59,60
 16 176 16 176 16 179.5 c 128,-1,61
 16 183 16 183 16 185 c 2,62,-1
 16 195 l 2,63,64
 15 200 15 200 15 205.5 c 128,-1,65
 15 211 15 211 15 216 c 0,66,67
 15 230 15 230 16 242.5 c 128,-1,68
 17 255 17 255 25 260 c 256,69,70
 33 265 33 265 46.5 265 c 128,-1,71
 60 265 60 265 72 265 c 0,72,73
 81 265 81 265 93 265.5 c 128,-1,74
 105 266 105 266 116.5 265.5 c 128,-1,75
 128 265 128 265 137.5 263 c 128,-1,76
 147 261 147 261 150 256 c 0,77,78
 157 246 157 246 155.5 230 c 0,79,80
 154 210 154 210 157 200 c 0,81,82
 159 194 159 194 159.5 188.5 c 128,-1,83
 160 183 160 183 162 177 c 0,84,85
 166 163 166 163 172 151.5 c 128,-1,86
 178 140 178 140 189 132 c 0,87,88
 201 123 201 123 222 117 c 0,89,90
 249 109 249 109 265 116 c 0,91,92
 270 118 270 118 274 118 c 128,-1,93
 278 118 278 118 282 120 c 0,94,95
 312 133 312 133 322 161 c 0,96,97
 325 170 325 170 327 179.5 c 0,98,99
 330 189 330 189 330 200 c 0,100,101
 330 206 330 206 330 211.5 c 128,-1,102
 330 217 330 217 331 223 c 0,103,104
 332 228 332 228 331.5 234.5 c 128,-1,105
 331 241 331 241 331 247 c 2,106,-1
 331 295 l 1,107,-1
 331 563 l 1,108,-1
 74 532 l 6,109,110
 297 667 297 667 156 683.5 c 0,111,112
 2 702 2 702 335 702 c 0,113,114
 340 702 340 702 350 712 c 0,115,116
 351 713 351 713 358 713 c 2,0,-1
EndSplineSet
EndChar

StartChar: K
Encoding: 75 75 50
Width: 722
GlyphClass: 1
Flags: W
LayerCount: 2
Fore
SplineSet
97 713 m 2,0,-1
 174 713 l 2,1,2
 193 713 193 713 206 711.5 c 128,-1,3
 219 710 219 710 224 694 c 0,4,5
 225 689 225 689 225 683.5 c 128,-1,6
 225 678 225 678 225 672 c 2,7,-1
 225 632 l 1,8,-1
 225 502 l 1,9,-1
 225 480 l 2,10,11
 225 471 225 471 225 462 c 128,-1,12
 225 453 225 453 228 446 c 0,13,14
 229 444 229 444 231.5 442 c 128,-1,15
 234 440 234 440 236 440 c 0,16,17
 243 438 243 438 249.5 444 c 128,-1,18
 256 450 256 450 259 453 c 0,19,20
 267 461 267 461 275 469 c 128,-1,21
 283 477 283 477 290 486 c 0,22,23
 293 488 293 488 298 493 c 0,24,25
 302 497 302 497 306 501.5 c 128,-1,26
 310 506 310 506 313 511 c 0,27,28
 315 513 315 513 317 514 c 128,-1,29
 319 515 319 515 321 517 c 0,30,31
 326 525 326 525 333 530.5 c 128,-1,32
 340 536 340 536 345 543 c 0,33,34
 351 551 351 551 356 556 c 0,35,36
 358 557 358 557 361 560 c 0,37,38
 373 576 373 576 388 589 c 128,-1,39
 403 602 403 602 415 618 c 2,40,-1
 420 623 l 2,41,42
 423 626 423 626 426 629 c 128,-1,43
 429 632 429 632 432 636 c 0,44,45
 433 638 433 638 434 638.5 c 128,-1,46
 435 639 435 639 437 641 c 0,47,48
 443 645 443 645 446 652 c 0,49,50
 448 654 448 654 451 656 c 128,-1,51
 454 658 454 658 456 660 c 0,52,53
 459 665 459 665 463 669 c 128,-1,54
 467 673 467 673 471 678 c 0,55,56
 473 680 473 680 474.5 681 c 128,-1,57
 476 682 476 682 478 684 c 0,58,59
 485 694 485 694 494 701.5 c 128,-1,60
 503 709 503 709 517 712 c 0,61,62
 525 714 525 714 535.5 713.5 c 128,-1,63
 546 713 546 713 555 713 c 2,64,-1
 632 713 l 2,65,66
 643 713 643 713 655.5 713.5 c 128,-1,67
 668 714 668 714 675 709 c 0,68,69
 681 704 681 704 678 697.5 c 128,-1,70
 675 691 675 691 673 687 c 0,71,72
 668 682 668 682 663 677.5 c 128,-1,73
 658 673 658 673 653 668 c 0,74,75
 646 660 646 660 639.5 653 c 128,-1,76
 633 646 633 646 625 639 c 0,77,78
 590 604 590 604 555 568 c 128,-1,79
 520 532 520 532 485 497 c 0,80,81
 469 479 469 479 451 463 c 0,82,83
 444 456 444 456 438 449.5 c 128,-1,84
 432 443 432 443 430 432 c 0,85,86
 428 424 428 424 433 416.5 c 128,-1,87
 438 409 438 409 441 404 c 0,88,89
 451 389 451 389 461.5 374.5 c 128,-1,90
 472 360 472 360 482 345 c 0,91,92
 524 285 524 285 566 226.5 c 128,-1,93
 608 168 608 168 650 108 c 2,94,-1
 686 57 l 2,95,96
 690 51 690 51 694.5 45.5 c 128,-1,97
 699 40 699 40 703 34 c 0,98,99
 706 29 706 29 710 20 c 128,-1,100
 714 11 714 11 707 6 c 256,101,102
 700 1 700 1 687 1 c 128,-1,103
 674 1 674 1 663 1 c 2,104,-1
 584 1 l 2,105,106
 573 1 573 1 562 0.5 c 128,-1,107
 551 0 551 0 542 2 c 0,108,109
 531 6 531 6 524.5 13.5 c 128,-1,110
 518 21 518 21 512 30 c 0,111,112
 506 38 506 38 500.5 46.5 c 128,-1,113
 495 55 495 55 489 64 c 0,114,115
 462 106 462 106 434 146 c 128,-1,116
 406 186 406 186 378 228 c 0,117,118
 367 245 367 245 356.5 261 c 128,-1,119
 346 277 346 277 335 293 c 0,120,121
 331 298 331 298 325 304.5 c 128,-1,122
 319 311 319 311 309 309 c 0,123,124
 299 306 299 306 289 295.5 c 128,-1,125
 279 285 279 285 272 278 c 0,126,127
 267 273 267 273 262 267.5 c 128,-1,128
 257 262 257 262 252 257 c 0,129,130
 245 250 245 250 239 243.5 c 128,-1,131
 233 237 233 237 229 228 c 0,132,133
 226 222 226 222 225.5 215 c 128,-1,134
 225 208 225 208 225 200 c 2,135,-1
 225 187 l 2,136,137
 224 182 224 182 224.5 175.5 c 128,-1,138
 225 169 225 169 225 164 c 2,139,-1
 225 117 l 1,140,-1
 225 46 l 2,141,142
 225 35 225 35 224.5 25 c 128,-1,143
 224 15 224 15 219 9 c 256,144,145
 214 3 214 3 204 2 c 128,-1,146
 194 1 194 1 183 1 c 2,147,-1
 115 1 l 2,148,149
 104 1 104 1 94 1.5 c 128,-1,150
 84 2 84 2 77 7 c 256,151,152
 70 12 70 12 70 25.5 c 128,-1,153
 70 39 70 39 70 52 c 2,154,-1
 70 168 l 1,155,-1
 70 567 l 1,156,-1
 70 660 l 2,157,158
 70 671 70 671 69.5 683 c 128,-1,159
 69 695 69 695 73 702 c 0,160,161
 79 709 79 709 89 712 c 0,162,163
 91 713 91 713 93 712.5 c 128,-1,164
 95 712 95 712 97 713 c 2,0,-1
EndSplineSet
EndChar

StartChar: L
Encoding: 76 76 51
Width: 593
GlyphClass: 1
Flags: W
LayerCount: 2
Fore
SplineSet
97 713 m 2,0,-1
 182 713 l 2,1,2
 193 713 193 713 203.5 712.5 c 128,-1,3
 214 712 214 712 219 705 c 256,4,5
 224 698 224 698 224 686.5 c 128,-1,6
 224 675 224 675 224 662 c 2,7,-1
 224 571 l 1,8,-1
 224 268 l 1,9,-1
 224 209 l 2,10,11
 224 201 224 201 223.5 193.5 c 128,-1,12
 223 186 223 186 225 179 c 2,13,-1
 225 169 l 2,14,15
 225 162 225 162 225.5 155.5 c 128,-1,16
 226 149 226 149 228 144 c 0,17,18
 235 131 235 131 256 131 c 128,-1,19
 277 131 277 131 297 131 c 2,20,-1
 491 131 l 2,21,22
 499 131 499 131 511 131.5 c 128,-1,23
 523 132 523 132 534 131.5 c 128,-1,24
 545 131 545 131 554.5 129 c 128,-1,25
 564 127 564 127 567 123 c 0,26,27
 572 117 572 117 572 108 c 128,-1,28
 572 99 572 99 572 89 c 2,29,-1
 572 43 l 2,30,31
 572 35 572 35 572.5 28 c 128,-1,32
 573 21 573 21 571 16 c 0,33,34
 567 8 567 8 561 5 c 0,35,36
 556 1 556 1 546 1 c 128,-1,37
 536 1 536 1 527 1 c 2,38,-1
 456 1 l 1,39,-1
 185 1 l 1,40,-1
 113 1 l 2,41,42
 99 1 99 1 88.5 2.5 c 128,-1,43
 78 4 78 4 73 12 c 0,44,45
 69 18 69 18 69 27.5 c 128,-1,46
 69 37 69 37 69 46 c 2,47,-1
 69 116 l 1,48,-1
 69 381 l 1,49,-1
 69 607 l 1,50,-1
 69 670 l 2,51,52
 69 679 69 679 69.5 688 c 128,-1,53
 70 697 70 697 73 702 c 0,54,55
 77 709 77 709 89 712 c 0,56,57
 91 713 91 713 93 712.5 c 128,-1,58
 95 712 95 712 97 713 c 2,0,-1
EndSplineSet
EndChar

StartChar: M
Encoding: 77 77 52
Width: 907
GlyphClass: 1
Flags: W
LayerCount: 2
Fore
SplineSet
98 713 m 2,0,-1
 229 713 l 2,1,2
 245 713 245 713 261.5 713 c 128,-1,3
 278 713 278 713 287 706 c 0,4,5
 294 701 294 701 297 691.5 c 128,-1,6
 300 682 300 682 303 673 c 0,7,8
 309 657 309 657 314.5 640.5 c 128,-1,9
 320 624 320 624 326 607 c 0,10,11
 349 544 349 544 369.5 479 c 128,-1,12
 390 414 390 414 414 350 c 0,13,14
 422 330 422 330 428 309 c 128,-1,15
 434 288 434 288 442 268 c 0,16,17
 444 263 444 263 446 258 c 128,-1,18
 448 253 448 253 453 250 c 0,19,20
 455 249 455 249 457 248 c 128,-1,21
 459 247 459 247 461 249 c 0,22,23
 469 251 469 251 472 261 c 128,-1,24
 475 271 475 271 478 279 c 0,25,26
 486 302 486 302 492.5 324.5 c 128,-1,27
 499 347 499 347 507 370 c 0,28,29
 527 431 527 431 547 492.5 c 128,-1,30
 567 554 567 554 587 616 c 0,31,32
 592 632 592 632 597 647.5 c 128,-1,33
 602 663 602 663 607 679 c 0,34,35
 610 687 610 687 613 695 c 128,-1,36
 616 703 616 703 624 708 c 0,37,38
 630 713 630 713 639.5 713 c 128,-1,39
 649 713 649 713 659 713 c 2,40,-1
 724 713 l 1,41,-1
 793 713 l 2,42,43
 802 713 802 713 811.5 713 c 128,-1,44
 821 713 821 713 826 709 c 0,45,46
 837 703 837 703 837 686.5 c 128,-1,47
 837 670 837 670 837 653 c 2,48,-1
 837 503 l 1,49,-1
 837 131 l 1,50,-1
 837 44 l 2,51,52
 837 33 837 33 836.5 22.5 c 128,-1,53
 836 12 836 12 830 7 c 256,54,55
 824 2 824 2 815 1.5 c 128,-1,56
 806 1 806 1 795 1 c 2,57,-1
 747 1 l 1,58,-1
 720 1 l 2,59,60
 712 3 712 3 706.5 4 c 128,-1,61
 701 5 701 5 697 11 c 0,62,63
 693 16 693 16 693 24 c 128,-1,64
 693 32 693 32 693 41 c 2,65,-1
 693 92 l 1,66,-1
 693 349 l 2,67,68
 692 363 692 363 692 375.5 c 128,-1,69
 692 388 692 388 692 401 c 0,70,71
 692 409 692 409 692.5 417.5 c 128,-1,72
 693 426 693 426 691 434 c 0,73,74
 689 441 689 441 689 449 c 128,-1,75
 689 457 689 457 683 459 c 0,76,77
 680 460 680 460 678.5 458 c 128,-1,78
 677 456 677 456 676 455 c 0,79,80
 672 451 672 451 669.5 445.5 c 128,-1,81
 667 440 667 440 665 435 c 0,82,83
 659 420 659 420 653.5 404 c 128,-1,84
 648 388 648 388 642 372 c 0,85,86
 640 366 640 366 638.5 360 c 128,-1,87
 637 354 637 354 634 348 c 0,88,89
 629 335 629 335 625 322 c 128,-1,90
 621 309 621 309 616 296 c 0,91,92
 614 293 614 293 614 289.5 c 128,-1,93
 614 286 614 286 612 283 c 0,94,95
 608 274 608 274 605.5 264 c 128,-1,96
 603 254 603 254 598 244 c 0,97,98
 594 235 594 235 591.5 225 c 128,-1,99
 589 215 589 215 585 205 c 0,100,101
 573 176 573 176 564 146.5 c 128,-1,102
 555 117 555 117 544 88 c 0,103,104
 542 85 542 85 542 82 c 128,-1,105
 542 79 542 79 540 76 c 0,106,107
 535 65 535 65 532 53.5 c 128,-1,108
 529 42 529 42 524 31 c 0,109,110
 521 24 521 24 518.5 18 c 128,-1,111
 516 12 516 12 511 8 c 256,112,113
 506 4 506 4 501 3.5 c 128,-1,114
 496 3 496 3 489 1 c 2,115,-1
 466 1 l 2,116,117
 459 1 459 1 449.5 0.5 c 128,-1,118
 440 0 440 0 430.5 0 c 128,-1,119
 421 0 421 0 413 1 c 128,-1,120
 405 2 405 2 401 5 c 0,121,122
 393 10 393 10 390 16.5 c 128,-1,123
 387 23 387 23 383 32 c 0,124,125
 378 44 378 44 374.5 56.5 c 128,-1,126
 371 69 371 69 366 81 c 2,127,-1
 363 90 l 2,128,129
 358 102 358 102 354 115.5 c 128,-1,130
 350 129 350 129 345 141 c 0,131,132
 344 144 344 144 343.5 146.5 c 128,-1,133
 343 149 343 149 342 152 c 0,134,135
 337 161 337 161 334 171 c 128,-1,136
 331 181 331 181 327 191 c 0,137,138
 326 193 326 193 325.5 196 c 128,-1,139
 325 199 325 199 324 201 c 0,140,141
 320 211 320 211 317.5 221 c 128,-1,142
 315 231 315 231 310 241 c 0,143,144
 302 261 302 261 295 283 c 128,-1,145
 288 305 288 305 280 326 c 0,146,147
 271 351 271 351 263 377 c 128,-1,148
 255 403 255 403 244 427 c 0,149,150
 239 441 239 441 233 450 c 0,151,152
 231 452 231 452 229 453.5 c 128,-1,153
 227 455 227 455 224 453 c 0,154,155
 219 450 219 450 219 443 c 128,-1,156
 219 436 219 436 217 429 c 256,157,158
 215 422 215 422 215.5 414.5 c 128,-1,159
 216 407 216 407 216 399 c 0,160,161
 216 388 216 388 216 377 c 128,-1,162
 216 366 216 366 215 355 c 2,163,-1
 215 89 l 1,164,-1
 215 40 l 2,165,166
 215 32 215 32 215 24 c 128,-1,167
 215 16 215 16 211 11 c 0,168,169
 207 4 207 4 196 2 c 0,170,171
 189 0 189 0 181 0.5 c 128,-1,172
 173 1 173 1 165 1 c 2,173,-1
 113 1 l 2,174,175
 102 1 102 1 93 1.5 c 128,-1,176
 84 2 84 2 78 7 c 256,177,178
 72 12 72 12 71 22.5 c 128,-1,179
 70 33 70 33 70 44 c 2,180,-1
 70 132 l 1,181,-1
 70 504 l 1,182,-1
 70 644 l 2,183,184
 70 650 70 650 70 658.5 c 128,-1,185
 70 667 70 667 70 675 c 128,-1,186
 70 683 70 683 71 690.5 c 128,-1,187
 72 698 72 698 74 702 c 0,188,189
 78 709 78 709 90 712 c 0,190,191
 92 713 92 713 94 712.5 c 128,-1,192
 96 712 96 712 98 713 c 2,0,-1
EndSplineSet
EndChar

StartChar: N
Encoding: 78 78 53
Width: 741
GlyphClass: 1
Flags: W
LayerCount: 2
Fore
SplineSet
97 713 m 2,0,-1
 178 713 l 2,1,2
 189 713 189 713 199.5 713.5 c 128,-1,3
 210 714 210 714 218 710 c 0,4,5
 228 706 228 706 233.5 698 c 128,-1,6
 239 690 239 690 244 682 c 2,7,-1
 280 625 l 2,8,9
 315 568 315 568 350.5 511.5 c 128,-1,10
 386 455 386 455 421 398 c 0,11,12
 438 371 438 371 454.5 343.5 c 128,-1,13
 471 316 471 316 489 290 c 0,14,15
 493 284 493 284 496.5 278 c 128,-1,16
 500 272 500 272 506 267 c 0,17,18
 508 265 508 265 511 263 c 128,-1,19
 514 261 514 261 517 263 c 0,20,21
 524 265 524 265 524 272 c 128,-1,22
 524 279 524 279 526 287 c 0,23,24
 527 294 527 294 526.5 302.5 c 128,-1,25
 526 311 526 311 526 319 c 2,26,-1
 526 382 l 1,27,-1
 526 614 l 1,28,-1
 526 652 l 2,29,30
 526 657 526 657 525.5 662 c 128,-1,31
 525 667 525 667 526 671 c 2,32,-1
 526 682 l 2,33,34
 526 696 526 696 532 704 c 0,35,36
 537 711 537 711 545.5 712 c 128,-1,37
 554 713 554 713 565 713 c 2,38,-1
 626 713 l 2,39,40
 634 713 634 713 642 713 c 128,-1,41
 650 713 650 713 656 711 c 0,42,43
 669 706 669 706 670 693.5 c 128,-1,44
 671 681 671 681 671 664 c 2,45,-1
 671 554 l 1,46,-1
 671 135 l 1,47,-1
 671 51 l 2,48,49
 671 40 671 40 671.5 29 c 128,-1,50
 672 18 672 18 668 12 c 256,51,52
 664 6 664 6 658.5 4.5 c 128,-1,53
 653 3 653 3 645 1 c 2,54,-1
 610 1 l 1,55,-1
 555 1 l 2,56,57
 546 1 546 1 537.5 1 c 128,-1,58
 529 1 529 1 523 4 c 0,59,60
 512 9 512 9 506 17.5 c 128,-1,61
 500 26 500 26 494 36 c 0,62,63
 485 50 485 50 476.5 64.5 c 128,-1,64
 468 79 468 79 459 93 c 2,65,-1
 309 333 l 2,66,67
 295 356 295 356 281.5 377.5 c 128,-1,68
 268 399 268 399 254 422 c 0,69,70
 249 429 249 429 242.5 439.5 c 128,-1,71
 236 450 236 450 225 450 c 1,72,73
 217 443 217 443 216.5 434 c 128,-1,74
 216 425 216 425 216 411 c 2,75,-1
 216 341 l 1,76,-1
 216 102 l 1,77,-1
 216 63 l 2,78,79
 216 58 216 58 216.5 53 c 128,-1,80
 217 48 217 48 215 43 c 2,81,-1
 215 32 l 2,82,83
 215 16 215 16 210 9 c 0,84,85
 205 3 205 3 196.5 2 c 128,-1,86
 188 1 188 1 177 1 c 2,87,-1
 116 1 l 2,88,89
 108 1 108 1 100 1 c 128,-1,90
 92 1 92 1 86 3 c 0,91,92
 73 8 73 8 71.5 21 c 128,-1,93
 70 34 70 34 70 51 c 2,94,-1
 70 166 l 1,95,-1
 70 567 l 1,96,-1
 70 660 l 2,97,98
 70 671 70 671 70 683 c 128,-1,99
 70 695 70 695 74 702 c 256,100,101
 78 709 78 709 88 712 c 0,102,103
 90 712 90 712 92.5 712.5 c 128,-1,104
 95 713 95 713 97 713 c 2,0,-1
EndSplineSet
EndChar

StartChar: O
Encoding: 79 79 54
Width: 778
GlyphClass: 1
Flags: W
LayerCount: 2
Fore
SplineSet
738 381 m 2,0,1
 740 375 740 375 740.5 360.5 c 128,-1,2
 741 346 741 346 739 340 c 2,3,-1
 739 327 l 2,4,5
 737 317 737 317 737 306 c 128,-1,6
 737 295 737 295 735 284 c 0,7,8
 733 277 733 277 732 270 c 128,-1,9
 731 263 731 263 729 256 c 0,10,11
 724 238 724 238 719.5 221 c 128,-1,12
 715 204 715 204 708 188 c 0,13,14
 678 118 678 118 627 71.5 c 128,-1,15
 576 25 576 25 501 0 c 0,16,17
 490 -4 490 -4 479 -6 c 128,-1,18
 468 -8 468 -8 457 -10 c 0,19,20
 452 -12 452 -12 446.5 -12 c 128,-1,21
 441 -12 441 -12 436 -13 c 2,22,-1
 403 -16 l 2,23,24
 399 -17 399 -17 389 -16.5 c 128,-1,25
 379 -16 379 -16 376 -15 c 0,26,27
 371 -14 371 -14 366.5 -14.5 c 128,-1,28
 362 -15 362 -15 357 -14 c 2,29,-1
 346 -14 l 2,30,31
 338 -12 338 -12 331 -11.5 c 128,-1,32
 324 -11 324 -11 316 -9 c 256,33,34
 308 -7 308 -7 300 -5.5 c 128,-1,35
 292 -4 292 -4 284 -2 c 0,36,37
 273 2 273 2 261.5 6 c 128,-1,38
 250 10 250 10 239 15 c 0,39,40
 179 41 179 41 137.5 84.5 c 128,-1,41
 96 128 96 128 70 188 c 0,42,43
 64 202 64 202 60 217.5 c 128,-1,44
 56 233 56 233 51 249 c 0,45,46
 49 254 49 254 49 257.5 c 128,-1,47
 49 261 49 261 48 265 c 0,48,49
 46 272 46 272 45 279.5 c 128,-1,50
 44 287 44 287 42 295 c 0,51,52
 41 300 41 300 41.5 304.5 c 128,-1,53
 42 309 42 309 40 313 c 0,54,55
 39 319 39 319 40 325.5 c 128,-1,56
 41 332 41 332 40 338 c 0,57,58
 38 343 38 343 38 353.5 c 128,-1,59
 38 364 38 364 40 369 c 0,60,61
 41 374 41 374 40 378.5 c 128,-1,62
 39 383 39 383 40 388 c 2,63,-1
 40 394 l 2,64,65
 42 401 42 401 41.5 407.5 c 128,-1,66
 41 414 41 414 43 420 c 0,67,68
 45 425 45 425 45 430.5 c 128,-1,69
 45 436 45 436 47 441 c 0,70,71
 52 458 52 458 55 474.5 c 128,-1,72
 58 491 58 491 64 507 c 0,73,74
 72 524 72 524 79 541 c 128,-1,75
 86 558 86 558 96 573 c 0,76,77
 126 621 126 621 165 653 c 128,-1,78
 204 685 204 685 260 708 c 0,79,80
 273 713 273 713 287.5 716 c 128,-1,81
 302 719 302 719 316 723 c 0,82,83
 321 725 321 725 325.5 725 c 128,-1,84
 330 725 330 725 335 726 c 2,85,-1
 365 729 l 2,86,87
 367 730 367 730 370.5 729 c 128,-1,88
 374 728 374 728 376 729 c 0,89,90
 447 731 447 731 499 714.5 c 128,-1,91
 551 698 551 698 592 669 c 0,92,93
 605 660 605 660 619 648.5 c 128,-1,94
 633 637 633 637 642 625 c 0,95,96
 647 620 647 620 652 614.5 c 128,-1,97
 657 609 657 609 661 604 c 0,98,99
 672 588 672 588 683 571.5 c 128,-1,100
 694 555 694 555 702 536 c 0,101,102
 708 522 708 522 712.5 509 c 128,-1,103
 717 496 717 496 722 481 c 0,104,105
 725 471 725 471 727 460.5 c 128,-1,106
 729 450 729 450 732 439 c 0,107,108
 734 432 734 432 734 425.5 c 128,-1,109
 734 419 734 419 736 413 c 256,110,111
 738 407 738 407 737.5 400.5 c 128,-1,112
 737 394 737 394 738 389 c 2,113,-1
 738 381 l 2,0,1
583 339 m 2,114,115
 585 344 585 344 585 353.5 c 128,-1,116
 585 363 585 363 583 368 c 2,117,-1
 583 385 l 2,118,119
 582 389 582 389 582.5 392.5 c 128,-1,120
 583 396 583 396 581 400 c 0,121,122
 579 408 579 408 578.5 415.5 c 128,-1,123
 578 423 578 423 576 430 c 0,124,125
 576 435 576 435 574 441 c 0,126,127
 571 452 571 452 568 463 c 128,-1,128
 565 474 565 474 560 485 c 0,129,130
 538 536 538 536 496.5 567.5 c 128,-1,131
 455 599 455 599 381 599 c 0,132,133
 379 598 379 598 376.5 598.5 c 128,-1,134
 374 599 374 599 372 598 c 0,135,136
 368 597 368 597 364 597.5 c 128,-1,137
 360 598 360 598 355 596 c 0,138,139
 344 594 344 594 333.5 591.5 c 128,-1,140
 323 589 323 589 314 585 c 0,141,142
 272 567 272 567 247.5 535 c 128,-1,143
 223 503 223 503 208 458 c 0,144,145
 205 447 205 447 203.5 436.5 c 128,-1,146
 202 426 202 426 199 415 c 0,147,148
 198 411 198 411 198 407.5 c 128,-1,149
 198 404 198 404 197 400 c 0,150,151
 195 395 195 395 196 389 c 128,-1,152
 197 383 197 383 196 378 c 0,153,154
 194 373 194 373 193.5 359.5 c 128,-1,155
 193 346 193 346 195 341 c 2,156,-1
 195 330 l 2,157,158
 196 326 196 326 196 321.5 c 128,-1,159
 196 317 196 317 197 313 c 0,160,161
 197 309 197 309 197.5 305.5 c 128,-1,162
 198 302 198 302 198 298 c 0,163,164
 201 287 201 287 202.5 276 c 128,-1,165
 204 265 204 265 208 255 c 0,166,167
 219 223 219 223 235 195.5 c 128,-1,168
 251 168 251 168 275 151 c 0,169,170
 280 146 280 146 285.5 143 c 128,-1,171
 291 140 291 140 297 137 c 0,172,173
 308 130 308 130 320.5 126 c 128,-1,174
 333 122 333 122 347 118 c 0,175,176
 352 116 352 116 356.5 116.5 c 128,-1,177
 361 117 361 117 366 116 c 0,178,179
 372 114 372 114 378 114 c 128,-1,180
 384 114 384 114 391 114 c 2,181,-1
 399 114 l 2,182,183
 404 115 404 115 408 114.5 c 128,-1,184
 412 114 412 114 417 116 c 0,185,186
 427 118 427 118 437 119.5 c 128,-1,187
 447 121 447 121 456 125 c 0,188,189
 499 142 499 142 523.5 169 c 128,-1,190
 548 196 548 196 565 239 c 0,191,192
 570 250 570 250 572.5 263 c 128,-1,193
 575 276 575 276 579 289 c 2,194,-1
 582 313 l 2,195,196
 583 317 583 317 583 321.5 c 128,-1,197
 583 326 583 326 583 331 c 2,198,-1
 583 339 l 2,114,115
EndSplineSet
EndChar

StartChar: P
Encoding: 80 80 55
Width: 667
GlyphClass: 1
Flags: W
LayerCount: 2
Fore
SplineSet
594 624 m 0,0,1
 617 592 617 592 627.5 553 c 128,-1,2
 638 514 638 514 635 459 c 0,3,4
 633 437 633 437 628 418.5 c 128,-1,5
 623 400 623 400 616 384 c 0,6,7
 614 380 614 380 612.5 376.5 c 128,-1,8
 611 373 611 373 609 369 c 0,9,10
 605 362 605 362 601.5 355.5 c 128,-1,11
 598 349 598 349 593 343 c 0,12,13
 573 315 573 315 544.5 297.5 c 128,-1,14
 516 280 516 280 480 268 c 0,15,16
 469 264 469 264 457 263 c 128,-1,17
 445 262 445 262 433 259 c 0,18,19
 427 258 427 258 421 258 c 128,-1,20
 415 258 415 258 409 257 c 2,21,-1
 368 257 l 1,22,-1
 284 257 l 2,23,24
 271 257 271 257 256.5 257 c 128,-1,25
 242 257 242 257 234 251 c 0,26,27
 224 244 224 244 224 226.5 c 128,-1,28
 224 209 224 209 224 192 c 2,29,-1
 224 60 l 2,30,31
 224 48 224 48 224.5 34 c 128,-1,32
 225 20 225 20 220 12 c 0,33,34
 216 5 216 5 202 1 c 0,35,36
 195 -1 195 -1 187 0 c 128,-1,37
 179 1 179 1 171 1 c 2,38,-1
 113 1 l 2,39,40
 102 1 102 1 92.5 1.5 c 128,-1,41
 83 2 83 2 77 7 c 256,42,43
 71 12 71 12 70 22.5 c 128,-1,44
 69 33 69 33 69 44 c 2,45,-1
 69 642 l 2,46,47
 69 656 69 656 68.5 675 c 128,-1,48
 68 694 68 694 73 702 c 0,49,50
 77 708 77 708 88 712 c 0,51,52
 90 713 90 713 92.5 712.5 c 128,-1,53
 95 712 95 712 97 713 c 2,54,-1
 386 713 l 2,55,56
 395 713 395 713 404 713.5 c 128,-1,57
 413 714 413 714 421 712 c 2,58,-1
 426 712 l 2,59,60
 431 710 431 710 437 710 c 128,-1,61
 443 710 443 710 448 708 c 0,62,63
 453 707 453 707 457 707 c 128,-1,64
 461 707 461 707 466 705 c 0,65,66
 482 700 482 700 498 695.5 c 128,-1,67
 514 691 514 691 528 683 c 0,68,69
 533 679 533 679 539 676 c 128,-1,70
 545 673 545 673 551 668 c 0,71,72
 556 665 556 665 559.5 661.5 c 128,-1,73
 563 658 563 658 568 654 c 2,74,-1
 574 648 l 2,75,76
 586 636 586 636 594 624 c 0,0,1
484 460 m 0,77,78
 486 471 486 471 485.5 487.5 c 128,-1,79
 485 504 485 504 482 515 c 0,80,81
 476 537 476 537 467 550 c 128,-1,82
 458 563 458 563 440 574 c 0,83,84
 425 583 425 583 403 587.5 c 128,-1,85
 381 592 381 592 355.5 593 c 128,-1,86
 330 594 330 594 303 593.5 c 128,-1,87
 276 593 276 593 252 593 c 0,88,89
 249 592 249 592 246.5 591.5 c 128,-1,90
 244 591 244 591 241 591 c 0,91,92
 231 587 231 587 228 579 c 0,93,94
 224 571 224 571 224 557.5 c 128,-1,95
 224 544 224 544 224 533 c 2,96,-1
 224 438 l 2,97,98
 224 426 224 426 224 411.5 c 128,-1,99
 224 397 224 397 229 389 c 0,100,101
 233 383 233 383 241 380 c 128,-1,102
 249 377 249 377 259 376.5 c 128,-1,103
 269 376 269 376 280.5 376.5 c 128,-1,104
 292 377 292 377 302 377 c 0,105,106
 355 377 355 377 399 382 c 128,-1,107
 443 387 443 387 466 417 c 0,108,109
 472 426 472 426 476 436.5 c 128,-1,110
 480 447 480 447 484 460 c 0,77,78
EndSplineSet
EndChar

StartChar: Q
Encoding: 81 81 56
Width: 778
GlyphClass: 1
Flags: W
LayerCount: 2
Fore
SplineSet
738 382 m 2,0,1
 740 376 740 376 740.5 361.5 c 128,-1,2
 741 347 741 347 739 341 c 0,3,4
 739 336 739 336 739 330.5 c 128,-1,5
 739 325 739 325 738 320 c 0,6,7
 736 309 736 309 736 298.5 c 128,-1,8
 736 288 736 288 733 277 c 0,9,10
 731 269 731 269 729.5 260 c 128,-1,11
 728 251 728 251 726 243 c 0,12,13
 719 223 719 223 713 205 c 128,-1,14
 707 187 707 187 698 170 c 0,15,16
 696 167 696 167 695 163.5 c 128,-1,17
 694 160 694 160 692 157 c 0,18,19
 687 149 687 149 682.5 141 c 128,-1,20
 678 133 678 133 673 125 c 0,21,22
 668 119 668 119 663.5 113.5 c 128,-1,23
 659 108 659 108 657 100 c 0,24,25
 654 91 654 91 658 85.5 c 128,-1,26
 662 80 662 80 665 75 c 0,27,28
 673 65 673 65 685 57 c 0,29,30
 686 55 686 55 689 52 c 0,31,32
 701 43 701 43 712 32 c 0,33,34
 716 27 716 27 722 20 c 128,-1,35
 728 13 728 13 724 2 c 0,36,37
 719 -8 719 -8 710.5 -16 c 128,-1,38
 702 -24 702 -24 694 -32 c 0,39,40
 689 -37 689 -37 683 -43.5 c 128,-1,41
 677 -50 677 -50 669 -53 c 0,42,43
 658 -58 658 -58 649.5 -51 c 128,-1,44
 641 -44 641 -44 636 -40 c 0,45,46
 625 -31 625 -31 614.5 -20.5 c 128,-1,47
 604 -10 604 -10 592 -1 c 0,48,49
 585 4 585 4 579 10.5 c 128,-1,50
 573 17 573 17 562 19 c 0,51,52
 554 21 554 21 548 18.5 c 128,-1,53
 542 16 542 16 538 14 c 0,54,55
 527 9 527 9 516 5.5 c 128,-1,56
 505 2 505 2 494 -2 c 0,57,58
 481 -6 481 -6 466.5 -7.5 c 128,-1,59
 452 -9 452 -9 438 -12 c 0,60,61
 432 -13 432 -13 426 -13 c 128,-1,62
 420 -13 420 -13 413 -14 c 0,63,64
 408 -15 408 -15 395.5 -15.5 c 128,-1,65
 383 -16 383 -16 378 -14 c 2,66,-1
 366 -14 l 2,67,68
 357 -12 357 -12 347 -12 c 128,-1,69
 337 -12 337 -12 328 -10 c 0,70,71
 321 -8 321 -8 314 -7.5 c 128,-1,72
 307 -7 307 -7 300 -5 c 0,73,74
 283 0 283 0 267 4.5 c 128,-1,75
 251 9 251 9 236 16 c 0,76,77
 183 39 183 39 141 82 c 128,-1,78
 99 125 99 125 76 177 c 0,79,80
 70 191 70 191 65 205 c 128,-1,81
 60 219 60 219 55 234 c 0,82,83
 52 245 52 245 49.5 256.5 c 128,-1,84
 47 268 47 268 45 279 c 0,85,86
 43 285 43 285 43 291.5 c 128,-1,87
 43 298 43 298 41 304 c 0,88,89
 40 310 40 310 40.5 316 c 128,-1,90
 41 322 41 322 40 328 c 2,91,-1
 40 339 l 2,92,93
 38 344 38 344 38 354.5 c 128,-1,94
 38 365 38 365 40 370 c 0,95,96
 40 373 40 373 39.5 376 c 128,-1,97
 39 379 39 379 40 381 c 0,98,99
 40 386 40 386 40.5 391 c 128,-1,100
 41 396 41 396 41 401 c 0,101,102
 42 409 42 409 43 417.5 c 128,-1,103
 44 426 44 426 45 434 c 0,104,105
 49 448 49 448 51 462 c 128,-1,106
 53 476 53 476 58 489 c 0,107,108
 86 571 86 571 134 624 c 128,-1,109
 182 677 182 677 260 709 c 0,110,111
 273 714 273 714 287.5 717 c 128,-1,112
 302 720 302 720 316 724 c 0,113,114
 321 726 321 726 325.5 726 c 128,-1,115
 330 726 330 726 335 727 c 2,116,-1
 365 730 l 2,117,118
 367 731 367 731 370.5 730 c 128,-1,119
 374 729 374 729 376 730 c 0,120,121
 440 732 440 732 489.5 718.5 c 128,-1,122
 539 705 539 705 577 680 c 0,123,124
 593 671 593 671 611 656 c 0,125,126
 615 654 615 654 618 650 c 128,-1,127
 621 646 621 646 625 644 c 0,128,129
 632 638 632 638 638.5 631.5 c 128,-1,130
 645 625 645 625 650 617 c 0,131,132
 652 614 652 614 655.5 611 c 128,-1,133
 659 608 659 608 661 605 c 0,134,135
 672 589 672 589 683 572 c 128,-1,136
 694 555 694 555 702 537 c 0,137,138
 708 523 708 523 712.5 510 c 128,-1,139
 717 497 717 497 722 482 c 0,140,141
 725 472 725 472 727 461.5 c 128,-1,142
 729 451 729 451 732 440 c 0,143,144
 734 433 734 433 734 426.5 c 128,-1,145
 734 420 734 420 736 414 c 256,146,147
 738 408 738 408 737.5 401.5 c 128,-1,148
 737 395 737 395 738 390 c 2,149,-1
 738 382 l 2,0,1
583 338 m 2,150,151
 585 343 585 343 585 353.5 c 128,-1,152
 585 364 585 364 583 369 c 2,153,-1
 583 386 l 2,154,155
 582 390 582 390 582.5 393.5 c 128,-1,156
 583 397 583 397 581 401 c 0,157,158
 579 408 579 408 579 415 c 128,-1,159
 579 422 579 422 577 429 c 0,160,161
 573 443 573 443 570.5 455 c 128,-1,162
 568 467 568 467 563 478 c 0,163,164
 552 505 552 505 536.5 527.5 c 128,-1,165
 521 550 521 550 499 566 c 128,-1,166
 477 582 477 582 448 591 c 128,-1,167
 419 600 419 600 381 600 c 0,168,169
 375 599 375 599 369.5 599 c 128,-1,170
 364 599 364 599 359 598 c 0,171,172
 348 595 348 595 337 593 c 128,-1,173
 326 591 326 591 316 587 c 0,174,175
 274 569 274 569 248.5 536.5 c 128,-1,176
 223 504 223 504 208 459 c 0,177,178
 205 448 205 448 203.5 437.5 c 128,-1,179
 202 427 202 427 199 416 c 0,180,181
 198 412 198 412 198 408.5 c 128,-1,182
 198 405 198 405 197 401 c 0,183,184
 195 396 195 396 196 390 c 128,-1,185
 197 384 197 384 195 379 c 2,186,-1
 195 368 l 2,187,188
 194 363 194 363 194 355 c 128,-1,189
 194 347 194 347 195 342 c 2,190,-1
 195 331 l 2,191,192
 197 324 197 324 196.5 316.5 c 128,-1,193
 196 309 196 309 198 302 c 0,194,195
 199 299 199 299 199 296 c 128,-1,196
 199 293 199 293 200 290 c 0,197,198
 202 281 202 281 204 272 c 128,-1,199
 206 263 206 263 208 254 c 0,200,201
 222 212 222 212 245.5 180.5 c 128,-1,202
 269 149 269 149 307 132 c 2,203,-1
 322 126 l 2,204,205
 329 123 329 123 335.5 121.5 c 128,-1,206
 342 120 342 120 350 118 c 0,207,208
 355 117 355 117 361 116.5 c 128,-1,209
 367 116 367 116 372 116 c 2,210,-1
 379 116 l 2,211,212
 384 114 384 114 390.5 114.5 c 128,-1,213
 397 115 397 115 402 115 c 2,214,-1
 411 115 l 2,215,216
 416 116 416 116 420 116 c 128,-1,217
 424 116 424 116 428 118 c 0,218,219
 445 127 445 127 433 142 c 0,220,221
 427 151 427 151 418.5 157.5 c 128,-1,222
 410 164 410 164 403 173 c 0,223,224
 401 176 401 176 398 180 c 128,-1,225
 395 184 395 184 397 191 c 0,226,227
 399 201 399 201 406 206.5 c 128,-1,228
 413 212 413 212 418 220 c 0,229,230
 420 223 420 223 422.5 225.5 c 128,-1,231
 425 228 425 228 427 231 c 0,232,233
 429 232 429 232 432 235 c 0,234,235
 434 238 434 238 437 241.5 c 128,-1,236
 440 245 440 245 444 247 c 0,237,238
 449 252 449 252 456.5 253.5 c 128,-1,239
 464 255 464 255 472 250 c 0,240,241
 483 243 483 243 491 234 c 128,-1,242
 499 225 499 225 510 217 c 2,243,-1
 516 211 l 2,244,245
 520 208 520 208 526.5 204 c 128,-1,246
 533 200 533 200 541 202 c 0,247,248
 546 204 546 204 552 212 c 0,249,250
 554 215 554 215 556.5 218.5 c 128,-1,251
 559 222 559 222 561 226 c 0,252,253
 566 238 566 238 569.5 251 c 128,-1,254
 573 264 573 264 577 278 c 0,255,256
 578 284 578 284 579 290 c 128,-1,257
 580 296 580 296 581 302 c 0,258,259
 582 309 582 309 582.5 315.5 c 128,-1,260
 583 322 583 322 583 329 c 2,261,-1
 583 338 l 2,150,151
EndSplineSet
EndChar

StartChar: R
Encoding: 82 82 57
Width: 722
GlyphClass: 1
Flags: W
LayerCount: 2
Fore
SplineSet
670 23 m 0,0,1
 672 17 672 17 669.5 12 c 128,-1,2
 667 7 667 7 664 5 c 0,3,4
 658 0 658 0 647.5 0.5 c 128,-1,5
 637 1 637 1 626 1 c 2,6,-1
 571 1 l 2,7,8
 555 1 555 1 543 2.5 c 128,-1,9
 531 4 531 4 525 14 c 0,10,11
 517 27 517 27 516 46 c 128,-1,12
 515 65 515 65 511 82 c 0,13,14
 511 86 511 86 510.5 89.5 c 128,-1,15
 510 93 510 93 510 96 c 0,16,17
 507 108 507 108 507 121.5 c 128,-1,18
 507 135 507 135 505 146 c 0,19,20
 504 149 504 149 504 155 c 0,21,22
 502 166 502 166 500.5 177.5 c 128,-1,23
 499 189 499 189 496 200 c 0,24,25
 488 223 488 223 477 241 c 128,-1,26
 466 259 466 259 446 268 c 0,27,28
 441 270 441 270 436 271 c 128,-1,29
 431 272 431 272 425 274 c 0,30,31
 407 280 407 280 383.5 280 c 128,-1,32
 360 280 360 280 337 280 c 2,33,-1
 255 280 l 2,34,35
 247 278 247 278 241 277 c 128,-1,36
 235 276 235 276 231 271 c 0,37,38
 223 261 223 261 224 240 c 128,-1,39
 225 219 225 219 225 202 c 2,40,-1
 225 74 l 2,41,42
 225 66 225 66 224.5 57.5 c 128,-1,43
 224 49 224 49 224 41 c 256,44,45
 224 33 224 33 224 26.5 c 128,-1,46
 224 20 224 20 222 15 c 0,47,48
 219 6 219 6 210 3 c 0,49,50
 205 1 205 1 198 1 c 128,-1,51
 191 1 191 1 183 1 c 2,52,-1
 138 1 l 2,53,54
 122 1 122 1 104 0.5 c 128,-1,55
 86 0 86 0 77 7 c 0,56,57
 69 12 69 12 69 25.5 c 128,-1,58
 69 39 69 39 69 52 c 2,59,-1
 69 660 l 2,60,61
 69 671 69 671 68.5 683 c 128,-1,62
 68 695 68 695 73 702 c 0,63,64
 77 708 77 708 88 712 c 0,65,66
 90 713 90 713 92.5 712.5 c 128,-1,67
 95 712 95 712 97 713 c 2,68,-1
 437 713 l 2,69,70
 453 713 453 713 467.5 712.5 c 128,-1,71
 482 712 482 712 495 709 c 0,72,73
 500 707 500 707 505.5 707 c 128,-1,74
 511 707 511 707 516 705 c 0,75,76
 523 703 523 703 530 701 c 128,-1,77
 537 699 537 699 544 696 c 0,78,79
 569 685 569 685 590 669 c 128,-1,80
 611 653 611 653 625 632 c 0,81,82
 629 627 629 627 631.5 621.5 c 128,-1,83
 634 616 634 616 638 611 c 0,84,85
 646 597 646 597 650 582 c 128,-1,86
 654 567 654 567 659 549 c 0,87,88
 660 545 660 545 659.5 541 c 128,-1,89
 659 537 659 537 661 533 c 2,90,-1
 661 524 l 2,91,92
 663 516 663 516 662 504.5 c 128,-1,93
 661 493 661 493 659 486 c 0,94,95
 657 478 657 478 657 471.5 c 128,-1,96
 657 465 657 465 655 458 c 0,97,98
 650 443 650 443 645 429.5 c 128,-1,99
 640 416 640 416 632 404 c 0,100,101
 630 401 630 401 627 397.5 c 128,-1,102
 624 394 624 394 622 391 c 0,103,104
 619 387 619 387 615.5 383 c 128,-1,105
 612 379 612 379 608 376 c 0,106,107
 602 371 602 371 596 366 c 128,-1,108
 590 361 590 361 583 356 c 0,109,110
 579 353 579 353 575 349.5 c 128,-1,111
 571 346 571 346 569 341 c 0,112,113
 567 335 567 335 571 331 c 128,-1,114
 575 327 575 327 578 325 c 0,115,116
 588 317 588 317 598 309 c 128,-1,117
 608 301 608 301 615 290 c 0,118,119
 627 273 627 273 634 255 c 128,-1,120
 641 237 641 237 647 214 c 0,121,122
 649 205 649 205 649.5 195 c 128,-1,123
 650 185 650 185 652 176 c 0,124,125
 652 170 652 170 652.5 164.5 c 128,-1,126
 653 159 653 159 653 153 c 0,127,128
 654 149 654 149 653.5 144.5 c 128,-1,129
 653 140 653 140 654 135 c 0,130,131
 655 131 655 131 654.5 127 c 128,-1,132
 654 123 654 123 655 118 c 0,133,134
 657 108 657 108 657 97 c 128,-1,135
 657 86 657 86 659 76 c 2,136,-1
 662 58 l 2,137,138
 664 49 664 49 666 40 c 128,-1,139
 668 31 668 31 670 23 c 0,0,1
505 474 m 0,140,141
 507 485 507 485 505.5 501 c 128,-1,142
 504 517 504 517 502 525 c 0,143,144
 500 529 500 529 500 532 c 128,-1,145
 500 535 500 535 498 538 c 0,146,147
 486 569 486 569 454 583 c 0,148,149
 437 591 437 591 415 592 c 128,-1,150
 393 593 393 593 369 593 c 2,151,-1
 253 593 l 2,152,153
 251 591 251 591 249 591.5 c 128,-1,154
 247 592 247 592 245 592 c 0,155,156
 233 589 233 589 229 582 c 0,157,158
 224 574 224 574 224.5 561.5 c 128,-1,159
 225 549 225 549 225 537 c 2,160,-1
 225 444 l 2,161,162
 225 432 225 432 225 420 c 128,-1,163
 225 408 225 408 230 401 c 0,164,165
 234 395 234 395 243 393 c 128,-1,166
 252 391 252 391 263 390 c 128,-1,167
 274 389 274 389 286 389.5 c 128,-1,168
 298 390 298 390 307 390 c 2,169,-1
 366 390 l 2,170,171
 373 390 373 390 381 389.5 c 128,-1,172
 389 389 389 389 395 391 c 2,173,-1
 408 391 l 2,174,175
 416 393 416 393 423.5 393 c 128,-1,176
 431 393 431 393 438 395 c 0,177,178
 455 400 455 400 468 408 c 128,-1,179
 481 416 481 416 490 429 c 0,180,181
 496 438 496 438 499 449 c 128,-1,182
 502 460 502 460 505 474 c 0,140,141
EndSplineSet
EndChar

StartChar: S
Encoding: 83 83 58
Width: 649
GlyphClass: 1
Flags: W
LayerCount: 2
Fore
SplineSet
304 728 m 0,0,1
 498 731 498 731 571 613 c 0,2,3
 581 597 581 597 586.5 580 c 128,-1,4
 592 563 592 563 597 543 c 0,5,6
 599 535 599 535 598.5 524.5 c 128,-1,7
 598 514 598 514 594 509 c 0,8,9
 589 503 589 503 580 501.5 c 128,-1,10
 571 500 571 500 560 500 c 2,11,-1
 497 500 l 2,12,13
 488 500 488 500 479 500 c 128,-1,14
 470 500 470 500 464 502 c 0,15,16
 452 507 452 507 449 518 c 128,-1,17
 446 529 446 529 441 540 c 0,18,19
 437 550 437 550 430 561 c 128,-1,20
 423 572 423 572 415 578 c 0,21,22
 401 588 401 588 388 595 c 0,23,24
 376 600 376 600 358.5 603.5 c 128,-1,25
 341 607 341 607 322.5 608 c 128,-1,26
 304 609 304 609 286 607 c 128,-1,27
 268 605 268 605 254 599 c 0,28,29
 231 589 231 589 218.5 575.5 c 128,-1,30
 206 562 206 562 201 535 c 0,31,32
 199 528 199 528 200 519.5 c 128,-1,33
 201 511 201 511 203 506 c 0,34,35
 211 485 211 485 225.5 476.5 c 128,-1,36
 240 468 240 468 260 460 c 0,37,38
 271 455 271 455 282.5 452.5 c 128,-1,39
 294 450 294 450 306 446 c 0,40,41
 333 437 333 437 361.5 430.5 c 128,-1,42
 390 424 390 424 418 416 c 0,43,44
 423 414 423 414 428 414 c 128,-1,45
 433 414 433 414 438 412 c 0,46,47
 458 405 458 405 479.5 399 c 128,-1,48
 501 393 501 393 518 382 c 0,49,50
 545 365 545 365 564.5 348 c 128,-1,51
 584 331 584 331 601 304 c 0,52,53
 606 296 606 296 609.5 286 c 128,-1,54
 613 276 613 276 617 266 c 0,55,56
 618 263 618 263 618 260.5 c 128,-1,57
 618 258 618 258 619 256 c 0,58,59
 623 240 623 240 623 216 c 0,60,61
 625 211 625 211 623 206 c 2,62,-1
 623 188 l 2,63,64
 621 177 621 177 619.5 167 c 128,-1,65
 618 157 618 157 615 147 c 0,66,67
 609 129 609 129 602 114 c 128,-1,68
 595 99 595 99 585 85 c 0,69,70
 581 80 581 80 577 76.5 c 128,-1,71
 573 73 573 73 570 68 c 0,72,73
 565 62 565 62 559 56.5 c 128,-1,74
 553 51 553 51 546 46 c 0,75,76
 541 42 541 42 535.5 38 c 128,-1,77
 530 34 530 34 524 30 c 0,78,79
 507 19 507 19 488.5 12 c 128,-1,80
 470 5 470 5 450 -2 c 0,81,82
 436 -7 436 -7 421 -8.5 c 128,-1,83
 406 -10 406 -10 391 -13 c 0,84,85
 384 -15 384 -15 377.5 -14.5 c 128,-1,86
 371 -14 371 -14 365 -16 c 2,87,-1
 357 -16 l 2,88,89
 355 -16 355 -16 351.5 -15.5 c 128,-1,90
 348 -15 348 -15 346 -16 c 0,91,92
 341 -17 341 -17 329 -17 c 128,-1,93
 317 -17 317 -17 312 -16 c 2,94,-1
 302 -16 l 2,95,96
 295 -14 295 -14 287.5 -14.5 c 128,-1,97
 280 -15 280 -15 274 -13 c 0,98,99
 269 -13 269 -13 265 -12.5 c 128,-1,100
 261 -12 261 -12 256 -11 c 0,101,102
 244 -8 244 -8 231 -6 c 128,-1,103
 218 -4 218 -4 207 0 c 0,104,105
 158 16 158 16 121 40.5 c 128,-1,106
 84 65 84 65 59 105 c 0,107,108
 43 129 43 129 34 162 c 0,109,110
 32 168 32 168 31.5 174 c 128,-1,111
 31 180 31 180 29 187 c 0,112,113
 27 195 27 195 26 206.5 c 128,-1,114
 25 218 25 218 30 224 c 0,115,116
 35 232 35 232 44.5 233.5 c 128,-1,117
 54 235 54 235 66 235 c 2,118,-1
 129 235 l 2,119,120
 137 235 137 235 146 235 c 128,-1,121
 155 235 155 235 162 232 c 0,122,123
 173 227 173 227 175 215.5 c 128,-1,124
 177 204 177 204 182 192 c 0,125,126
 186 180 186 180 192 170 c 128,-1,127
 198 160 198 160 205 151 c 0,128,129
 210 145 210 145 216 140 c 128,-1,130
 222 135 222 135 228 131 c 0,131,132
 250 117 250 117 282 108 c 0,133,134
 289 106 289 106 295.5 106 c 128,-1,135
 302 106 302 106 310 104 c 2,136,-1
 315 104 l 2,137,138
 323 102 323 102 337 102 c 128,-1,139
 351 102 351 102 359 104 c 0,140,141
 362 105 362 105 369 105 c 0,142,143
 374 106 374 106 379.5 106.5 c 128,-1,144
 385 107 385 107 390 109 c 0,145,146
 424 118 424 118 444 133 c 128,-1,147
 464 148 464 148 472 183 c 0,148,149
 474 190 474 190 472.5 199 c 128,-1,150
 471 208 471 208 469 213 c 0,151,152
 459 240 459 240 435 255 c 0,153,154
 432 257 432 257 424 261 c 0,155,156
 409 270 409 270 390.5 275.5 c 128,-1,157
 372 281 372 281 354 287 c 0,158,159
 347 289 347 289 340.5 290.5 c 128,-1,160
 334 292 334 292 326 294 c 0,161,162
 310 299 310 299 293.5 302.5 c 128,-1,163
 277 306 277 306 262 311 c 0,164,165
 257 313 257 313 254 313 c 128,-1,166
 251 313 251 313 247 315 c 0,167,168
 239 317 239 317 232.5 319 c 128,-1,169
 226 321 226 321 218 323 c 0,170,171
 195 331 195 331 174 339.5 c 128,-1,172
 153 348 153 348 135 359 c 0,173,174
 112 374 112 374 93 394 c 128,-1,175
 74 414 74 414 63 440 c 0,176,177
 59 449 59 449 57 458.5 c 128,-1,178
 55 468 55 468 52 479 c 0,179,180
 50 488 50 488 49 505 c 128,-1,181
 48 522 48 522 50 533 c 0,182,183
 51 537 51 537 51 545 c 0,184,185
 54 556 54 556 56 566 c 128,-1,186
 58 576 58 576 62 586 c 0,187,188
 77 621 77 621 100.5 645.5 c 128,-1,189
 124 670 124 670 155 690 c 0,190,191
 175 702 175 702 198 709 c 128,-1,192
 221 716 221 716 247 722 c 0,193,194
 257 724 257 724 266.5 724.5 c 128,-1,195
 276 725 276 725 286 727 c 0,196,197
 289 728 289 728 295.5 727 c 128,-1,198
 302 726 302 726 304 728 c 0,0,1
EndSplineSet
EndChar

StartChar: T
Encoding: 84 84 59
Width: 611
GlyphClass: 1
Flags: W
LayerCount: 2
Fore
SplineSet
41 713 m 1,0,-1
 441 713 l 1,1,-1
 543 713 l 2,2,3
 556 713 556 713 568.5 712.5 c 128,-1,4
 581 712 581 712 589 707 c 0,5,6
 592 705 592 705 593.5 700.5 c 128,-1,7
 595 696 595 696 596 691 c 2,8,-1
 596 686 l 2,9,10
 597 682 597 682 597 677 c 128,-1,11
 597 672 597 672 597 667 c 2,12,-1
 597 628 l 2,13,14
 597 621 597 621 597.5 614.5 c 128,-1,15
 598 608 598 608 596 602 c 0,16,17
 591 585 591 585 576 584 c 128,-1,18
 561 583 561 583 540 583 c 2,19,-1
 438 583 l 2,20,21
 418 583 418 583 403.5 581.5 c 128,-1,22
 389 580 389 580 384 563 c 0,23,24
 383 558 383 558 384 554 c 128,-1,25
 385 550 385 550 383 545 c 0,26,27
 382 539 382 539 382.5 531.5 c 128,-1,28
 383 524 383 524 383 518 c 2,29,-1
 383 429 l 1,30,-1
 383 141 l 1,31,-1
 383 47 l 2,32,33
 383 31 383 31 381.5 19.5 c 128,-1,34
 380 8 380 8 369 3 c 0,35,36
 362 1 362 1 353 1 c 128,-1,37
 344 1 344 1 336 1 c 2,38,-1
 268 1 l 2,39,40
 257 1 257 1 247.5 2 c 128,-1,41
 238 3 238 3 233 9 c 0,42,43
 228 17 228 17 228 29.5 c 128,-1,44
 228 42 228 42 228 55 c 2,45,-1
 228 155 l 1,46,-1
 228 433 l 1,47,-1
 228 518 l 2,48,49
 228 525 228 525 228.5 532.5 c 128,-1,50
 229 540 229 540 227 546 c 0,51,52
 226 551 226 551 227 555 c 128,-1,53
 228 559 228 559 226 563 c 0,54,55
 221 580 221 580 205.5 581.5 c 128,-1,56
 190 583 190 583 169 583 c 2,57,-1
 76 583 l 2,58,59
 65 583 65 583 51.5 582.5 c 128,-1,60
 38 582 38 582 30 584 c 0,61,62
 22 587 22 587 18 593 c 0,63,64
 15 598 15 598 14.5 606 c 128,-1,65
 14 614 14 614 14 622 c 2,66,-1
 14 671 l 2,67,68
 14 684 14 684 15.5 694 c 128,-1,69
 17 704 17 704 25 709 c 0,70,71
 28 711 28 711 36 713 c 0,72,73
 41 713 41 713 41 713 c 1,0,-1
EndSplineSet
EndChar

StartChar: U
Encoding: 85 85 60
Width: 741
GlyphClass: 1
Flags: W
LayerCount: 2
Fore
SplineSet
93 714 m 2,0,-1
 178 714 l 2,1,2
 189 714 189 714 199.5 713 c 128,-1,3
 210 712 210 712 215 706 c 0,4,5
 220 698 220 698 220.5 685.5 c 128,-1,6
 221 673 221 673 221 660 c 2,7,-1
 221 559 l 1,8,-1
 221 353 l 1,9,-1
 221 318 l 2,10,11
 221 314 221 314 220.5 309.5 c 128,-1,12
 220 305 220 305 221 301 c 2,13,-1
 221 285 l 2,14,15
 221 276 221 276 220.5 266 c 128,-1,16
 220 256 220 256 222 248 c 0,17,18
 222 241 222 241 223 237 c 0,19,20
 225 226 225 226 226.5 215 c 128,-1,21
 228 204 228 204 232 193 c 0,22,23
 243 167 243 167 260.5 150 c 128,-1,24
 278 133 278 133 307 123 c 0,25,26
 315 121 315 121 323 120 c 128,-1,27
 331 119 331 119 339 117 c 0,28,29
 344 115 344 115 348 115.5 c 128,-1,30
 352 116 352 116 357 115 c 0,31,32
 361 114 361 114 370 114.5 c 128,-1,33
 379 115 379 115 382 116 c 2,34,-1
 397 116 l 2,35,36
 405 118 405 118 413 119 c 128,-1,37
 421 120 421 120 428 122 c 0,38,39
 442 125 442 125 450 129 c 0,40,41
 468 137 468 137 481.5 150.5 c 128,-1,42
 495 164 495 164 503 181 c 0,43,44
 514 207 514 207 516 242.5 c 128,-1,45
 518 278 518 278 518 316 c 2,46,-1
 518 515 l 1,47,-1
 518 649 l 2,48,49
 518 663 518 663 517.5 680 c 128,-1,50
 517 697 517 697 523 705 c 0,51,52
 528 711 528 711 537 712.5 c 128,-1,53
 546 714 546 714 557 714 c 2,54,-1
 621 714 l 2,55,56
 629 714 629 714 636.5 714.5 c 128,-1,57
 644 715 644 715 651 713 c 0,58,59
 665 710 665 710 669 703 c 0,60,61
 674 695 674 695 673.5 680.5 c 128,-1,62
 673 666 673 666 673 654 c 2,63,-1
 673 520 l 1,64,-1
 673 318 l 2,65,66
 673 280 673 280 672 244 c 128,-1,67
 671 208 671 208 663 179 c 0,68,69
 649 132 649 132 627.5 97.5 c 128,-1,70
 606 63 606 63 571 39 c 0,71,72
 540 17 540 17 498 3 c 0,73,74
 489 0 489 0 479.5 -2 c 128,-1,75
 470 -4 470 -4 461 -6 c 0,76,77
 455 -8 455 -8 449.5 -8 c 128,-1,78
 444 -8 444 -8 438 -10 c 0,79,80
 426 -12 426 -12 411 -13 c 128,-1,81
 396 -14 396 -14 382 -14 c 0,82,83
 287 -15 287 -15 220 9.5 c 128,-1,84
 153 34 153 34 115 89 c 0,85,86
 102 107 102 107 93.5 126.5 c 128,-1,87
 85 146 85 146 78 169 c 0,88,89
 76 174 76 174 76 177.5 c 128,-1,90
 76 181 76 181 74 186 c 0,91,92
 66 214 66 214 66 249 c 128,-1,93
 66 284 66 284 66 319 c 2,94,-1
 66 598 l 1,95,-1
 66 668 l 2,96,97
 66 678 66 678 66 687.5 c 128,-1,98
 66 697 66 697 69 703 c 0,99,100
 75 710 75 710 85 713 c 0,101,102
 87 713 87 713 89 713 c 128,-1,103
 91 713 91 713 93 714 c 2,0,-1
EndSplineSet
EndChar

StartChar: V
Encoding: 86 86 61
Width: 630
GlyphClass: 1
Flags: W
LayerCount: 2
Fore
SplineSet
26 713 m 2,0,-1
 107 713 l 2,1,2
 118 713 118 713 129.5 713 c 128,-1,3
 141 713 141 713 148 708 c 0,4,5
 157 703 157 703 160 692 c 128,-1,6
 163 681 163 681 167 670 c 0,7,8
 174 651 174 651 179.5 632 c 128,-1,9
 185 613 185 613 192 593 c 0,10,11
 212 531 212 531 231.5 469 c 128,-1,12
 251 407 251 407 271 345 c 0,13,14
 276 328 276 328 281.5 311 c 128,-1,15
 287 294 287 294 292 277 c 0,16,17
 295 268 295 268 298 259 c 128,-1,18
 301 250 301 250 306 243 c 0,19,20
 307 241 307 241 308.5 240.5 c 128,-1,21
 310 240 310 240 312 238 c 0,22,23
 323 238 323 238 326.5 247.5 c 128,-1,24
 330 257 330 257 333 265 c 0,25,26
 341 286 341 286 347 308 c 128,-1,27
 353 330 353 330 361 353 c 0,28,29
 383 419 383 419 403.5 484.5 c 128,-1,30
 424 550 424 550 446 616 c 0,31,32
 451 632 451 632 456 647.5 c 128,-1,33
 461 663 461 663 466 679 c 0,34,35
 470 687 470 687 472.5 695 c 128,-1,36
 475 703 475 703 483 708 c 0,37,38
 490 713 490 713 499.5 713 c 128,-1,39
 509 713 509 713 519 713 c 2,40,-1
 586 713 l 2,41,42
 596 713 596 713 606 713 c 128,-1,43
 616 713 616 713 622 709 c 0,44,45
 632 704 632 704 629 690.5 c 128,-1,46
 626 677 626 677 623 668 c 0,47,48
 614 645 614 645 606.5 620.5 c 128,-1,49
 599 596 599 596 591 572 c 0,50,51
 588 566 588 566 586.5 560 c 128,-1,52
 585 554 585 554 583 548 c 0,53,54
 575 527 575 527 568.5 505 c 128,-1,55
 562 483 562 483 554 461 c 0,56,57
 527 380 527 380 500 298.5 c 128,-1,58
 473 217 473 217 446 136 c 0,59,60
 437 113 437 113 430 89.5 c 128,-1,61
 423 66 423 66 415 43 c 0,62,63
 410 29 410 29 405 17.5 c 128,-1,64
 400 6 400 6 385 2 c 0,65,66
 377 0 377 0 367 0.5 c 128,-1,67
 357 1 357 1 348 1 c 2,68,-1
 276 1 l 2,69,70
 265 1 265 1 252.5 0.5 c 128,-1,71
 240 0 240 0 232 5 c 0,72,73
 221 11 221 11 217.5 23.5 c 128,-1,74
 214 36 214 36 210 48 c 0,75,76
 203 69 203 69 196.5 90.5 c 128,-1,77
 190 112 190 112 183 133 c 0,78,79
 161 196 161 196 141 260 c 128,-1,80
 121 324 121 324 99 388 c 0,81,82
 90 417 90 417 81.5 445.5 c 128,-1,83
 73 474 73 474 63 502 c 0,84,85
 59 511 59 511 57 520 c 128,-1,86
 55 529 55 529 51 538 c 0,87,88
 42 566 42 566 33.5 593.5 c 128,-1,89
 25 621 25 621 15 649 c 0,90,91
 13 658 13 658 10 666.5 c 128,-1,92
 7 675 7 675 4 684 c 0,93,94
 3 689 3 689 2.5 694 c 128,-1,95
 2 699 2 699 4 703 c 0,96,97
 7 710 7 710 17 712 c 0,98,99
 19 713 19 713 21.5 712.5 c 128,-1,100
 24 712 24 712 26 713 c 2,0,-1
EndSplineSet
EndChar

